<?xml version="1.0" standalone="no"?>
<!DOCTYPE svg PUBLIC "-//W3C//DTD SVG 1.1//EN" "http://www.w3.org/Graphics/SVG/1.1/DTD/svg11.dtd" >
<svg xmlns="http://www.w3.org/2000/svg" xmlns:xlink="http://www.w3.org/1999/xlink" version="1.1">
<metadata>
Created by FontForge 20161013 at Tue May 26 02:51:00 2015
 By ,,,
Copyright (c) 2012-2015, Omnibus-Type (www.omnibus-type.com omnibus.type@gmail.com)
</metadata>
<defs>
<font id="PragatiNarrow-Regular" horiz-adv-x="228" >
  <font-face 
    font-family="Pragati Narrow"
    font-weight="400"
    font-stretch="normal"
    units-per-em="1000"
    panose-1="2 11 5 6 2 2 2 2 11 4"
    ascent="800"
    descent="-200"
    x-height="484"
    cap-height="630"
    bbox="-495 -534 2104 1158"
    underline-thickness="50"
    underline-position="-150"
    unicode-range="U+000C-FB02"
  />
<missing-glyph horiz-adv-x="460" 
d="M0 644h460v-644h-460v644zM386 598h-312l156 -235zM46 556v-469l156 234zM414 556l-156 -235l156 -234v469zM230 281l-156 -235h312z" />
    <glyph glyph-name="fi" unicode="fi" horiz-adv-x="376" 
d="M210 661v-53h-40q-44 0 -44 -43v-81h84v-68h-84v-416h-75v416h-43v68h43v77q0 47 22.5 79t73.5 32q34 0 63 -11zM256 665h75v-91h-75v91zM256 484h75v-484h-75v484z" />
    <glyph glyph-name="fl" unicode="fl" horiz-adv-x="376" 
d="M210 661v-53h-40q-44 0 -44 -43v-81h84v-68h-84v-416h-75v416h-43v68h43v77q0 47 22.5 79t73.5 32q34 0 63 -11zM256 665h75v-665h-75v665z" />
    <glyph glyph-name=".notdef" horiz-adv-x="460" 
d="M0 644h460v-644h-460v644zM386 598h-312l156 -235zM46 556v-469l156 234zM414 556l-156 -235l156 -234v469zM230 281l-156 -235h312z" />
    <glyph glyph-name=".null" horiz-adv-x="0" 
 />
    <glyph glyph-name="nonmarkingreturn" unicode="&#xd;" horiz-adv-x="0" 
 />
    <glyph glyph-name="uni000C" horiz-adv-x="0" 
 />
    <glyph glyph-name="space" unicode=" " horiz-adv-x="210" 
 />
    <glyph glyph-name="exclam" unicode="!" horiz-adv-x="210" 
d="M148 410l-13 -253h-57q-14 323 -23 473h104q-1 -10 -11 -220zM61 0v99h93v-99h-93z" />
    <glyph glyph-name="quotedbl" unicode="&#x22;" horiz-adv-x="267" 
d="M90 374h-36l-20 121v135h75v-135zM211 374h-35l-20 121v135h76v-135z" />
    <glyph glyph-name="numbersign" unicode="#" horiz-adv-x="419" 
d="M408 376h-71l-32 -142h65v-70h-81l-36 -164h-70l36 164h-82l-37 -164h-70l38 164h-60v70h75l31 142h-70v71h86l43 193h69l-42 -193h82l44 193h69l-42 -193h55v-71zM235 234l31 142h-82l-31 -142h82z" />
    <glyph glyph-name="dollar" unicode="$" horiz-adv-x="419" 
d="M325 525.5q34 -37.5 34 -89.5l-1 -18h-75v8q0 28 -12.5 49t-39.5 27v-145q43 -14 70.5 -28.5t47 -43t19.5 -74.5q0 -69 -37 -105.5t-100 -42.5v-108h-45v108q-70 6 -103.5 46t-33.5 95q0 11 0.5 15.5t0.5 5.5h75v-10q0 -72 61 -86v164q-40 13 -66 27.5t-43.5 41.5
t-17.5 69q0 56 33.5 92t93.5 44v98h45v-98q60 -4 94 -41.5zM146.5 477.5q-11.5 -19.5 -11.5 -41.5t13 -36.5t38 -25.5v128q-28 -5 -39.5 -24.5zM275 150.5q17 18.5 17 50.5q0 28 -16 45t-45 31v-149q27 4 44 22.5z" />
    <glyph glyph-name="percent" unicode="%" horiz-adv-x="670" 
d="M247.5 604.5q29.5 -37.5 29.5 -129.5t-29.5 -128.5t-88.5 -36.5t-88 37t-29 128q0 92 29 129.5t88 37.5t88.5 -37.5zM114 0l385 630h66l-386 -630h-65zM116.5 561q-11.5 -27 -11.5 -78v-14q0 -51 11.5 -78t42.5 -27t42.5 27t11.5 78v14q0 51 -11.5 78t-42.5 27t-42.5 -27
zM608 283.5q30 -37.5 30 -128.5q0 -92 -30 -129t-89 -37q-58 0 -88 37.5t-30 128.5t30 128.5t88 37.5q59 0 89 -37.5zM476.5 239.5q-11.5 -26.5 -11.5 -77.5v-14q0 -51 11.5 -77.5t42.5 -26.5q32 0 43.5 26.5t11.5 77.5v14q0 51 -11.5 77.5t-43.5 26.5q-31 0 -42.5 -26.5z
" />
    <glyph glyph-name="ampersand" unicode="&#x26;" horiz-adv-x="503" 
d="M373 594.5q53 -47.5 53 -125.5v-17h-74v9q0 56 -32 84t-86 28q-48 0 -79 -26.5t-31 -82.5q0 -53 28 -81.5t68 -28.5h47v-67h-44q-110 0 -110 -112q0 -60 32 -88.5t89 -28.5q118 0 118 118v178h139v-68h-65v-108q0 -88 -51 -138.5t-147 -50.5q-88 0 -142 48.5t-54 132.5
q0 60 25.5 99t67.5 54v5q-39 21 -60 54.5t-21 86.5q0 82 52 127.5t139 45.5q85 0 138 -47.5z" />
    <glyph glyph-name="quotesingle" unicode="'" horiz-adv-x="145" 
d="M88 374h-36l-20 121v135h75v-135z" />
    <glyph glyph-name="parenleft" unicode="(" horiz-adv-x="251" 
d="M148 478q-34 -109 -34 -212t34 -212.5t89 -198.5h-50q-72 87 -111.5 192.5t-39.5 217.5t39.5 218.5t111.5 192.5h50q-55 -89 -89 -198z" />
    <glyph glyph-name="parenright" unicode=")" horiz-adv-x="251" 
d="M175 484.5q39 -106.5 39 -219.5t-39 -218.5t-112 -191.5h-49q54 89 88 198.5t34 212.5q0 104 -34 213t-88 197h49q73 -85 112 -191.5z" />
    <glyph glyph-name="asterisk" unicode="*" horiz-adv-x="293" 
d="M268 543l-75 -34l75 -36l-31 -54l-67 48l8 -82h-64l9 82l-68 -48l-31 54l75 36l-75 34l31 54l68 -48l-9 81h64l-8 -80l67 47z" />
    <glyph glyph-name="plus" unicode="+" horiz-adv-x="440" 
d="M400 196h-142v-196h-77v196h-141v78h141v196h77v-196h142v-78z" />
    <glyph glyph-name="comma" unicode="," horiz-adv-x="210" 
d="M59 -114l37 114h-37v99h92v-91l-44 -122h-48z" />
    <glyph glyph-name="hyphen" unicode="-" horiz-adv-x="251" 
d="M9 293h232v-90h-232v90z" />
    <glyph glyph-name="period" unicode="." horiz-adv-x="210" 
d="M59 99h92v-99h-92v99z" />
    <glyph glyph-name="slash" unicode="/" horiz-adv-x="210" 
d="M146 676h64l-143 -721h-66z" />
    <glyph glyph-name="zero" unicode="0" horiz-adv-x="419" 
d="M304.5 612.5q37.5 -29.5 58 -101t20.5 -196.5q0 -124 -20.5 -196t-58 -101t-94.5 -29q-58 0 -95.5 29t-58 101t-20.5 196q0 125 20 197t58 101t96 29q57 0 94.5 -29.5zM135.5 515q-21.5 -59 -21.5 -168v-64q0 -108 21.5 -167.5t74.5 -59.5t74 59.5t21 167.5v64
q0 109 -21 168t-74 59t-74.5 -59z" />
    <glyph glyph-name="one" unicode="1" horiz-adv-x="419" 
d="M409 0h-363v68h150v448h-151v48q40 4 97 22.5t99 43.5h30v-562h138v-68z" />
    <glyph glyph-name="two" unicode="2" horiz-adv-x="419" 
d="M330.5 601.5q45.5 -40.5 45.5 -123.5q0 -51 -20 -96.5t-49 -82.5t-76 -88q-61 -65 -85 -102q-12 -15 -17 -32h250v-77h-344v11q0 71 45 138q27 39 86 102q43 46 69 78.5t43.5 70.5t17.5 79q0 38 -20 65.5t-66 27.5q-45 0 -66 -33.5t-21 -87.5v-37h-79q0 3 -1 12t-1 24
q0 96 48 144t121 48q74 0 119.5 -40.5z" />
    <glyph glyph-name="three" unicode="3" horiz-adv-x="419" 
d="M326.5 596.5q44.5 -45.5 44.5 -127.5q0 -53 -21.5 -86.5t-60.5 -54.5v-5q43 -15 68.5 -54t25.5 -99q0 -83 -48 -132t-125 -49q-85 0 -131.5 50.5t-46.5 138.5v8h77v-10q0 -59 24.5 -89.5t70.5 -30.5q47 0 74 29.5t27 89.5q0 112 -103 112h-53v67h54q39 0 65 28.5t26 81.5
q0 56 -24 83t-62 27q-40 0 -63.5 -28.5t-23.5 -84.5v-9h-77v17q0 78 45 125.5t118 47.5q75 0 119.5 -45.5z" />
    <glyph glyph-name="four" unicode="4" horiz-adv-x="419" 
d="M210 478q-32 -86 -66.5 -155.5t-54.5 -99.5h173v198q13 30 20.5 56t18.5 71h36v-325h64v-68h-64v-155h-75v155h-243v69q50 92 93.5 202t69.5 216h76q-16 -78 -48 -164z" />
    <glyph glyph-name="five" unicode="5" horiz-adv-x="419" 
d="M129 361q47 49 111 49q65 0 107 -52.5t42 -151.5q0 -103 -47 -160t-129 -57q-80 0 -128.5 56t-48.5 151h78q0 -64 28.5 -102.5t70.5 -38.5q44 0 71 38.5t27 112.5q0 64 -25 100t-67 36q-29 0 -53.5 -19.5t-39.5 -53.5l-72 13l21 348h287v-77h-222z" />
    <glyph glyph-name="six" unicode="6" horiz-adv-x="419" 
d="M328 586q38 -56 38 -149h-77q0 66 -20 101.5t-59 35.5q-55 0 -75.5 -59t-20.5 -178q20 28 49 43.5t63 15.5q76 0 116.5 -57t40.5 -146q0 -61 -21.5 -107.5t-59 -71.5t-84.5 -25q-90 0 -136 70t-46 238q0 189 44.5 267t132.5 78q77 0 115 -56zM144.5 291.5
q-23.5 -38.5 -23.5 -98.5t23.5 -98.5t68.5 -38.5q46 0 69 38.5t23 98.5t-23 98.5t-69 38.5q-45 0 -68.5 -38.5z" />
    <glyph glyph-name="seven" unicode="7" horiz-adv-x="419" 
d="M194 47v-47h-85q0 146 54 287.5t131 265.5h-264v77h359v-48q-195 -297 -195 -535z" />
    <glyph glyph-name="eight" unicode="8" horiz-adv-x="419" 
d="M327.5 592q41.5 -50 41.5 -126q0 -45 -17.5 -82.5t-50.5 -60.5q82 -40 82 -150q0 -81 -43 -132.5t-130 -51.5q-88 0 -131 51.5t-43 132.5q0 110 82 150q-33 23 -50.5 60.5t-17.5 82.5q0 76 42 126t118 50t117.5 -50zM148 545q-23 -29 -23 -80t23 -80t62 -29t62 29t23 80
t-23 80t-62 29t-62 -29zM139 258q-25 -31 -25 -85q0 -55 24.5 -86t71.5 -31q46 0 70.5 31t24.5 86q0 54 -24.5 85t-70.5 31t-71 -31z" />
    <glyph glyph-name="nine" unicode="9" horiz-adv-x="419" 
d="M337 571.5q46 -70.5 46 -237.5q0 -189 -43.5 -267t-129.5 -78q-80 0 -118.5 56t-38.5 149h77q0 -66 21 -102t62 -36q52 0 71.5 59t20.5 178q-21 -28 -49 -43.5t-62 -15.5q-77 0 -117.5 57t-40.5 147q0 62 21.5 108t59 71t85.5 25q89 0 135 -70.5zM137 536
q-23 -38 -23 -98q0 -61 23 -99t69 -38q45 0 68.5 38.5t23.5 98.5t-23.5 98t-68.5 38q-46 0 -69 -38z" />
    <glyph glyph-name="colon" unicode=":" horiz-adv-x="210" 
d="M59 484h92v-99h-92v99zM59 99h92v-99h-92v99z" />
    <glyph glyph-name="semicolon" unicode=";" horiz-adv-x="210" 
d="M59 484h92v-99h-92v99zM59 -114l37 114h-37v99h92v-91l-44 -122h-48z" />
    <glyph glyph-name="less" unicode="&#x3c;" horiz-adv-x="440" 
d="M400 86v-82l-359 180v98l359 182v-83l-286 -147z" />
    <glyph glyph-name="equal" unicode="=" horiz-adv-x="440" 
d="M40 369h360v-77h-360v77zM40 174h360v-76h-360v76z" />
    <glyph glyph-name="greater" unicode="&#x3e;" horiz-adv-x="440" 
d="M41 4v82l286 148l-286 147v83l359 -182v-98z" />
    <glyph glyph-name="question" unicode="?" horiz-adv-x="419" 
d="M298.5 621q36.5 -21 57 -58.5t20.5 -84.5q0 -46 -10 -78t-24 -52t-36 -44q-25 -27 -37 -48t-12 -53v-38h-80v52q0 41 14.5 67.5t43.5 59.5t43 58.5t14 65.5q0 35 -17 69t-65 34q-51 0 -69 -38.5t-18 -85.5q0 -10 0.5 -16.5t0.5 -8.5h-81q-1 3 -2 12.5t-1 19.5
q0 81 46 134.5t131 53.5q45 0 81.5 -21zM171 99h91v-99h-91v99z" />
    <glyph glyph-name="at" unicode="@" horiz-adv-x="764" 
d="M633 557q90 -85 90 -262q0 -98 -27 -159.5t-66.5 -88.5t-80.5 -27q-37 0 -56 15t-26 42h-3q-18 -27 -46.5 -42t-61.5 -15q-45 0 -80 26t-35 96q0 85 57.5 116t165.5 31v57q0 35 -15.5 53.5t-55.5 18.5q-35 0 -50.5 -20t-15.5 -50v-10h-69v19q0 59 38.5 90.5t102.5 31.5
q66 0 99 -32t33 -91v-242q0 -34 32 -34q43 0 75 50.5t32 165.5q0 150 -74.5 222.5t-203.5 72.5q-141 0 -219 -88.5t-78 -262.5q0 -166 66 -248t202 -82q30 0 73.5 9t64.5 21v-55q-24 -11 -66 -18t-72 -7q-154 0 -237.5 93.5t-83.5 287.5q0 141 46.5 230.5t125 130
t178.5 40.5q151 0 241 -85zM351 212q-38 -17 -38 -65q0 -36 14.5 -51.5t44.5 -15.5q36 0 64 28.5t28 79.5v41q-75 0 -113 -17z" />
    <glyph glyph-name="A" unicode="A" horiz-adv-x="503" 
d="M416 0l-43 140h-250l-43 -140h-81l201 630h104l199 -630h-87zM240.5 532.5q-4.5 -24.5 -8.5 -37.5l-86 -281h204l-85 281q-4 13 -9 37.5t-6 32.5h-4q-1 -8 -5.5 -32.5z" />
    <glyph glyph-name="B" unicode="B" horiz-adv-x="503" 
d="M415.5 587.5q46.5 -42.5 46.5 -111.5q0 -52 -27.5 -91t-69.5 -54v-3q48 -16 79.5 -59t31.5 -102q0 -51 -24 -89t-64.5 -58t-89.5 -20h-239v630h239q71 0 117.5 -42.5zM275 360q45 0 73 29t28 70q0 48 -25.5 73t-69.5 25h-141v-197h135zM288 74q46 0 75 27.5t29 76.5
q0 44 -30.5 76t-79.5 32h-142v-212h148z" />
    <glyph glyph-name="C" unicode="C" horiz-adv-x="544" 
d="M446.5 581q59.5 -61 59.5 -179h-82q0 81 -37 123t-100 42q-83 0 -123.5 -57t-40.5 -172v-46q0 -115 40.5 -172t123.5 -57q65 0 102 41.5t37 121.5h80q0 -118 -59 -177.5t-160 -59.5q-123 0 -186 81.5t-63 244.5q0 327 249 327q100 0 159.5 -61z" />
    <glyph glyph-name="D" unicode="D" horiz-adv-x="544" 
d="M260 630q114 0 176.5 -78t62.5 -228q0 -159 -62.5 -241.5t-176.5 -82.5h-196v630h196zM253 74q77 0 119.5 57.5t42.5 170.5v45q0 104 -42.5 157t-119.5 53h-107v-483h107z" />
    <glyph glyph-name="E" unicode="E" horiz-adv-x="503" 
d="M453 630v-73h-307v-197h267v-74h-267v-212h313v-74h-395v630h389z" />
    <glyph glyph-name="F" unicode="F" horiz-adv-x="461" 
d="M428 630v-73h-282v-204h249v-73h-249v-280h-82v630h364z" />
    <glyph glyph-name="G" unicode="G" horiz-adv-x="587" 
d="M281 329h246v-329h-54l-17 70q-54 -81 -163 -81q-121 0 -184.5 82t-63.5 244t66 244.5t186 82.5q104 0 167 -58t63 -168h-83q0 76 -39 113.5t-108 37.5q-79 0 -123 -58t-44 -171v-46q0 -115 41.5 -172t121.5 -57q78 0 114.5 44.5t36.5 134.5v16h-163v71z" />
    <glyph glyph-name="H" unicode="H" horiz-adv-x="544" 
d="M399 0v286h-253v-286h-82v630h82v-270h253v270h80v-630h-80z" />
    <glyph glyph-name="I" unicode="I" horiz-adv-x="210" 
d="M64 630h82v-630h-82v630z" />
    <glyph glyph-name="J" unicode="J" horiz-adv-x="376" 
d="M277 30.5q-40 -41.5 -113 -41.5t-113 41.5t-40 119.5v41h82v-45q0 -40 18.5 -61.5t52.5 -21.5q35 0 53.5 21.5t18.5 61.5v484h81v-480q0 -78 -40 -119.5z" />
    <glyph glyph-name="K" unicode="K" horiz-adv-x="503" 
d="M486 630l-190 -254l196 -376h-92l-154 308l-100 -112v-196h-82v630h82v-333l249 333h91z" />
    <glyph glyph-name="L" unicode="L" horiz-adv-x="419" 
d="M402 74v-74h-338v630h82v-556h256z" />
    <glyph glyph-name="M" unicode="M" horiz-adv-x="628" 
d="M490 0v458q1 24 3 54.5t3 42.5h-3l-6 -26q-2 -9 -6.5 -31t-9.5 -40l-126 -458h-71l-127 458q-6 22 -14 68l-5 29h-4q1 -13 3 -43.5t3 -53.5v-458h-73v630h123l111 -413q8 -29 14.5 -77.5t7.5 -64.5h3q1 16 7 65.5t14 76.5l111 413h123v-630h-81z" />
    <glyph glyph-name="N" unicode="N" horiz-adv-x="544" 
d="M413 0l-236 401q-10 17 -23.5 46.5t-17.5 39.5l-3 -1q1 -10 2.5 -35.5t1.5 -49.5v-401h-73v630h70l234 -396q9 -15 22.5 -44.5t17.5 -39.5l2 1l-2 83v396h71v-630h-66z" />
    <glyph glyph-name="O" unicode="O" horiz-adv-x="587" 
d="M477 559.5q65 -82.5 65 -244.5q0 -161 -65.5 -243.5t-183.5 -82.5t-183 82.5t-65 243.5q0 162 65 244.5t183 82.5q119 0 184 -82.5zM173 509q-43 -58 -43 -171v-46q0 -113 43 -171t120 -58t120.5 58t43.5 171v46q0 113 -43.5 171t-120.5 58t-120 -58z" />
    <glyph glyph-name="P" unicode="P" horiz-adv-x="503" 
d="M64 0v630h225q92 0 140.5 -49.5t48.5 -133.5t-51 -135.5t-138 -51.5h-143v-260h-82zM287 334q49 0 77.5 31t28.5 82q0 52 -27.5 81t-78.5 29h-141v-223h141z" />
    <glyph glyph-name="Q" unicode="Q" horiz-adv-x="587" 
d="M110 559.5q65 82.5 183 82.5q119 0 184 -82.5t65 -244.5q0 -123 -39 -201t-111 -108l130 -120h-108l-109 103h-12q-118 0 -183 82.5t-65 243.5q0 162 65 244.5zM173 121q43 -58 120 -58t120.5 58t43.5 171v46q0 113 -43.5 171t-120.5 58t-120 -58t-43 -171v-46
q0 -113 43 -171z" />
    <glyph glyph-name="R" unicode="R" horiz-adv-x="544" 
d="M457.5 583q48.5 -47 48.5 -127q0 -59 -29.5 -102t-82.5 -61l127 -293h-89l-118 279h-168v-279h-82v630h254q91 0 139.5 -47zM146 353h169q49 0 78 28t29 75q0 48 -27.5 74.5t-79.5 26.5h-169v-204z" />
    <glyph glyph-name="S" unicode="S" horiz-adv-x="503" 
d="M393.5 598q54.5 -44 54.5 -134v-11h-83v14q0 47 -31.5 73.5t-80.5 26.5q-53 0 -85 -22t-32 -66q0 -32 18.5 -52.5t46 -33t75.5 -28.5q61 -20 98 -38t63.5 -53t26.5 -92q0 -100 -58 -146.5t-156 -46.5q-94 0 -153.5 46t-59.5 143l1 19h85l-1 -19q0 -56 34 -85.5t90 -29.5
q64 0 98.5 27t34.5 78q0 34 -18.5 56t-46.5 34.5t-77 28.5q-60 20 -97 38t-63 53.5t-26 93.5q0 84 56 127t144 43t142.5 -44z" />
    <glyph glyph-name="T" unicode="T" horiz-adv-x="461" 
d="M270 557v-557h-81v557h-171v73h424v-73h-172z" />
    <glyph glyph-name="U" unicode="U" horiz-adv-x="544" 
d="M424.5 44.5q-54.5 -55.5 -152.5 -55.5q-99 0 -153.5 55.5t-54.5 160.5v425h82v-429q0 -67 33 -102.5t93 -35.5q61 0 94 35.5t33 102.5v429h80v-425q0 -105 -54.5 -160.5z" />
    <glyph glyph-name="V" unicode="V" horiz-adv-x="503" 
d="M7 630h90l156 -541h4l160 541h78l-191 -630h-104z" />
    <glyph glyph-name="W" unicode="W" horiz-adv-x="711" 
d="M374 427q-6 38 -10.5 75.5t-6.5 51.5h-4q-2 -14 -6.5 -51.5t-10.5 -75.5l-76 -427h-105l-146 630h86l96 -436q6 -22 11.5 -60.5t7.5 -50.5h4q1 10 5.5 43.5t10.5 67.5l73 436h112l78 -436q6 -36 11 -68t6 -43h3q2 12 7.5 49t11.5 62l97 436h73l-146 -630h-105z" />
    <glyph glyph-name="X" unicode="X" horiz-adv-x="503" 
d="M404 0l-156 257l-158 -257h-86l201 328l-183 302h96l136 -225l138 225h87l-183 -295l203 -335h-95z" />
    <glyph glyph-name="Y" unicode="Y" horiz-adv-x="503" 
d="M211 0v261l-204 369h90l160 -292h3l157 292h78l-203 -369v-261h-81z" />
    <glyph glyph-name="Z" unicode="Z" horiz-adv-x="461" 
d="M133 74h307v-74h-421v35l299 522h-281v73h397v-34z" />
    <glyph glyph-name="bracketleft" unicode="[" horiz-adv-x="210" 
d="M114 -88h77v-60h-146v824h146v-60h-77v-704z" />
    <glyph glyph-name="backslash" unicode="\" horiz-adv-x="210" 
d="M1 676h65l144 -721h-65z" />
    <glyph glyph-name="bracketright" unicode="]" horiz-adv-x="210" 
d="M19 -88h76v704h-76v60h145v-824h-145v60z" />
    <glyph glyph-name="asciicircum" unicode="^" horiz-adv-x="354" 
d="M178 560l-92 -290h-82l125 360h98l126 -360h-83z" />
    <glyph glyph-name="underscore" unicode="_" horiz-adv-x="419" 
d="M0 -66h418v-48h-418v48z" />
    <glyph glyph-name="grave" unicode="`" horiz-adv-x="251" 
d="M25 661l1 4h82l79 -122h-63z" />
    <glyph glyph-name="a" unicode="a" horiz-adv-x="419" 
d="M315 460q37 -35 37 -100v-272q0 -15 7 -23.5t17 -8.5h31v-52q-20 -11 -50 -11q-29 0 -49.5 16t-26.5 43h-5q-19 -30 -49.5 -46.5t-68.5 -16.5q-49 0 -88 29t-39 107q0 93 63 127.5t182 34.5v62q0 38 -16.5 58t-59.5 20q-40 0 -57.5 -22t-17.5 -53v-12h-74q-1 5 -1 21
q0 64 42.5 99t112.5 35q73 0 110 -35zM151.5 200.5q-41.5 -18.5 -41.5 -70.5q0 -40 16.5 -57t49.5 -17q39 0 69.5 32t30.5 88v43q-83 0 -124.5 -18.5z" />
    <glyph glyph-name="b" unicode="b" horiz-adv-x="419" 
d="M135 438q13 26 40.5 41.5t62.5 15.5q64 0 104.5 -63.5t40.5 -189.5q0 -128 -39.5 -190.5t-110.5 -62.5q-34 0 -61.5 17t-44.5 50h-4l-11 -56h-57v665h76v-227h4zM131 256v-31q0 -169 86 -169q44 0 65.5 40t21.5 129v34q0 89 -21.5 128.5t-65.5 39.5q-86 0 -86 -171z" />
    <glyph glyph-name="c" unicode="c" horiz-adv-x="376" 
d="M311 447q35 -48 35 -142h-78q0 65 -15 93.5t-54 28.5q-45 0 -66 -41.5t-21 -126.5v-34q0 -85 21 -127t66 -42q39 0 56 30.5t17 92.5h74q0 -83 -36 -136.5t-111 -53.5q-86 0 -126 61t-40 191q0 131 40 192.5t126 61.5q77 0 112 -48z" />
    <glyph glyph-name="d" unicode="d" horiz-adv-x="419" 
d="M297 56h-5q-17 -33 -44.5 -50t-61.5 -17q-71 0 -110.5 62.5t-39.5 190.5q0 126 40.5 189.5t104.5 63.5q35 0 62.5 -15.5t40.5 -41.5h5v227h75v-665h-57zM136.5 387.5q-21.5 -39.5 -21.5 -128.5v-34q0 -89 21.5 -129t65.5 -40q87 0 87 169v31q0 171 -87 171
q-44 0 -65.5 -39.5z" />
    <glyph glyph-name="e" unicode="e" horiz-adv-x="419" 
d="M341 441q39 -54 39 -174v-48h-262q1 -84 26.5 -123.5t79.5 -39.5q36 0 58.5 29.5t22.5 78.5h75q0 -80 -43.5 -127.5t-114.5 -47.5q-93 0 -138.5 60t-45.5 192q0 130 45 192t137 62q82 0 121 -54zM147.5 392.5q-23.5 -34.5 -28.5 -105.5h182q0 140 -81 140
q-49 0 -72.5 -34.5z" />
    <glyph glyph-name="f" unicode="f" horiz-adv-x="210" 
d="M210 661v-53h-40q-44 0 -44 -43v-81h84v-68h-84v-416h-75v416h-43v68h43v77q0 47 22.5 79t73.5 32q34 0 63 -11z" />
    <glyph glyph-name="g" unicode="g" horiz-adv-x="419" 
d="M378.5 487q-21.5 -31 -58.5 -41q43 -46 43 -114q0 -75 -41.5 -118t-112.5 -44h-51q-19 0 -31.5 -13t-12.5 -31t13 -30.5t31 -12.5h138q51 0 82.5 -33t31.5 -80q0 -60 -37.5 -98.5t-104.5 -38.5h-137q-57 0 -88.5 32.5t-31.5 82.5q0 35 17 63t47 40q-19 12 -29.5 31.5
t-10.5 40.5q0 29 18.5 50.5t49.5 33.5q-27 21 -41.5 53t-14.5 72q0 76 42.5 119.5t115.5 43.5q37 0 70 -18q30 16 43 37t17 48h65q0 -44 -21.5 -75zM144 405.5q-21 -26.5 -21 -73.5q0 -49 20.5 -74.5t60.5 -25.5t61.5 26.5t21.5 73.5q0 48 -21.5 74t-61.5 26
q-39 0 -60 -26.5zM101.5 -4.5q-14.5 -15.5 -14.5 -40.5t15 -41t42 -16h133q24 0 40.5 17t16.5 40q0 24 -15 40t-42 16h-133q-28 0 -42.5 -15.5z" />
    <glyph glyph-name="h" unicode="h" horiz-adv-x="419" 
d="M244 495q58 0 89 -34.5t31 -112.5v-348h-75v343q0 47 -17.5 65.5t-51.5 18.5q-37 0 -63 -35.5t-26 -96.5v-295h-76v665h76v-232h5q36 62 108 62z" />
    <glyph glyph-name="i" unicode="i" horiz-adv-x="167" 
d="M46 665h76v-91h-76v91zM46 484h76v-484h-76v484z" />
    <glyph glyph-name="j" unicode="j" horiz-adv-x="167" 
d="M46 665h76v-91h-76v91zM99.5 -135q-22.5 -32 -73.5 -32q-16 0 -33.5 3t-29.5 8v52h40q21 0 32 11.5t11 33.5v543h76v-540q0 -47 -22.5 -79z" />
    <glyph glyph-name="k" unicode="k" horiz-adv-x="376" 
d="M370 484l-142 -199l150 -285h-86l-110 220l-51 -56v-164h-76v665h76v-406l156 225h83z" />
    <glyph glyph-name="l" unicode="l" horiz-adv-x="167" 
d="M46 665h76v-665h-76v665z" />
    <glyph glyph-name="m" unicode="m" horiz-adv-x="628" 
d="M573 348v-348h-76v343q0 47 -16 65.5t-46 18.5q-35 0 -58.5 -35.5t-23.5 -96.5v-295h-76v343q0 47 -16.5 65.5t-46.5 18.5q-35 0 -59 -35.5t-24 -96.5v-295h-76v484h57l11 -57h5q37 68 110 68q77 0 103 -71q19 34 50.5 52.5t67.5 18.5q114 0 114 -147z" />
    <glyph glyph-name="n" unicode="n" horiz-adv-x="419" 
d="M333 460.5q31 -34.5 31 -112.5v-348h-75v343q0 47 -17.5 65.5t-51.5 18.5q-37 0 -63 -35.5t-26 -96.5v-295h-76v484h57l11 -57h5q38 68 116 68q58 0 89 -34.5z" />
    <glyph glyph-name="o" unicode="o" horiz-adv-x="419" 
d="M383 241q0 -252 -173 -252q-174 0 -174 252q0 254 174 254q173 0 173 -254zM115 259v-34q0 -169 95 -169q94 0 94 169v34q0 83 -23.5 125.5t-70.5 42.5q-95 0 -95 -168z" />
    <glyph glyph-name="p" unicode="p" horiz-adv-x="419" 
d="M343.5 432.5q39.5 -62.5 39.5 -191.5q0 -125 -40.5 -188.5t-104.5 -63.5q-35 0 -62.5 14.5t-40.5 39.5h-4v-202h-76v643h57l11 -57h4q17 33 44.5 50.5t61.5 17.5q71 0 110.5 -62.5zM131 259v-34q0 -169 86 -169q44 0 65.5 40t21.5 129v34q0 89 -21.5 128.5t-65.5 39.5
q-86 0 -86 -168z" />
    <glyph glyph-name="q" unicode="q" horiz-adv-x="419" 
d="M247.5 477.5q27.5 -17.5 44.5 -50.5h5l10 57h57v-643h-75v202h-5q-13 -25 -40.5 -39.5t-62.5 -14.5q-64 0 -104.5 63.5t-40.5 188.5q0 129 39.5 191.5t110.5 62.5q34 0 61.5 -17.5zM136.5 387.5q-21.5 -39.5 -21.5 -128.5v-34q0 -89 21.5 -129t65.5 -40q87 0 87 169v34
q0 168 -87 168q-44 0 -65.5 -39.5z" />
    <glyph glyph-name="r" unicode="r" horiz-adv-x="251" 
d="M232 492q10 -3 13 -4v-79h-25q-39 0 -64 -27t-25 -87v-295h-76v484h57l11 -64h5q10 32 30 53.5t52 21.5q12 0 22 -3z" />
    <glyph glyph-name="s" unicode="s" horiz-adv-x="376" 
d="M294 457q37 -38 37 -95l-1 -18h-78v9q0 32 -16 53.5t-51 21.5q-36 0 -50.5 -20t-14.5 -46q0 -30 21.5 -45.5t66.5 -30.5q41 -14 67.5 -28.5t45.5 -43.5t19 -76q0 -75 -42 -112t-112 -37q-78 0 -117 41t-39 101q0 11 0.5 15t0.5 5h79v-10q0 -43 22 -64.5t57 -21.5
q31 0 52 19t21 53q0 26 -12.5 42.5t-31 26t-51.5 21.5q-41 15 -65.5 28.5t-42 40.5t-17.5 71q0 64 40.5 101t109.5 37q65 0 102 -38z" />
    <glyph glyph-name="t" unicode="t" horiz-adv-x="210" 
d="M194 416h-64v-316q0 -21 11 -32.5t32 -11.5h21v-52q-9 -6 -24 -9.5t-30 -3.5q-45 0 -65.5 32t-20.5 79v314h-42v68h42l17 134h59v-134h64v-68z" />
    <glyph glyph-name="u" unicode="u" horiz-adv-x="419" 
d="M297 56h-6q-36 -67 -116 -67q-120 0 -120 146v349h76v-344q0 -47 17.5 -65.5t50.5 -18.5q37 0 63.5 36t26.5 96v296h75v-484h-57z" />
    <glyph glyph-name="v" unicode="v" horiz-adv-x="376" 
d="M148 0l-139 484h83l66 -248q7 -22 20 -76l12 -45h4q6 24 26 98l6 21l66 250h76l-138 -484h-82z" />
    <glyph glyph-name="w" unicode="w" horiz-adv-x="544" 
d="M288 276q-6 31 -9.5 66l-4.5 45h-5q-1 -10 -4.5 -44.5t-9.5 -66.5l-50 -276h-83l-121 484h82l62 -273q6 -24 11.5 -63t6.5 -51h4q1 11 5 43.5t10 70.5l49 273h87l50 -273q6 -38 10 -70.5t5 -43.5h3q1 10 6.5 45t13.5 69l60 273h77l-121 -484h-84z" />
    <glyph glyph-name="x" unicode="x" horiz-adv-x="376" 
d="M281 0l-95 178l-98 -178h-83l142 244l-136 240h92l87 -166l91 166h84l-135 -233l141 -251h-90z" />
    <glyph glyph-name="y" unicode="y" horiz-adv-x="376" 
d="M184.5 -116q-36.5 -51 -95.5 -51q-32 0 -54 7v53h26q73 0 96 107l-148 484h83l70 -249l20 -68l17 -59h3q5 23 17 69l14 57l59 250h76l-123 -459q-24 -90 -60.5 -141z" />
    <glyph glyph-name="z" unicode="z" horiz-adv-x="376" 
d="M353 68v-68h-329v35l212 381h-198v68h302v-36l-213 -380h226z" />
    <glyph glyph-name="braceleft" unicode="{" horiz-adv-x="252" 
d="M161 558q0 -41 -1 -72t-2 -52l-3 -66q-2 -49 -20.5 -74t-60.5 -25v-9q42 0 60.5 -25t20.5 -74q2 -44 2 -65q4 -82 4 -124q0 -37 21 -51.5t52 -14.5v-53q-68 0 -106.5 28.5t-38.5 108.5v181q0 28 -20.5 41.5t-49.5 13.5v78q29 0 49.5 13t20.5 42v181q0 79 38.5 107.5
t106.5 28.5v-53q-73 0 -73 -65z" />
    <glyph glyph-name="bar" unicode="|" horiz-adv-x="196" 
d="M61 665h73v-824h-73v824z" />
    <glyph glyph-name="braceright" unicode="}" horiz-adv-x="252" 
d="M124 647.5q38 -28.5 38 -107.5v-181q0 -29 21.5 -42t50.5 -13v-78q-29 0 -50.5 -13.5t-21.5 -41.5v-181q0 -80 -38 -108.5t-105 -28.5v53q31 0 52 14.5t21 51.5q0 61 6 189q1 49 19.5 74t60.5 25v9q-42 0 -60.5 25t-19.5 74q-6 130 -6 190q0 65 -73 65v53q67 0 105 -28.5
z" />
    <glyph glyph-name="asciitilde" unicode="~" horiz-adv-x="440" 
d="M394 252.5q-14 -17.5 -38 -32.5t-56 -15q-19 0 -36.5 7t-42.5 21q-24 14 -42.5 21t-38.5 7q-28 0 -52 -15t-40 -32.5t-16 -19.5v85q0 2 14 19.5t38 32t56 14.5q19 0 36.5 -7t42.5 -21q27 -14 44 -21t37 -7q28 0 52 15t40 33t16 20v-85q0 -2 -14 -19.5z" />
    <glyph glyph-name="uni00A0" unicode="&#xa0;" horiz-adv-x="210" 
 />
    <glyph glyph-name="exclamdown" unicode="&#xa1;" horiz-adv-x="251" 
d="M99 385v99h91v-99h-91zM178 195q15 -313 18 -342h-104q7 115 17 349q1 40 5 125h58z" />
    <glyph glyph-name="cent" unicode="&#xa2;" horiz-adv-x="419" 
d="M341.5 513q32.5 -47 32.5 -135h-78q0 57 -13 85.5t-45 35.5v-368q33 7 47.5 37t14.5 85h74q0 -77 -33.5 -129.5t-102.5 -60.5v-108h-45v108q-76 9 -112.5 70.5t-36.5 181.5q0 121 36.5 182.5t112.5 69.5v98h45v-98q71 -7 103.5 -54zM123 333v-36q0 -72 17 -113t53 -52
v365q-70 -17 -70 -164z" />
    <glyph glyph-name="sterling" unicode="&#xa3;" horiz-adv-x="419" 
d="M380 464v-13h-75v15q0 108 -73 108q-72 0 -72 -101v-128h122v-65h-123l-8 -207h229v-73h-352v73h55v207h-65v65h65v114q0 90 39 136.5t110 46.5q148 0 148 -178z" />
    <glyph glyph-name="currency" unicode="&#xa4;" horiz-adv-x="419" 
d="M278.5 527.5q33.5 -14.5 59.5 -39.5l40 39l44 -44l-46 -45q33 -58 33 -124q0 -68 -33 -123l46 -44l-44 -45l-40 39q-26 -25 -59 -39t-69 -14q-37 0 -70 14t-59 39l-39 -39l-45 45l46 44q-33 55 -33 123q0 66 33 124l-46 45l45 44l38 -39q26 25 59.5 39.5t70.5 14.5
q35 0 68.5 -14.5zM140.5 456q-31.5 -22 -49.5 -59.5t-18 -82.5q0 -44 18 -81t49.5 -59t69.5 -22q37 0 68 22t49 59t18 81q0 45 -18 82.5t-49 59.5t-68 22q-38 0 -69.5 -22z" />
    <glyph glyph-name="yen" unicode="&#xa5;" horiz-adv-x="419" 
d="M396 280h-146v-65h146v-60h-146v-155h-80v155h-147v60h147v65h-147v59h117l-138 291h87l125 -269h4l122 269h76l-137 -291h117v-59z" />
    <glyph glyph-name="brokenbar" unicode="&#xa6;" horiz-adv-x="196" 
d="M61 665h73v-350h-73v350zM61 190h73v-349h-73v349z" />
    <glyph glyph-name="section" unicode="&#xa7;" horiz-adv-x="419" 
d="M324.5 604q36.5 -38 36.5 -94v-18h-79v8q0 32 -16 53.5t-51 21.5q-36 0 -50.5 -20t-14.5 -45q0 -30 13 -51.5t32.5 -35.5t52.5 -33q40 -24 64 -42.5t41 -50t17 -78.5q0 -41 -18.5 -72t-45.5 -51q26 -23 40.5 -53t14.5 -72q0 -65 -39.5 -101.5t-111.5 -36.5q-64 0 -101 38
t-37 94l1 17h78v-8q0 -32 15.5 -53.5t51.5 -21.5q35 0 50 20.5t15 45.5q0 30 -13 51t-32.5 35t-52.5 33q-40 23 -64.5 42t-41.5 50.5t-17 78.5q0 41 19 72.5t46 50.5q-26 23 -40.5 53t-14.5 72q0 66 39.5 102.5t111.5 36.5q65 0 101.5 -38zM144 318q-8 -19 -8 -44
q0 -34 14 -58t34.5 -40t55.5 -36l25 -15q32 25 32 76q0 34 -14 58t-35 39t-58 37l-23 13q-15 -11 -23 -30z" />
    <glyph glyph-name="dieresis" unicode="&#xa8;" horiz-adv-x="251" 
d="M17 665h80v-88h-80v88zM155 665h79v-88h-79v88z" />
    <glyph glyph-name="copyright" unicode="&#xa9;" horiz-adv-x="555" 
d="M416 602q58 -40 89 -114t31 -173t-31 -172.5t-89 -113.5t-138 -40t-138 40t-89 113.5t-31 172.5t31 173t89 114t138 40t138 -40zM163 563.5q-49 -34.5 -75.5 -98.5t-26.5 -150q0 -85 26.5 -149t75.5 -99t115 -35t115 35t75 99t26 149q0 86 -26 150t-75 98.5t-115 34.5
t-115 -34.5zM373.5 477q35.5 -36 35.5 -105h-53q0 46 -20 69.5t-56 23.5q-47 0 -70 -32.5t-23 -97.5v-28q0 -66 23 -98.5t70 -32.5q36 0 57 23t21 68h51q0 -69 -35 -104t-94 -35q-147 0 -147 192q0 193 147 193q58 0 93.5 -36z" />
    <glyph glyph-name="ordfeminine" unicode="&#xaa;" horiz-adv-x="279" 
d="M274 382v-38q-11 -8 -35 -8q-20 0 -34 11t-19 29q-13 -21 -34 -32t-46 -11q-34 0 -60.5 19.5t-26.5 72.5q0 65 42 88.5t122 23.5v39q0 25 -11 38.5t-38 13.5q-25 0 -37 -15t-12 -36v-9h-54v15q0 45 29 69t77 24q50 0 75 -24t25 -69v-182q0 -10 4.5 -14.5t11.5 -4.5h21z
M183 488q-53 0 -80.5 -12.5t-27.5 -47.5q0 -25 10.5 -35.5t32.5 -10.5q25 0 45 21t20 57v28z" />
    <glyph glyph-name="guillemotleft" unicode="&#xab;" horiz-adv-x="419" 
d="M179 115l-129 185l129 184h65l-104 -184l104 -185h-65zM319 115l-131 185l131 184h65l-103 -184l103 -185h-65z" />
    <glyph glyph-name="logicalnot" unicode="&#xac;" horiz-adv-x="440" 
d="M322 331h-287v85h365v-235h-78v150z" />
    <glyph glyph-name="uni00AD" unicode="&#xad;" horiz-adv-x="251" 
d="M9 203zM9 293h232v-90h-232v90z" />
    <glyph glyph-name="registered" unicode="&#xae;" horiz-adv-x="555" 
d="M416 602q58 -40 89 -114t31 -173t-31 -172.5t-89 -113.5t-138 -40t-138 40t-89 113.5t-31 172.5t31 173t89 114t138 40t138 -40zM163 563.5q-49 -34.5 -75.5 -98.5t-26.5 -150q0 -85 26.5 -149t75.5 -99t115 -35t115 35t75 99t26 149q0 86 -26 150t-75 98.5t-115 34.5
t-115 -34.5zM375.5 479.5q26.5 -25.5 26.5 -66.5q0 -32 -16.5 -55t-41.5 -31v-5q18 -6 37 -29t19 -68q0 -37 6 -51.5t19 -19.5v-16q-10 -5 -26 -5q-53 0 -53 70q0 51 -17.5 72.5t-41.5 21.5h-75v-161h-52v369h148q41 0 67.5 -25.5zM289 345q27 0 43 16t16 41q0 27 -15 41
t-42 14h-79v-112h77z" />
    <glyph glyph-name="macron" unicode="&#xaf;" horiz-adv-x="251" 
d="M11 617h230v-66h-230v66z" />
    <glyph glyph-name="degree" unicode="&#xb0;" horiz-adv-x="368" 
d="M270 606q36 -36 36 -88t-36 -88.5t-88 -36.5t-88 36.5t-36 88.5t36 88t88 36t88 -36zM129 570q-22 -22 -22 -52q0 -32 22 -54t53 -22t53 22t22 54q0 30 -22 52t-53 22t-53 -22z" />
    <glyph glyph-name="plusminus" unicode="&#xb1;" horiz-adv-x="504" 
d="M432 285h-143v-169h-76v169h-141v77h141v169h76v-169h143v-77zM72 76h360v-76h-360v76z" />
    <glyph glyph-name="uni00B2" unicode="&#xb2;" horiz-adv-x="251" 
d="M203 651q28 -25 28 -76q0 -40 -22.5 -75.5t-63.5 -81.5q-5 -6 -17 -18t-21 -23.5t-14 -22.5h139v-58h-210v15q0 33 15 61.5t43 59.5l20 21q36 38 53.5 64.5t17.5 57.5q0 19 -10 33t-32 14t-33 -17t-11 -44v-29h-57q0 3 -1 11t-1 17q0 58 29.5 87t74.5 29t73 -25z" />
    <glyph glyph-name="uni00B3" unicode="&#xb3;" horiz-adv-x="251" 
d="M201.5 648q27.5 -28 27.5 -78q0 -30 -11 -49t-33 -33q22 -12 35.5 -34.5t13.5 -53.5q0 -51 -28.5 -80.5t-75.5 -29.5q-52 0 -80.5 31t-28.5 85v10h59v-12q0 -61 46 -61q24 0 37.5 14.5t13.5 44.5q0 58 -52 58h-32v52h33q19 0 32 14t13 41q0 28 -12 42t-30 14
q-19 0 -31.5 -14.5t-12.5 -42.5v-13h-57v17q0 48 28 77t72 29q46 0 73.5 -28z" />
    <glyph glyph-name="acute" unicode="&#xb4;" horiz-adv-x="251" 
d="M62 543l79 122h84l1 -4l-100 -118h-64z" />
    <glyph glyph-name="uni00B5" unicode="&#xb5;" horiz-adv-x="419" 
d="M55 0zM297 56h-6q-36 -67 -116 -67q-26 0 -44 7v-155h-76v643h76v-353q0 -41 18 -58t50 -17q37 0 63.5 36t26.5 96v296h75v-484h-57z" />
    <glyph glyph-name="paragraph" unicode="&#xb6;" horiz-adv-x="405" 
d="M341 -159h-60v733h-49v-733h-60v389q-44 5 -79.5 33t-55.5 72t-20 95q0 55 23.5 100.5t64 72.5t88.5 27h192v-56h-44v-733z" />
    <glyph glyph-name="periodcentered" unicode="&#xb7;" horiz-adv-x="210" 
d="M58 367h93v-102h-93v102z" />
    <glyph glyph-name="cedilla" unicode="&#xb8;" horiz-adv-x="251" 
d="M185 -49.5q21 -14.5 21 -43.5q0 -41 -29 -57.5t-67 -16.5t-77 7v45h70q33 0 33 22q0 12 -7 17t-24 5h-30l12 81h51l-7 -43q33 -2 54 -16.5z" />
    <glyph glyph-name="uni00B9" unicode="&#xb9;" horiz-adv-x="251" 
d="M234 296h-198v53h73v238h-74v39q23 3 53.5 14.5t50.5 25.5h27v-317h68v-53z" />
    <glyph glyph-name="ordmasculine" unicode="&#xba;" horiz-adv-x="275" 
d="M255 503q0 -171 -118 -171q-117 0 -117 171q0 88 29.5 130.5t87.5 42.5q118 0 118 -173zM76 516v-24q0 -111 61 -111q62 0 62 111v24q0 111 -62 111q-61 0 -61 -111z" />
    <glyph glyph-name="guillemotright" unicode="&#xbb;" horiz-adv-x="419" 
d="M35 115l103 185l-103 184h65l131 -184l-131 -185h-65zM175 115l104 185l-104 184h65l129 -184l-129 -185h-65z" />
    <glyph glyph-name="onequarter" unicode="&#xbc;" horiz-adv-x="629" 
d="M488 642h57l-382 -653h-57zM226 261h-197v53h73v237h-74v40q22 3 52.5 14.5t51.5 24.5h27v-316h67v-53zM468.5 247q-28.5 -69 -50.5 -107h78v85q25 66 32 102h25v-187h38v-52h-38v-88h-57v88h-138v48q29 53 54 117t41 127h58q-14 -64 -42.5 -133z" />
    <glyph glyph-name="onehalf" unicode="&#xbd;" horiz-adv-x="629" 
d="M478 642h57l-381 -653h-58zM226 261h-197v53h73v237h-74v40q22 3 52.5 14.5t51.5 24.5h27v-316h67v-53zM561 355.5q28 -24.5 28 -75.5q0 -41 -23.5 -78t-63.5 -79l-15 -17q-26 -26 -37 -48h140v-58h-210v15q0 35 16.5 64.5t46.5 61.5q7 7 32.5 35t38.5 53.5t13 50.5
q0 19 -9 32.5t-31 13.5t-33 -17.5t-11 -43.5v-29h-58l-1 28q0 58 29.5 87t74.5 29t73 -24.5z" />
    <glyph glyph-name="threequarters" unicode="&#xbe;" horiz-adv-x="629" 
d="M205.5 614q27.5 -28 27.5 -78q0 -29 -11.5 -49t-33.5 -33q23 -11 36.5 -34t13.5 -54q0 -51 -29 -80t-76 -29q-52 0 -80 30.5t-28 83.5v11h58v-13q0 -60 47 -60q23 0 36.5 15t13.5 44q0 57 -51 57h-32v53h33q19 0 32 14t13 42t-12 42t-31 14t-31 -15t-12 -44v-12h-58v17
q0 48 28 77t72 29q47 0 74.5 -28zM480 642h58l-382 -653h-57zM468.5 247q-28.5 -69 -50.5 -107h78v85q25 66 32 102h25v-187h38v-52h-38v-88h-57v88h-138v48q29 53 54 117t41 127h58q-14 -64 -42.5 -133z" />
    <glyph glyph-name="questiondown" unicode="&#xbf;" horiz-adv-x="461" 
d="M178 484h92v-99h-92v99zM249.5 197q-14.5 -27 -43.5 -60q-29 -32 -43.5 -58.5t-14.5 -67.5q0 -32 18 -65t68 -33q49 0 66 38t17 85q0 11 -0.5 17t-0.5 8h82q0 -3 1 -12.5t1 -19.5q0 -84 -44 -135.5t-128 -51.5q-71 0 -117.5 44.5t-46.5 115.5q0 44 10 75.5t23.5 51.5
t36.5 45q26 30 38 52t12 55v37h80v-52q0 -42 -14.5 -69z" />
    <glyph glyph-name="Agrave" unicode="&#xc0;" horiz-adv-x="503" 
d="M242 691l-98 118l1 3h82l79 -121h-64zM416 0l-43 140h-250l-43 -140h-81l201 630h104l199 -630h-87zM240.5 532.5q-4.5 -24.5 -8.5 -37.5l-86 -281h204l-85 281q-4 13 -9 37.5t-6 32.5h-4q-1 -8 -5.5 -32.5z" />
    <glyph glyph-name="Aacute" unicode="&#xc1;" horiz-adv-x="503" 
d="M260 691h-63l79 121h83l1 -3zM416 0l-43 140h-250l-43 -140h-81l201 630h104l199 -630h-87zM240.5 532.5q-4.5 -24.5 -8.5 -37.5l-86 -281h204l-85 281q-4 13 -9 37.5t-6 32.5h-4q-1 -8 -5.5 -32.5z" />
    <glyph glyph-name="Acircumflex" unicode="&#xc2;" horiz-adv-x="503" 
d="M292 686l-40 73l-42 -73h-73l79 125h72l78 -125h-74zM416 0l-43 140h-250l-43 -140h-81l201 630h104l199 -630h-87zM240.5 532.5q-4.5 -24.5 -8.5 -37.5l-86 -281h204l-85 281q-4 13 -9 37.5t-6 32.5h-4q-1 -8 -5.5 -32.5z" />
    <glyph glyph-name="Atilde" unicode="&#xc3;" horiz-adv-x="503" 
d="M365.5 746q-19.5 -29 -58.5 -29q-24 0 -56 15q-3 1 -18.5 7t-30.5 6q-28 0 -31 -28h-55q0 36 20 65.5t58 29.5q24 0 56 -15q4 -1 20 -7t31 -6q27 0 31 28h53q0 -37 -19.5 -66zM416 0l-43 140h-250l-43 -140h-81l201 630h104l199 -630h-87zM240.5 532.5
q-4.5 -24.5 -8.5 -37.5l-86 -281h204l-85 281q-4 13 -9 37.5t-6 32.5h-4q-1 -8 -5.5 -32.5z" />
    <glyph glyph-name="Adieresis" unicode="&#xc4;" horiz-adv-x="503" 
d="M142 725v87h81v-87h-81zM281 725v87h80v-87h-80zM416 0l-43 140h-250l-43 -140h-81l201 630h104l199 -630h-87zM240.5 532.5q-4.5 -24.5 -8.5 -37.5l-86 -281h204l-85 281q-4 13 -9 37.5t-6 32.5h-4q-1 -8 -5.5 -32.5z" />
    <glyph glyph-name="Aring" unicode="&#xc5;" horiz-adv-x="503" 
d="M314 815.5q25 -25.5 25 -62.5t-25.5 -62.5t-62.5 -25.5q-36 0 -62.5 25.5t-26.5 62.5t26 62.5t63 25.5q38 0 63 -25.5zM218 786q-14 -14 -14 -33t14 -33t33 -14t32.5 14t13.5 33t-13.5 33t-32.5 14t-33 -14zM416 0l-43 140h-250l-43 -140h-81l201 630h104l199 -630h-87z
M240.5 532.5q-4.5 -24.5 -8.5 -37.5l-86 -281h204l-85 281q-4 13 -9 37.5t-6 32.5h-4q-1 -8 -5.5 -32.5z" />
    <glyph glyph-name="AE" unicode="&#xc6;" horiz-adv-x="754" 
d="M376 557l46 -197h252v-74h-235l48 -212h233v-74h-304l-31 140h-251l-54 -140h-81l258 630h457v-73h-338zM274 499l-112 -285h207l-62 285l-5 28q-1 9 -5 29h-4q-14 -45 -19 -57z" />
    <glyph glyph-name="Ccedilla" unicode="&#xc7;" horiz-adv-x="544" 
d="M446.5 581q59.5 -61 59.5 -179h-82q0 81 -37 123t-100 42q-83 0 -123.5 -57t-40.5 -172v-46q0 -115 40.5 -172t123.5 -57q65 0 102 41.5t37 121.5h80q0 -118 -59 -177.5t-160 -59.5l-3 -22q33 -2 54 -16.5t21 -43.5q0 -41 -29 -57.5t-67 -16.5q-39 0 -77 7v45h70
q33 0 33 22q0 12 -7 17t-24 5h-31l10 64q-99 14 -149 95t-50 227q0 327 249 327q100 0 159.5 -61z" />
    <glyph glyph-name="Egrave" unicode="&#xc8;" horiz-adv-x="503" 
d="M242 691l-98 118l1 3h82l79 -121h-64zM146 557v-197h267v-74h-267v-212h313v-74h-395v630h389v-73h-307z" />
    <glyph glyph-name="Eacute" unicode="&#xc9;" horiz-adv-x="503" 
d="M260 691h-63l79 121h83l1 -3zM146 557v-197h267v-74h-267v-212h313v-74h-395v630h389v-73h-307z" />
    <glyph glyph-name="Ecircumflex" unicode="&#xca;" horiz-adv-x="503" 
d="M252 759l-42 -73h-73l79 125h72l78 -125h-74zM453 630v-73h-307v-197h267v-74h-267v-212h313v-74h-395v630h389z" />
    <glyph glyph-name="Edieresis" unicode="&#xcb;" horiz-adv-x="503" 
d="M142 725v87h81v-87h-81zM281 725v87h80v-87h-80zM146 557v-197h267v-74h-267v-212h313v-74h-395v630h389v-73h-307z" />
    <glyph glyph-name="Igrave" unicode="&#xcc;" horiz-adv-x="210" 
d="M97 691l-100 118l1 3h83l79 -121h-63zM64 0v630h82v-630h-82z" />
    <glyph glyph-name="Iacute" unicode="&#xcd;" horiz-adv-x="210" 
d="M114 691h-63l79 121h81l1 -3zM64 0v630h82v-630h-82z" />
    <glyph glyph-name="Icircumflex" unicode="&#xce;" horiz-adv-x="210" 
d="M106 759l-42 -73h-74l80 125h71l78 -125h-72zM64 630h82v-630h-82v630z" />
    <glyph glyph-name="Idieresis" unicode="&#xcf;" horiz-adv-x="210" 
d="M-4 725v87h80v-87h-80zM134 725v87h80v-87h-80zM64 0v630h82v-630h-82z" />
    <glyph glyph-name="Eth" unicode="&#xd0;" horiz-adv-x="544" 
d="M64 630h196q114 0 176.5 -78t62.5 -228q0 -159 -62.5 -241.5t-176.5 -82.5h-196v297h-60v59h60v274zM289 356v-59h-143v-223h107q77 0 119.5 57.5t42.5 170.5v45q0 104 -42.5 157t-119.5 53h-107v-201h143z" />
    <glyph glyph-name="Ntilde" unicode="&#xd1;" horiz-adv-x="544" 
d="M387 746.5q-20 -29.5 -58 -29.5q-14 0 -26.5 4t-30.5 11q-32 13 -49 13q-28 0 -32 -28h-53q0 36 20 65.5t58 29.5q24 0 56 -15q3 -1 18.5 -7t30.5 -6q14 0 22 6t10 22h54q0 -36 -20 -65.5zM413 0l-236 401q-10 17 -23.5 46.5t-17.5 39.5l-3 -1q1 -10 2.5 -35.5t1.5 -49.5
v-401h-73v630h70l234 -396q9 -15 22.5 -44.5t17.5 -39.5l2 1l-2 83v396h71v-630h-66z" />
    <glyph glyph-name="Ograve" unicode="&#xd2;" horiz-adv-x="587" 
d="M285 691l-99 118v3h83l79 -121h-63zM477 559.5q65 -82.5 65 -244.5q0 -161 -65.5 -243.5t-183.5 -82.5t-183 82.5t-65 243.5q0 162 65 244.5t183 82.5q119 0 184 -82.5zM173 509q-43 -58 -43 -171v-46q0 -113 43 -171t120 -58t120.5 58t43.5 171v46q0 113 -43.5 171
t-120.5 58t-120 -58z" />
    <glyph glyph-name="Oacute" unicode="&#xd3;" horiz-adv-x="587" 
d="M303 691h-64l79 121h82l1 -3zM477 559.5q65 -82.5 65 -244.5q0 -161 -65.5 -243.5t-183.5 -82.5t-183 82.5t-65 243.5q0 162 65 244.5t183 82.5q119 0 184 -82.5zM173 509q-43 -58 -43 -171v-46q0 -113 43 -171t120 -58t120.5 58t43.5 171v46q0 113 -43.5 171t-120.5 58
t-120 -58z" />
    <glyph glyph-name="Ocircumflex" unicode="&#xd4;" horiz-adv-x="587" 
d="M294 759l-41 -73h-74l79 125h72l78 -125h-73zM477 559.5q65 -82.5 65 -244.5q0 -161 -65.5 -243.5t-183.5 -82.5t-183 82.5t-65 243.5q0 162 65 244.5t183 82.5q119 0 184 -82.5zM173 509q-43 -58 -43 -171v-46q0 -113 43 -171t120 -58t120.5 58t43.5 171v46
q0 113 -43.5 171t-120.5 58t-120 -58z" />
    <glyph glyph-name="Otilde" unicode="&#xd5;" horiz-adv-x="587" 
d="M407.5 746q-19.5 -29 -58.5 -29q-13 0 -25 3.5t-29 10.5q-34 14 -52 14q-27 0 -31 -28h-53q0 36 20 65.5t58 29.5q14 0 26.5 -4t29.5 -11q3 -1 18.5 -7t31.5 -6q14 0 21.5 6t9.5 22h53q0 -37 -19.5 -66zM477 559.5q65 -82.5 65 -244.5q0 -161 -65.5 -243.5t-183.5 -82.5
t-183 82.5t-65 243.5q0 162 65 244.5t183 82.5q119 0 184 -82.5zM173 509q-43 -58 -43 -171v-46q0 -113 43 -171t120 -58t120.5 58t43.5 171v46q0 113 -43.5 171t-120.5 58t-120 -58z" />
    <glyph glyph-name="Odieresis" unicode="&#xd6;" horiz-adv-x="587" 
d="M185 725v87h80v-87h-80zM322 725v87h80v-87h-80zM477 559.5q65 -82.5 65 -244.5q0 -161 -65.5 -243.5t-183.5 -82.5t-183 82.5t-65 243.5q0 162 65 244.5t183 82.5q119 0 184 -82.5zM173 509q-43 -58 -43 -171v-46q0 -113 43 -171t120 -58t120.5 58t43.5 171v46
q0 113 -43.5 171t-120.5 58t-120 -58z" />
    <glyph glyph-name="multiply" unicode="&#xd7;" horiz-adv-x="440" 
d="M278 234l140 -138l-50 -54l-141 137l-142 -137l-50 54l141 138l-141 140l50 54l142 -139l141 139l50 -54z" />
    <glyph glyph-name="Oslash" unicode="&#xd8;" horiz-adv-x="587" 
d="M542 315q0 -161 -65.5 -243.5t-183.5 -82.5q-87 0 -146 45l-42 -68h-59l65 104q-66 83 -66 245t65 244.5t183 82.5q86 0 147 -46l43 69h59l-67 -105q67 -86 67 -245zM173 509q-43 -58 -43 -171v-46q0 -93 28 -146l239 381q-41 40 -104 40q-77 0 -120 -58zM293 63
q77 0 120.5 58t43.5 171v46q0 91 -29 147l-239 -383q41 -39 104 -39z" />
    <glyph glyph-name="Ugrave" unicode="&#xd9;" horiz-adv-x="544" 
d="M264 691l-101 118l1 3h85l78 -121h-63zM424.5 44.5q-54.5 -55.5 -152.5 -55.5q-99 0 -153.5 55.5t-54.5 160.5v425h82v-429q0 -67 33 -102.5t93 -35.5q61 0 94 35.5t33 102.5v429h80v-425q0 -105 -54.5 -160.5z" />
    <glyph glyph-name="Uacute" unicode="&#xda;" horiz-adv-x="544" 
d="M282 691h-65l79 121h83l1 -3zM424.5 44.5q-54.5 -55.5 -152.5 -55.5q-99 0 -153.5 55.5t-54.5 160.5v425h82v-429q0 -67 33 -102.5t93 -35.5q61 0 94 35.5t33 102.5v429h80v-425q0 -105 -54.5 -160.5z" />
    <glyph glyph-name="Ucircumflex" unicode="&#xdb;" horiz-adv-x="544" 
d="M313 686l-39 73l-43 -73h-74l79 125h72l79 -125h-74zM424.5 44.5q-54.5 -55.5 -152.5 -55.5q-99 0 -153.5 55.5t-54.5 160.5v425h82v-429q0 -67 33 -102.5t93 -35.5q61 0 94 35.5t33 102.5v429h80v-425q0 -105 -54.5 -160.5z" />
    <glyph glyph-name="Udieresis" unicode="&#xdc;" horiz-adv-x="544" 
d="M162 725v87h80v-87h-80zM301 725v87h81v-87h-81zM424.5 44.5q-54.5 -55.5 -152.5 -55.5q-99 0 -153.5 55.5t-54.5 160.5v425h82v-429q0 -67 33 -102.5t93 -35.5q61 0 94 35.5t33 102.5v429h80v-425q0 -105 -54.5 -160.5z" />
    <glyph glyph-name="Yacute" unicode="&#xdd;" horiz-adv-x="503" 
d="M260 691h-63l79 121h83l1 -3zM292 0h-81v261l-204 369h90l160 -292h3l157 292h78l-203 -369v-261z" />
    <glyph glyph-name="Thorn" unicode="&#xde;" horiz-adv-x="503" 
d="M289 505q92 0 140.5 -49.5t48.5 -134.5q0 -84 -50.5 -135t-138.5 -51h-143v-135h-82v630h82v-125h143zM146 209h141q48 0 77 30.5t29 81.5q0 52 -27.5 81.5t-78.5 29.5h-141v-223z" />
    <glyph glyph-name="germandbls" unicode="&#xdf;" horiz-adv-x="461" 
d="M358.5 629.5q48.5 -46.5 48.5 -126.5q0 -45 -25 -84.5t-63 -55.5v-3q47 -17 76.5 -63.5t29.5 -99.5q0 -58 -24.5 -103t-66.5 -69.5t-93 -24.5h-68v68h61q31 0 57 17.5t41.5 47.5t15.5 65q0 50 -33.5 86.5t-80.5 36.5h-61v68h54q42 0 72 33t30 79q0 50 -26 78.5t-74 28.5
q-50 0 -78.5 -33.5t-28.5 -98.5v-476h-76v474q0 103 52 152.5t136 49.5q76 0 124.5 -46.5z" />
    <glyph glyph-name="agrave" unicode="&#xe0;" horiz-adv-x="419" 
d="M197 543l-99 118l1 4h82l79 -122h-63zM315 460q37 -35 37 -100v-272q0 -15 7 -23.5t17 -8.5h31v-52q-20 -11 -50 -11q-29 0 -49.5 16t-26.5 43h-5q-19 -30 -49.5 -46.5t-68.5 -16.5q-49 0 -88 29t-39 107q0 93 63 127.5t182 34.5v62q0 38 -16.5 58t-59.5 20
q-40 0 -57.5 -22t-17.5 -53v-12h-74q-1 5 -1 21q0 64 42.5 99t112.5 35q73 0 110 -35zM151.5 200.5q-41.5 -18.5 -41.5 -70.5q0 -40 16.5 -57t49.5 -17q39 0 69.5 32t30.5 88v43q-83 0 -124.5 -18.5z" />
    <glyph glyph-name="aacute" unicode="&#xe1;" horiz-adv-x="419" 
d="M214 543h-63l79 122h83v-4zM315 460q37 -35 37 -100v-272q0 -15 7 -23.5t17 -8.5h31v-52q-20 -11 -50 -11q-29 0 -49.5 16t-26.5 43h-5q-19 -30 -49.5 -46.5t-68.5 -16.5q-49 0 -88 29t-39 107q0 93 63 127.5t182 34.5v62q0 38 -16.5 58t-59.5 20q-40 0 -57.5 -22
t-17.5 -53v-12h-74q-1 5 -1 21q0 64 42.5 99t112.5 35q73 0 110 -35zM151.5 200.5q-41.5 -18.5 -41.5 -70.5q0 -40 16.5 -57t49.5 -17q39 0 69.5 32t30.5 88v43q-83 0 -124.5 -18.5z" />
    <glyph glyph-name="acircumflex" unicode="&#xe2;" horiz-adv-x="419" 
d="M210 613l-40 -73h-74l78 124h72l78 -124h-73zM315 460q37 -35 37 -100v-272q0 -15 7 -23.5t17 -8.5h31v-52q-20 -11 -50 -11q-29 0 -49.5 16t-26.5 43h-5q-19 -30 -49.5 -46.5t-68.5 -16.5q-49 0 -88 29t-39 107q0 93 63 127.5t182 34.5v62q0 38 -16.5 58t-59.5 20
q-40 0 -57.5 -22t-17.5 -53v-12h-74q-1 5 -1 21q0 64 42.5 99t112.5 35q73 0 110 -35zM151.5 200.5q-41.5 -18.5 -41.5 -70.5q0 -40 16.5 -57t49.5 -17q39 0 69.5 32t30.5 88v43q-83 0 -124.5 -18.5z" />
    <glyph glyph-name="atilde" unicode="&#xe3;" horiz-adv-x="419" 
d="M324 598.5q-20 -29.5 -59 -29.5q-17 0 -34 7t-21 8q-16 7 -27 10.5t-23 3.5q-28 0 -31 -29h-54q0 37 20.5 66.5t58.5 29.5q13 0 27.5 -4.5t27.5 -10.5q12 -5 25.5 -9.5t24.5 -4.5q28 0 31 29h54q0 -37 -20 -66.5zM315 460q37 -35 37 -100v-272q0 -15 7 -23.5t17 -8.5h31
v-52q-20 -11 -50 -11q-29 0 -49.5 16t-26.5 43h-5q-19 -30 -49.5 -46.5t-68.5 -16.5q-49 0 -88 29t-39 107q0 93 63 127.5t182 34.5v62q0 38 -16.5 58t-59.5 20q-40 0 -57.5 -22t-17.5 -53v-12h-74q-1 5 -1 21q0 64 42.5 99t112.5 35q73 0 110 -35zM151.5 200.5
q-41.5 -18.5 -41.5 -70.5q0 -40 16.5 -57t49.5 -17q39 0 69.5 32t30.5 88v43q-83 0 -124.5 -18.5z" />
    <glyph glyph-name="adieresis" unicode="&#xe4;" horiz-adv-x="419" 
d="M100 577v88h80v-88h-80zM238 577v88h81v-88h-81zM315 460q37 -35 37 -100v-272q0 -15 7 -23.5t17 -8.5h31v-52q-20 -11 -50 -11q-29 0 -49.5 16t-26.5 43h-5q-19 -30 -49.5 -46.5t-68.5 -16.5q-49 0 -88 29t-39 107q0 93 63 127.5t182 34.5v62q0 38 -16.5 58t-59.5 20
q-40 0 -57.5 -22t-17.5 -53v-12h-74q-1 5 -1 21q0 64 42.5 99t112.5 35q73 0 110 -35zM151.5 200.5q-41.5 -18.5 -41.5 -70.5q0 -40 16.5 -57t49.5 -17q39 0 69.5 32t30.5 88v43q-83 0 -124.5 -18.5z" />
    <glyph glyph-name="aring" unicode="&#xe5;" horiz-adv-x="419" 
d="M271.5 668q25.5 -26 25.5 -62q0 -37 -25.5 -63t-61.5 -26t-62 25.5t-26 63.5q0 36 25.5 62t62.5 26q36 0 61.5 -26zM176 638.5q-14 -13.5 -14 -32.5t14.5 -33.5t33.5 -14.5q18 0 32.5 14.5t14.5 33.5q0 18 -14.5 32t-32.5 14q-20 0 -34 -13.5zM315 460q37 -35 37 -100
v-272q0 -15 7 -23.5t17 -8.5h31v-52q-20 -11 -50 -11q-29 0 -49.5 16t-26.5 43h-5q-19 -30 -49.5 -46.5t-68.5 -16.5q-49 0 -88 29t-39 107q0 93 63 127.5t182 34.5v62q0 38 -16.5 58t-59.5 20q-40 0 -57.5 -22t-17.5 -53v-12h-74q-1 5 -1 21q0 64 42.5 99t112.5 35
q73 0 110 -35zM151.5 200.5q-41.5 -18.5 -41.5 -70.5q0 -40 16.5 -57t49.5 -17q39 0 69.5 32t30.5 88v43q-83 0 -124.5 -18.5z" />
    <glyph glyph-name="ae" unicode="&#xe6;" horiz-adv-x="670" 
d="M583 441q39 -54 39 -174v-48h-261q0 -84 25.5 -123.5t79.5 -39.5q36 0 59 29.5t23 78.5h74q0 -80 -43.5 -127.5t-114.5 -47.5q-104 0 -147 73q-26 -34 -62 -53.5t-77 -19.5q-59 0 -100.5 29t-41.5 107q0 93 63.5 127.5t182.5 34.5v62q0 38 -17 58t-60 20q-39 0 -56.5 -22
t-17.5 -53v-12h-75q-1 5 -1 21q0 64 43 99t112 35q44 0 76 -14t49 -41q45 55 129 55q80 0 119 -54zM390 393q-24 -34 -29 -106h182q0 69 -20 104.5t-59 35.5q-50 0 -74 -34zM157 200.5q-42 -18.5 -42 -70.5q0 -40 16.5 -57t49.5 -17q40 0 70.5 29.5t30.5 82.5v51
q-83 0 -125 -18.5z" />
    <glyph glyph-name="ccedilla" unicode="&#xe7;" horiz-adv-x="376" 
d="M311 447q35 -48 35 -142h-78q0 65 -15 93.5t-54 28.5q-45 0 -66 -41.5t-21 -126.5v-34q0 -85 21 -127t66 -42q39 0 56 30.5t17 92.5h74q0 -81 -35 -134.5t-108 -55.5l-2 -22q33 -2 53.5 -16.5t20.5 -43.5q0 -41 -29 -57.5t-67 -16.5t-77 7v45h70q33 0 33 22q0 12 -7 17
t-24 5h-30l10 66q-62 14 -91.5 74.5t-29.5 171.5q0 131 40 192.5t126 61.5q77 0 112 -48z" />
    <glyph glyph-name="egrave" unicode="&#xe8;" horiz-adv-x="419" 
d="M211 543l-99 118l1 4h83l79 -122h-64zM341 441q39 -54 39 -174v-48h-262q1 -84 26.5 -123.5t79.5 -39.5q36 0 58.5 29.5t22.5 78.5h75q0 -80 -43.5 -127.5t-114.5 -47.5q-93 0 -138.5 60t-45.5 192q0 130 45 192t137 62q82 0 121 -54zM147.5 392.5
q-23.5 -34.5 -28.5 -105.5h182q0 140 -81 140q-49 0 -72.5 -34.5z" />
    <glyph glyph-name="eacute" unicode="&#xe9;" horiz-adv-x="419" 
d="M230 543h-65l79 122h84l1 -4zM341 441q39 -54 39 -174v-48h-262q1 -84 26.5 -123.5t79.5 -39.5q36 0 58.5 29.5t22.5 78.5h75q0 -80 -43.5 -127.5t-114.5 -47.5q-93 0 -138.5 60t-45.5 192q0 130 45 192t137 62q82 0 121 -54zM147.5 392.5q-23.5 -34.5 -28.5 -105.5h182
q0 140 -81 140q-49 0 -72.5 -34.5z" />
    <glyph glyph-name="ecircumflex" unicode="&#xea;" horiz-adv-x="419" 
d="M210 613l-40 -73h-74l78 124h72l78 -124h-73zM341 441q39 -54 39 -174v-48h-262q1 -84 26.5 -123.5t79.5 -39.5q36 0 58.5 29.5t22.5 78.5h75q0 -80 -43.5 -127.5t-114.5 -47.5q-93 0 -138.5 60t-45.5 192q0 130 45 192t137 62q82 0 121 -54zM147.5 392.5
q-23.5 -34.5 -28.5 -105.5h182q0 140 -81 140q-49 0 -72.5 -34.5z" />
    <glyph glyph-name="edieresis" unicode="&#xeb;" horiz-adv-x="419" 
d="M100 577v88h80v-88h-80zM238 577v88h81v-88h-81zM341 441q39 -54 39 -174v-48h-262q1 -84 26.5 -123.5t79.5 -39.5q36 0 58.5 29.5t22.5 78.5h75q0 -80 -43.5 -127.5t-114.5 -47.5q-93 0 -138.5 60t-45.5 192q0 130 45 192t137 62q82 0 121 -54zM147.5 392.5
q-23.5 -34.5 -28.5 -105.5h182q0 140 -81 140q-49 0 -72.5 -34.5z" />
    <glyph glyph-name="igrave" unicode="&#xec;" horiz-adv-x="210" 
d="M97 543l-100 118l1 4h83l79 -122h-63zM68 0v484h74v-484h-74z" />
    <glyph glyph-name="iacute" unicode="&#xed;" horiz-adv-x="210" 
d="M114 543h-63l79 122h81l1 -4zM68 0v484h74v-484h-74z" />
    <glyph glyph-name="icircumflex" unicode="&#xee;" horiz-adv-x="210" 
d="M106 613l-42 -73h-74l80 124h71l78 -124h-72zM68 484h74v-484h-74v484z" />
    <glyph glyph-name="idieresis" unicode="&#xef;" horiz-adv-x="210" 
d="M-4 577v88h80v-88h-80zM134 577v88h80v-88h-80zM68 0v484h74v-484h-74z" />
    <glyph glyph-name="eth" unicode="&#xf0;" horiz-adv-x="419" 
d="M354.5 417q28.5 -80 28.5 -176q0 -252 -173 -252q-174 0 -174 252q0 129 44.5 191.5t119.5 62.5q19 0 45 -11q-16 31 -51 77l-109 -10v55l66 7l-16 18l-28 30l2 4h81l42 -45l107 10v-56l-65 -6q52 -71 80.5 -151zM304 259q0 83 -24 125.5t-70 42.5q-95 0 -95 -168v-34
q0 -169 95 -169q94 0 94 169v34z" />
    <glyph glyph-name="ntilde" unicode="&#xf1;" horiz-adv-x="419" 
d="M324 598.5q-20 -29.5 -59 -29.5q-17 0 -34 7t-21 8q-16 7 -27 10.5t-23 3.5q-28 0 -31 -29h-54q0 37 20.5 66.5t58.5 29.5q13 0 27.5 -4.5t27.5 -10.5q12 -5 25.5 -9.5t24.5 -4.5q28 0 31 29h54q0 -37 -20 -66.5zM333 460.5q31 -34.5 31 -112.5v-348h-75v343
q0 47 -17.5 65.5t-51.5 18.5q-37 0 -63 -35.5t-26 -96.5v-295h-76v484h57l11 -57h5q38 68 116 68q58 0 89 -34.5z" />
    <glyph glyph-name="ograve" unicode="&#xf2;" horiz-adv-x="419" 
d="M202 543l-101 118l1 4h84l79 -122h-63zM383 241q0 -252 -173 -252q-174 0 -174 252q0 254 174 254q173 0 173 -254zM115 259v-34q0 -169 95 -169q94 0 94 169v34q0 83 -23.5 125.5t-70.5 42.5q-95 0 -95 -168z" />
    <glyph glyph-name="oacute" unicode="&#xf3;" horiz-adv-x="419" 
d="M218 543h-63l79 122h82l1 -4zM383 241q0 -252 -173 -252q-174 0 -174 252q0 254 174 254q173 0 173 -254zM115 259v-34q0 -169 95 -169q94 0 94 169v34q0 83 -23.5 125.5t-70.5 42.5q-95 0 -95 -168z" />
    <glyph glyph-name="ocircumflex" unicode="&#xf4;" horiz-adv-x="419" 
d="M210 613l-40 -73h-74l78 124h72l78 -124h-73zM383 241q0 -252 -173 -252q-174 0 -174 252q0 254 174 254q173 0 173 -254zM115 259v-34q0 -169 95 -169q94 0 94 169v34q0 83 -23.5 125.5t-70.5 42.5q-95 0 -95 -168z" />
    <glyph glyph-name="otilde" unicode="&#xf5;" horiz-adv-x="419" 
d="M324 598.5q-20 -29.5 -59 -29.5q-17 0 -34 7t-21 8q-16 7 -27 10.5t-23 3.5q-28 0 -31 -29h-54q0 37 20.5 66.5t58.5 29.5q13 0 27.5 -4.5t27.5 -10.5q12 -5 25.5 -9.5t24.5 -4.5q28 0 31 29h54q0 -37 -20 -66.5zM383 241q0 -252 -173 -252q-174 0 -174 252
q0 254 174 254q173 0 173 -254zM115 259v-34q0 -169 95 -169q94 0 94 169v34q0 83 -23.5 125.5t-70.5 42.5q-95 0 -95 -168z" />
    <glyph glyph-name="odieresis" unicode="&#xf6;" horiz-adv-x="419" 
d="M100 577v88h80v-88h-80zM238 577v88h81v-88h-81zM383 241q0 -252 -173 -252q-174 0 -174 252q0 254 174 254q173 0 173 -254zM115 259v-34q0 -169 95 -169q94 0 94 169v34q0 83 -23.5 125.5t-70.5 42.5q-95 0 -95 -168z" />
    <glyph glyph-name="divide" unicode="&#xf7;" horiz-adv-x="504" 
d="M213 423h77v-84h-77v84zM40 274h424v-78h-424v78zM213 130h77v-83h-77v83z" />
    <glyph glyph-name="oslash" unicode="&#xf8;" horiz-adv-x="461" 
d="M402 241q0 -128 -43 -190t-129 -62q-60 0 -98 29l-25 -47h-50l43 80q-43 63 -43 190q0 130 43.5 192t129.5 62q59 0 97 -29l26 47h49l-43 -80q43 -61 43 -192zM136 259v-34q0 -61 10 -92l144 267q-22 27 -60 27q-94 0 -94 -168zM230 56q93 0 93 169v34q0 57 -10 90
l-143 -266q22 -27 60 -27z" />
    <glyph glyph-name="ugrave" unicode="&#xf9;" horiz-adv-x="419" 
d="M202 543l-101 118l1 4h84l79 -122h-63zM307 0l-10 56h-6q-36 -67 -116 -67q-120 0 -120 146v349h76v-344q0 -47 17.5 -65.5t50.5 -18.5q37 0 63.5 36t26.5 96v296h75v-484h-57z" />
    <glyph glyph-name="uacute" unicode="&#xfa;" horiz-adv-x="419" 
d="M218 543h-63l79 122h82l1 -4zM307 0l-10 56h-6q-36 -67 -116 -67q-120 0 -120 146v349h76v-344q0 -47 17.5 -65.5t50.5 -18.5q37 0 63.5 36t26.5 96v296h75v-484h-57z" />
    <glyph glyph-name="ucircumflex" unicode="&#xfb;" horiz-adv-x="419" 
d="M210 613l-40 -73h-74l78 124h72l78 -124h-73zM297 56h-6q-36 -67 -116 -67q-120 0 -120 146v349h76v-344q0 -47 17.5 -65.5t50.5 -18.5q37 0 63.5 36t26.5 96v296h75v-484h-57z" />
    <glyph glyph-name="udieresis" unicode="&#xfc;" horiz-adv-x="419" 
d="M100 577v88h80v-88h-80zM238 577v88h81v-88h-81zM307 0l-10 56h-6q-36 -67 -116 -67q-120 0 -120 146v349h76v-344q0 -47 17.5 -65.5t50.5 -18.5q37 0 63.5 36t26.5 96v296h75v-484h-57z" />
    <glyph glyph-name="yacute" unicode="&#xfd;" horiz-adv-x="376" 
d="M198 543h-64l78 122h83l1 -4zM184.5 -116q-36.5 -51 -95.5 -51q-32 0 -54 7v53h26q73 0 96 107l-148 484h83l70 -249l20 -68l17 -59h3q5 23 17 69l14 57l59 250h76l-123 -459q-24 -90 -60.5 -141z" />
    <glyph glyph-name="thorn" unicode="&#xfe;" horiz-adv-x="419" 
d="M134 440q15 25 41 40t58 15q71 0 110.5 -62.5t39.5 -191.5q0 -125 -40.5 -188.5t-104.5 -63.5q-35 0 -62.5 14.5t-40.5 39.5h-4v-202h-76v824h76v-224zM131 259v-34q0 -169 86 -169q44 0 65.5 40t21.5 129v34q0 89 -21.5 128.5t-65.5 39.5q-86 0 -86 -168z" />
    <glyph glyph-name="ydieresis" unicode="&#xff;" horiz-adv-x="376" 
d="M79 577v88h80v-88h-80zM217 577v88h80v-88h-80zM184.5 -116q-36.5 -51 -95.5 -51q-32 0 -54 7v53h26q73 0 96 107l-148 484h83l70 -249l20 -68l17 -59h3q5 23 17 69l14 57l59 250h76l-123 -459q-24 -90 -60.5 -141z" />
    <glyph glyph-name="Amacron" unicode="&#x100;" horiz-adv-x="503" 
d="M136 698v66h231v-66h-231zM416 0l-43 140h-250l-43 -140h-81l201 630h104l199 -630h-87zM240.5 532.5q-4.5 -24.5 -8.5 -37.5l-86 -281h204l-85 281q-4 13 -9 37.5t-6 32.5h-4q-1 -8 -5.5 -32.5z" />
    <glyph glyph-name="amacron" unicode="&#x101;" horiz-adv-x="419" 
d="M95 617h231v-66h-231v66zM315 460q37 -35 37 -100v-272q0 -15 7 -23.5t17 -8.5h31v-52q-20 -11 -50 -11q-29 0 -49.5 16t-26.5 43h-5q-19 -30 -49.5 -46.5t-68.5 -16.5q-49 0 -88 29t-39 107q0 93 63 127.5t182 34.5v62q0 38 -16.5 58t-59.5 20q-40 0 -57.5 -22
t-17.5 -53v-12h-74q-1 5 -1 21q0 64 42.5 99t112.5 35q73 0 110 -35zM151.5 200.5q-41.5 -18.5 -41.5 -70.5q0 -40 16.5 -57t49.5 -17q39 0 69.5 32t30.5 88v43q-83 0 -124.5 -18.5z" />
    <glyph glyph-name="Abreve" unicode="&#x102;" horiz-adv-x="503" 
d="M350.5 770.5q-14.5 -20.5 -40.5 -34t-59 -13.5t-59 13.5t-40 34t-14 41.5h59q3 -11 18 -21t36 -10q22 0 38 10t17 21h59q0 -21 -14.5 -41.5zM416 0l-43 140h-250l-43 -140h-81l201 630h104l199 -630h-87zM240.5 532.5q-4.5 -24.5 -8.5 -37.5l-86 -281h204l-85 281
q-4 13 -9 37.5t-6 32.5h-4q-1 -8 -5.5 -32.5z" />
    <glyph glyph-name="abreve" unicode="&#x103;" horiz-adv-x="419" 
d="M309 622.5q-14 -20.5 -39.5 -34t-59.5 -13.5t-60 13.5t-40 34t-14 42.5h59q3 -11 18 -21t37 -10t37.5 10t17.5 21h58q0 -22 -14 -42.5zM315 460q37 -35 37 -100v-272q0 -15 7 -23.5t17 -8.5h31v-52q-20 -11 -50 -11q-29 0 -49.5 16t-26.5 43h-5q-19 -30 -49.5 -46.5
t-68.5 -16.5q-49 0 -88 29t-39 107q0 93 63 127.5t182 34.5v62q0 38 -16.5 58t-59.5 20q-40 0 -57.5 -22t-17.5 -53v-12h-74q-1 5 -1 21q0 64 42.5 99t112.5 35q73 0 110 -35zM151.5 200.5q-41.5 -18.5 -41.5 -70.5q0 -40 16.5 -57t49.5 -17q39 0 69.5 32t30.5 88v43
q-83 0 -124.5 -18.5z" />
    <glyph glyph-name="Aogonek" unicode="&#x104;" horiz-adv-x="503" 
d="M552 -107v-48q-31 -12 -56 -12q-35 0 -60.5 19.5t-25.5 63.5q0 27 9 44.5t27 39.5h-30l-43 140h-250l-43 -140h-81l201 630h104l199 -630q-10 -16 -15.5 -28t-5.5 -29q0 -22 10 -36t32 -14h28zM350 214l-85 281q-4 13 -9 37.5t-6 32.5h-4q-1 -8 -5.5 -32.5t-8.5 -37.5
l-86 -281h204z" />
    <glyph glyph-name="aogonek" unicode="&#x105;" horiz-adv-x="419" 
d="M397 -167q-35 0 -60.5 19.5t-25.5 63.5q0 25 7 43.5t20 35.5q-22 4 -37 19.5t-20 37.5h-5q-19 -30 -49.5 -46.5t-68.5 -16.5q-49 0 -88 29t-39 107q0 93 63 127.5t182 34.5v62q0 38 -16.5 58t-59.5 20q-40 0 -57.5 -22t-17.5 -53v-12h-74q-1 5 -1 21q0 64 42.5 99
t112.5 35q73 0 110 -35t37 -100v-272q0 -15 7 -23.5t17 -8.5h31v-52q-10 -12 -17 -28t-7 -33q0 -22 9.5 -36t31.5 -14h29v-48q-33 -12 -56 -12zM151.5 200.5q-41.5 -18.5 -41.5 -70.5q0 -40 16.5 -57t49.5 -17q39 0 69.5 32t30.5 88v43q-83 0 -124.5 -18.5z" />
    <glyph glyph-name="Cacute" unicode="&#x106;" horiz-adv-x="544" 
d="M294 691h-63l79 121h82l1 -3zM446.5 581q59.5 -61 59.5 -179h-82q0 81 -37 123t-100 42q-83 0 -123.5 -57t-40.5 -172v-46q0 -115 40.5 -172t123.5 -57q65 0 102 41.5t37 121.5h80q0 -118 -59 -177.5t-160 -59.5q-123 0 -186 81.5t-63 244.5q0 327 249 327
q100 0 159.5 -61z" />
    <glyph glyph-name="cacute" unicode="&#x107;" horiz-adv-x="376" 
d="M207 543h-65l80 122h83v-4zM311 447q35 -48 35 -142h-78q0 65 -15 93.5t-54 28.5q-45 0 -66 -41.5t-21 -126.5v-34q0 -85 21 -127t66 -42q39 0 56 30.5t17 92.5h74q0 -83 -36 -136.5t-111 -53.5q-86 0 -126 61t-40 191q0 131 40 192.5t126 61.5q77 0 112 -48z" />
    <glyph glyph-name="Ccircumflex" unicode="&#x108;" horiz-adv-x="544" 
d="M274 759l-43 -73h-74l79 125h72l79 -125h-74zM446.5 581q59.5 -61 59.5 -179h-82q0 81 -37 123t-100 42q-83 0 -123.5 -57t-40.5 -172v-46q0 -115 40.5 -172t123.5 -57q65 0 102 41.5t37 121.5h80q0 -118 -59 -177.5t-160 -59.5q-123 0 -186 81.5t-63 244.5
q0 327 249 327q100 0 159.5 -61z" />
    <glyph glyph-name="ccircumflex" unicode="&#x109;" horiz-adv-x="376" 
d="M189 613l-41 -73h-73l79 124h72l78 -124h-74zM311 447q35 -48 35 -142h-78q0 65 -15 93.5t-54 28.5q-45 0 -66 -41.5t-21 -126.5v-34q0 -85 21 -127t66 -42q39 0 56 30.5t17 92.5h74q0 -83 -36 -136.5t-111 -53.5q-86 0 -126 61t-40 191q0 131 40 192.5t126 61.5
q77 0 112 -48z" />
    <glyph glyph-name="Cdotaccent" unicode="&#x10a;" horiz-adv-x="544" 
d="M232 812h81v-87h-81v87zM446.5 581q59.5 -61 59.5 -179h-82q0 81 -37 123t-100 42q-83 0 -123.5 -57t-40.5 -172v-46q0 -115 40.5 -172t123.5 -57q65 0 102 41.5t37 121.5h80q0 -118 -59 -177.5t-160 -59.5q-123 0 -186 81.5t-63 244.5q0 327 249 327q100 0 159.5 -61z
" />
    <glyph glyph-name="cdotaccent" unicode="&#x10b;" horiz-adv-x="376" 
d="M149 665h80v-88h-80v88zM311 447q35 -48 35 -142h-78q0 65 -15 93.5t-54 28.5q-45 0 -66 -41.5t-21 -126.5v-34q0 -85 21 -127t66 -42q39 0 56 30.5t17 92.5h74q0 -83 -36 -136.5t-111 -53.5q-86 0 -126 61t-40 191q0 131 40 192.5t126 61.5q77 0 112 -48z" />
    <glyph glyph-name="Ccaron" unicode="&#x10c;" horiz-adv-x="544" 
d="M157 812h74l41 -73l41 73h74l-80 -125h-72zM446.5 581q59.5 -61 59.5 -179h-82q0 81 -37 123t-100 42q-83 0 -123.5 -57t-40.5 -172v-46q0 -115 40.5 -172t123.5 -57q65 0 102 41.5t37 121.5h80q0 -118 -59 -177.5t-160 -59.5q-123 0 -186 81.5t-63 244.5q0 327 249 327
q100 0 159.5 -61z" />
    <glyph glyph-name="ccaron" unicode="&#x10d;" horiz-adv-x="376" 
d="M75 665h73l40 -73l42 73h74l-79 -124h-72zM311 447q35 -48 35 -142h-78q0 65 -15 93.5t-54 28.5q-45 0 -66 -41.5t-21 -126.5v-34q0 -85 21 -127t66 -42q39 0 56 30.5t17 92.5h74q0 -83 -36 -136.5t-111 -53.5q-86 0 -126 61t-40 191q0 131 40 192.5t126 61.5
q77 0 112 -48z" />
    <glyph glyph-name="Dcaron" unicode="&#x10e;" horiz-adv-x="544" 
d="M157 812h74l41 -73l41 73h74l-80 -125h-72zM260 630q114 0 176.5 -78t62.5 -228q0 -159 -62.5 -241.5t-176.5 -82.5h-196v630h196zM253 74q77 0 119.5 57.5t42.5 170.5v45q0 104 -42.5 157t-119.5 53h-107v-483h107z" />
    <glyph glyph-name="dcaron" unicode="&#x10f;" horiz-adv-x="464" 
d="M297 56h-5q-17 -33 -44.5 -50t-61.5 -17q-71 0 -110.5 62.5t-39.5 190.5q0 126 40.5 189.5t104.5 63.5q35 0 62.5 -15.5t40.5 -41.5h5v227h75v-665h-57zM400 417l38 114h-38v99h93v-90l-45 -123h-48zM136.5 387.5q-21.5 -39.5 -21.5 -128.5v-34q0 -89 21.5 -129t65.5 -40
q87 0 87 169v31q0 171 -87 171q-44 0 -65.5 -39.5z" />
    <glyph glyph-name="Dcroat" unicode="&#x110;" horiz-adv-x="544" 
d="M64 630h196q114 0 176.5 -78t62.5 -228q0 -159 -62.5 -241.5t-176.5 -82.5h-196v297h-60v59h60v274zM289 356v-59h-143v-223h107q77 0 119.5 57.5t42.5 170.5v45q0 104 -42.5 157t-119.5 53h-107v-201h143z" />
    <glyph glyph-name="dcroat" unicode="&#x111;" horiz-adv-x="416" 
d="M417 598v-62h-53v-536h-57l-10 56h-5q-17 -33 -44.5 -50t-61.5 -17q-71 0 -110.5 62.5t-39.5 190.5q0 126 40.5 189.5t104.5 63.5q35 0 62.5 -15.5t40.5 -41.5h5v98h-103v62h103v67h75v-67h53zM136.5 387.5q-21.5 -39.5 -21.5 -128.5v-34q0 -89 21.5 -129t65.5 -40
q87 0 87 169v31q0 171 -87 171q-44 0 -65.5 -39.5z" />
    <glyph glyph-name="Emacron" unicode="&#x112;" horiz-adv-x="503" 
d="M136 764h231v-66h-231v66zM453 630v-73h-307v-197h267v-74h-267v-212h313v-74h-395v630h389z" />
    <glyph glyph-name="emacron" unicode="&#x113;" horiz-adv-x="419" 
d="M95 617h231v-66h-231v66zM341 441q39 -54 39 -174v-48h-262q1 -84 26.5 -123.5t79.5 -39.5q36 0 58.5 29.5t22.5 78.5h75q0 -80 -43.5 -127.5t-114.5 -47.5q-93 0 -138.5 60t-45.5 192q0 130 45 192t137 62q82 0 121 -54zM147.5 392.5q-23.5 -34.5 -28.5 -105.5h182
q0 140 -81 140q-49 0 -72.5 -34.5z" />
    <glyph glyph-name="Ebreve" unicode="&#x114;" horiz-adv-x="503" 
d="M350.5 770.5q-14.5 -20.5 -40.5 -34t-59 -13.5t-59 13.5t-40 34t-14 41.5h59q3 -11 18 -21t36 -10q22 0 38 10t17 21h59q0 -21 -14.5 -41.5zM453 630v-73h-307v-197h267v-74h-267v-212h313v-74h-395v630h389z" />
    <glyph glyph-name="ebreve" unicode="&#x115;" horiz-adv-x="419" 
d="M309 622.5q-14 -20.5 -39.5 -34t-59.5 -13.5t-60 13.5t-40 34t-14 42.5h59q3 -11 18 -21t37 -10t37.5 10t17.5 21h58q0 -22 -14 -42.5zM341 441q39 -54 39 -174v-48h-262q1 -84 26.5 -123.5t79.5 -39.5q36 0 58.5 29.5t22.5 78.5h75q0 -80 -43.5 -127.5t-114.5 -47.5
q-93 0 -138.5 60t-45.5 192q0 130 45 192t137 62q82 0 121 -54zM147.5 392.5q-23.5 -34.5 -28.5 -105.5h182q0 140 -81 140q-49 0 -72.5 -34.5z" />
    <glyph glyph-name="Edotaccent" unicode="&#x116;" horiz-adv-x="503" 
d="M211 812h80v-87h-80v87zM453 630v-73h-307v-197h267v-74h-267v-212h313v-74h-395v630h389z" />
    <glyph glyph-name="edotaccent" unicode="&#x117;" horiz-adv-x="419" 
d="M171 665h79v-88h-79v88zM341 441q39 -54 39 -174v-48h-262q1 -84 26.5 -123.5t79.5 -39.5q36 0 58.5 29.5t22.5 78.5h75q0 -80 -43.5 -127.5t-114.5 -47.5q-93 0 -138.5 60t-45.5 192q0 130 45 192t137 62q82 0 121 -54zM147.5 392.5q-23.5 -34.5 -28.5 -105.5h182
q0 140 -81 140q-49 0 -72.5 -34.5z" />
    <glyph glyph-name="Eogonek" unicode="&#x118;" horiz-adv-x="503" 
d="M146 360h267v-74h-267v-212h313v-74q-22 -28 -22 -57q0 -22 10 -36t32 -14h29v-48q-34 -12 -57 -12q-35 0 -60.5 19.5t-25.5 63.5q0 26 9 46t25 38h-335v630h389v-73h-307v-197z" />
    <glyph glyph-name="eogonek" unicode="&#x119;" horiz-adv-x="419" 
d="M380 219h-262q1 -84 26.5 -123.5t79.5 -39.5q36 0 58.5 29.5t22.5 78.5h75q0 -56 -22 -96.5t-61 -61.5q-10 -11 -18.5 -28t-8.5 -35q0 -21 10.5 -35.5t31.5 -14.5h29v-48q-34 -12 -56 -12q-35 0 -60.5 19.5t-25.5 63.5q0 41 25 73h-2q-93 0 -138.5 60t-45.5 192
q0 130 45 192t137 62q82 0 121 -54t39 -174v-48zM301 287q0 140 -81 140q-49 0 -72.5 -34.5t-28.5 -105.5h182z" />
    <glyph glyph-name="Ecaron" unicode="&#x11a;" horiz-adv-x="503" 
d="M137 812h73l41 -73l41 73h74l-79 -125h-72zM453 630v-73h-307v-197h267v-74h-267v-212h313v-74h-395v630h389z" />
    <glyph glyph-name="ecaron" unicode="&#x11b;" horiz-adv-x="419" 
d="M96 665h74l40 -73l41 73h73l-79 -124h-72zM341 441q39 -54 39 -174v-48h-262q1 -84 26.5 -123.5t79.5 -39.5q36 0 58.5 29.5t22.5 78.5h75q0 -80 -43.5 -127.5t-114.5 -47.5q-93 0 -138.5 60t-45.5 192q0 130 45 192t137 62q82 0 121 -54zM147.5 392.5
q-23.5 -34.5 -28.5 -105.5h182q0 140 -81 140q-49 0 -72.5 -34.5z" />
    <glyph glyph-name="Gcircumflex" unicode="&#x11c;" horiz-adv-x="587" 
d="M253 686h-74l79 125h72l78 -125h-73l-41 73zM281 329h246v-329h-54l-17 70q-54 -81 -163 -81q-121 0 -184.5 82t-63.5 244t66 244.5t186 82.5q104 0 167 -58t63 -168h-83q0 76 -39 113.5t-108 37.5q-79 0 -123 -58t-44 -171v-46q0 -115 41.5 -172t121.5 -57
q78 0 114.5 44.5t36.5 134.5v16h-163v71z" />
    <glyph glyph-name="gcircumflex" unicode="&#x11d;" horiz-adv-x="419" 
d="M210 613l-40 -73h-74l78 124h72l78 -124h-73zM378.5 487q-21.5 -31 -58.5 -41q43 -46 43 -114q0 -75 -41.5 -118t-112.5 -44h-51q-19 0 -31.5 -13t-12.5 -31t13 -30.5t31 -12.5h138q51 0 82.5 -33t31.5 -80q0 -60 -37.5 -98.5t-104.5 -38.5h-137q-57 0 -88.5 32.5
t-31.5 82.5q0 35 17 63t47 40q-19 12 -29.5 31.5t-10.5 40.5q0 29 18.5 50.5t49.5 33.5q-27 21 -41.5 53t-14.5 72q0 76 42.5 119.5t115.5 43.5q37 0 70 -18q35 18 49 35.5t15 49.5h61q0 -44 -21.5 -75zM144 405.5q-21 -26.5 -21 -73.5q0 -49 20.5 -74.5t60.5 -25.5
t61.5 26.5t21.5 73.5q0 48 -21.5 74t-61.5 26q-39 0 -60 -26.5zM101.5 -4.5q-14.5 -15.5 -14.5 -40.5t15 -41t42 -16h133q24 0 40.5 17t16.5 40q0 24 -15 40t-42 16h-133q-28 0 -42.5 -15.5z" />
    <glyph glyph-name="Gbreve" unicode="&#x11e;" horiz-adv-x="587" 
d="M234 736.5q-26 13.5 -40 34t-14 41.5h59q2 -11 17.5 -21t36.5 -10q22 0 37.5 10t17.5 21h60q0 -21 -14.5 -41.5t-40.5 -34t-60 -13.5q-33 0 -59 13.5zM281 329h246v-329h-54l-17 70q-54 -81 -163 -81q-121 0 -184.5 82t-63.5 244t66 244.5t186 82.5q104 0 167 -58
t63 -168h-83q0 76 -39 113.5t-108 37.5q-79 0 -123 -58t-44 -171v-46q0 -115 41.5 -172t121.5 -57q78 0 114.5 44.5t36.5 134.5v16h-163v71z" />
    <glyph glyph-name="gbreve" unicode="&#x11f;" horiz-adv-x="419" 
d="M309 622.5q-14 -20.5 -39.5 -34t-59.5 -13.5t-60 13.5t-40 34t-14 42.5h59q3 -11 18 -21t37 -10t37.5 10t17.5 21h58q0 -22 -14 -42.5zM378.5 487q-21.5 -31 -58.5 -41q43 -46 43 -114q0 -75 -41.5 -118t-112.5 -44h-51q-19 0 -31.5 -13t-12.5 -31t13 -30.5t31 -12.5h138
q51 0 82.5 -33t31.5 -80q0 -60 -37.5 -98.5t-104.5 -38.5h-137q-57 0 -88.5 32.5t-31.5 82.5q0 35 17 63t47 40q-19 12 -29.5 31.5t-10.5 40.5q0 29 18.5 50.5t49.5 33.5q-27 21 -41.5 53t-14.5 72q0 76 42.5 119.5t115.5 43.5q37 0 70 -18q30 16 43 37t17 48h65
q0 -44 -21.5 -75zM144 405.5q-21 -26.5 -21 -73.5q0 -49 20.5 -74.5t60.5 -25.5t61.5 26.5t21.5 73.5q0 48 -21.5 74t-61.5 26q-39 0 -60 -26.5zM101.5 -4.5q-14.5 -15.5 -14.5 -40.5t15 -41t42 -16h133q24 0 40.5 17t16.5 40q0 24 -15 40t-42 16h-133q-28 0 -42.5 -15.5z
" />
    <glyph glyph-name="Gdotaccent" unicode="&#x120;" horiz-adv-x="587" 
d="M334 725h-80v87h80v-87zM281 329h246v-329h-54l-17 70q-54 -81 -163 -81q-121 0 -184.5 82t-63.5 244t66 244.5t186 82.5q104 0 167 -58t63 -168h-83q0 76 -39 113.5t-108 37.5q-79 0 -123 -58t-44 -171v-46q0 -115 41.5 -172t121.5 -57q78 0 114.5 44.5t36.5 134.5v16
h-163v71z" />
    <glyph glyph-name="gdotaccent" unicode="&#x121;" horiz-adv-x="419" 
d="M171 665h79v-88h-79v88zM378.5 487q-21.5 -31 -58.5 -41q43 -46 43 -114q0 -75 -41.5 -118t-112.5 -44h-51q-19 0 -31.5 -13t-12.5 -31t13 -30.5t31 -12.5h138q51 0 82.5 -33t31.5 -80q0 -60 -37.5 -98.5t-104.5 -38.5h-137q-57 0 -88.5 32.5t-31.5 82.5q0 35 17 63
t47 40q-19 12 -29.5 31.5t-10.5 40.5q0 29 18.5 50.5t49.5 33.5q-27 21 -41.5 53t-14.5 72q0 76 42.5 119.5t115.5 43.5q37 0 70 -18q30 16 43 37t17 48h65q0 -44 -21.5 -75zM144 405.5q-21 -26.5 -21 -73.5q0 -49 20.5 -74.5t60.5 -25.5t61.5 26.5t21.5 73.5q0 48 -21.5 74
t-61.5 26q-39 0 -60 -26.5zM101.5 -4.5q-14.5 -15.5 -14.5 -40.5t15 -41t42 -16h133q24 0 40.5 17t16.5 40q0 24 -15 40t-42 16h-133q-28 0 -42.5 -15.5z" />
    <glyph glyph-name="Gcommaaccent" unicode="&#x122;" horiz-adv-x="587" 
d="M281 329h246v-329h-54l-17 70q-54 -81 -163 -81q-121 0 -184.5 82t-63.5 244t66 244.5t186 82.5q104 0 167 -58t63 -168h-83q0 76 -39 113.5t-108 37.5q-79 0 -123 -58t-44 -171v-46q0 -115 41.5 -172t121.5 -57q78 0 114.5 44.5t36.5 134.5v16h-163v71zM255 -55h78v-77
l-27 -72h-41l21 66h-31v83z" />
    <glyph glyph-name="gcommaaccent" unicode="&#x123;" horiz-adv-x="419" 
d="M235 630v-83h-79v77l28 72h41l-21 -66h31zM378.5 487q-21.5 -31 -58.5 -41q43 -46 43 -114q0 -75 -41.5 -118t-112.5 -44h-51q-19 0 -31.5 -13t-12.5 -31t13 -30.5t31 -12.5h138q51 0 82.5 -33t31.5 -80q0 -60 -37.5 -98.5t-104.5 -38.5h-137q-57 0 -88.5 32.5
t-31.5 82.5q0 35 17 63t47 40q-19 12 -29.5 31.5t-10.5 40.5q0 29 18.5 50.5t49.5 33.5q-27 21 -41.5 53t-14.5 72q0 76 42.5 119.5t115.5 43.5q37 0 70 -18q30 16 43 37t17 48h65q0 -44 -21.5 -75zM144 405.5q-21 -26.5 -21 -73.5q0 -49 20.5 -74.5t60.5 -25.5t61.5 26.5
t21.5 73.5q0 48 -21.5 74t-61.5 26q-39 0 -60 -26.5zM101.5 -4.5q-14.5 -15.5 -14.5 -40.5t15 -41t42 -16h133q24 0 40.5 17t16.5 40q0 24 -15 40t-42 16h-133q-28 0 -42.5 -15.5z" />
    <glyph glyph-name="Hcircumflex" unicode="&#x124;" horiz-adv-x="544" 
d="M313 686l-39 73l-43 -73h-74l79 125h72l79 -125h-74zM399 0v286h-253v-286h-82v630h82v-270h253v270h80v-630h-80z" />
    <glyph glyph-name="hcircumflex" unicode="&#x125;" horiz-adv-x="419" 
d="M96 759l-42 -73h-74l79 125h72l79 -125h-74zM244 495q58 0 89 -34.5t31 -112.5v-348h-75v343q0 47 -17.5 65.5t-51.5 18.5q-37 0 -63 -35.5t-26 -96.5v-295h-76v665h76v-232h5q36 62 108 62z" />
    <glyph glyph-name="Hbar" unicode="&#x126;" horiz-adv-x="544" 
d="M479 0h-80v282h-253v-282h-82v450h-45v67h45v113h82v-113h253v113h80v-113h47v-67h-47v-450zM146 450v-95h253v95h-253z" />
    <glyph glyph-name="hbar" unicode="&#x127;" horiz-adv-x="419" 
d="M230 598v-62h-99v-103h5q36 62 108 62q58 0 89 -34.5t31 -112.5v-348h-75v343q0 47 -17.5 65.5t-51.5 18.5q-37 0 -63 -35.5t-26 -96.5v-295h-76v536h-55v62h55v67h76v-67h99z" />
    <glyph glyph-name="Itilde" unicode="&#x128;" horiz-adv-x="210" 
d="M219 746.5q-20 -29.5 -58 -29.5q-13 0 -25 3.5t-29 10.5q-34 14 -52 14q-27 0 -31 -28h-53q0 36 20 65.5t58 29.5q21 0 55 -14q13 -5 26 -9.5t25 -4.5q27 0 31 28h53q0 -36 -20 -65.5zM64 630h82v-630h-82v630z" />
    <glyph glyph-name="itilde" unicode="&#x129;" horiz-adv-x="210" 
d="M219 598.5q-20 -29.5 -58 -29.5q-22 0 -54 15q-34 14 -52 14q-13 0 -21 -6.5t-10 -22.5h-53q0 37 20 66.5t58 29.5q13 0 27.5 -4.5t27.5 -10.5q13 -5 26 -9.5t25 -4.5q27 0 31 29h53q0 -37 -20 -66.5zM68 484h74v-484h-74v484z" />
    <glyph glyph-name="Imacron" unicode="&#x12a;" horiz-adv-x="210" 
d="M-10 764h230v-66h-230v66zM64 630h82v-630h-82v630z" />
    <glyph glyph-name="imacron" unicode="&#x12b;" horiz-adv-x="210" 
d="M-10 617h230v-66h-230v66zM68 484h74v-484h-74v484z" />
    <glyph glyph-name="Ibreve" unicode="&#x12c;" horiz-adv-x="210" 
d="M204 770.5q-14 -20.5 -39.5 -34t-59.5 -13.5q-33 0 -59 13.5t-40.5 34t-14.5 41.5h60q2 -11 17.5 -21t36.5 -10q22 0 37.5 10t17.5 21h58q0 -21 -14 -41.5zM64 630h82v-630h-82v630z" />
    <glyph glyph-name="ibreve" unicode="&#x12d;" horiz-adv-x="210" 
d="M204 622.5q-14 -20.5 -39.5 -34t-59.5 -13.5q-33 0 -59 13.5t-40.5 34t-14.5 42.5h60q2 -11 17.5 -21t36.5 -10q22 0 37.5 10t17.5 21h58q0 -22 -14 -42.5zM68 484h74v-484h-74v484z" />
    <glyph glyph-name="Iogonek" unicode="&#x12e;" horiz-adv-x="210" 
d="M129 -28q-6 -12 -6 -29q0 -21 10.5 -35.5t31.5 -14.5h29v-48q-31 -12 -56 -12q-35 0 -60.5 19.5t-25.5 63.5q0 27 8.5 46.5t24.5 37.5h-21v630h82v-630q-11 -16 -17 -28z" />
    <glyph glyph-name="iogonek" unicode="&#x12f;" horiz-adv-x="167" 
d="M44 577v88h81v-88h-81zM99 -57q0 -22 10 -36t31 -14h31v-48q-34 -12 -57 -12q-35 0 -60.5 19.5t-25.5 63.5q0 26 8.5 46t24.5 38h-15v484h76v-484q-23 -29 -23 -57z" />
    <glyph glyph-name="Idotaccent" unicode="&#x130;" horiz-adv-x="210" 
d="M66 812h80v-87h-80v87zM64 630h82v-630h-82v630z" />
    <glyph glyph-name="dotlessi" unicode="&#x131;" horiz-adv-x="210" 
d="M68 484h74v-484h-74v484z" />
    <glyph glyph-name="IJ" unicode="&#x132;" horiz-adv-x="587" 
d="M64 0v630h82v-630h-82zM487 30.5q-40 -41.5 -113 -41.5t-112.5 41.5t-39.5 119.5v41h81v-45q0 -40 18.5 -61.5t52.5 -21.5q35 0 53.5 21.5t18.5 61.5v484h81v-480q0 -78 -40 -119.5z" />
    <glyph glyph-name="ij" unicode="&#x133;" horiz-adv-x="335" 
d="M46 574v91h76v-91h-76zM213 574v91h76v-91h-76zM46 0v484h76v-484h-76zM266.5 -135q-22.5 -32 -73.5 -32q-34 0 -63 11v52h41q42 0 42 45v543h76v-540q0 -47 -22.5 -79z" />
    <glyph glyph-name="Jcircumflex" unicode="&#x134;" horiz-adv-x="376" 
d="M319 686l-40 73l-43 -73h-74l79 125h72l79 -125h-73zM277 30.5q-40 -41.5 -113 -41.5t-113 41.5t-40 119.5v41h82v-45q0 -40 18.5 -61.5t52.5 -21.5q35 0 53.5 21.5t18.5 61.5v484h81v-480q0 -78 -40 -119.5z" />
    <glyph glyph-name="jcircumflex" unicode="&#x135;" horiz-adv-x="167" 
d="M84 613l-41 -73h-74l79 124h72l79 -124h-74zM99.5 -135q-22.5 -32 -73.5 -32q-16 0 -33.5 3t-29.5 8v52h40q21 0 32 11.5t11 33.5v543h76v-540q0 -47 -22.5 -79z" />
    <glyph glyph-name="Kcommaaccent" unicode="&#x136;" horiz-adv-x="503" 
d="M486 630l-190 -254l196 -376h-92l-154 308l-100 -112v-196h-82v630h82v-333l249 333h91zM224 -204l19 66h-31v83h78v-77l-26 -72h-40z" />
    <glyph glyph-name="kcommaaccent" unicode="&#x137;" horiz-adv-x="376" 
d="M370 484l-142 -199l150 -285h-86l-110 220l-51 -56v-164h-76v665h76v-406l156 225h83zM160 -204l21 66h-31v83h78v-77l-26 -72h-42z" />
    <glyph glyph-name="kgreenlandic" unicode="&#x138;" horiz-adv-x="375" 
d="M292 0l-110 220l-51 -56v-164h-76v484h76v-225l156 225h83l-142 -199l150 -285h-86z" />
    <glyph glyph-name="Lacute" unicode="&#x139;" horiz-adv-x="419" 
d="M111 691h-64l79 121h83l1 -3zM402 74v-74h-338v630h82v-556h256z" />
    <glyph glyph-name="lacute" unicode="&#x13a;" horiz-adv-x="167" 
d="M93 691h-64l79 121h83v-3zM46 0v665h76v-665h-76z" />
    <glyph glyph-name="Lcommaaccent" unicode="&#x13b;" horiz-adv-x="419" 
d="M402 74v-74h-338v630h82v-556h256zM223 -204h-42l21 66h-31v83h79v-77z" />
    <glyph glyph-name="lcommaaccent" unicode="&#x13c;" horiz-adv-x="167" 
d="M46 665h76v-665h-76v665zM56 -204l20 66h-31v83h78v-77l-26 -72h-41z" />
    <glyph glyph-name="Lcaron" unicode="&#x13d;" horiz-adv-x="419" 
d="M402 74v-74h-338v630h82v-556h256zM341 417h-48l37 114h-37v99h92v-90z" />
    <glyph glyph-name="lcaron" unicode="&#x13e;" horiz-adv-x="219" 
d="M46 665h76v-665h-76v665zM158 417l36 114h-36v99h92v-90l-44 -123h-48z" />
    <glyph glyph-name="Ldot" unicode="&#x13f;" horiz-adv-x="419" 
d="M402 74v-74h-338v630h82v-556h256zM271 381v102h93v-102h-93z" />
    <glyph glyph-name="ldot" unicode="&#x140;" horiz-adv-x="297" 
d="M46 665h76v-665h-76v665zM158 367h93v-102h-93v102z" />
    <glyph glyph-name="Lslash" unicode="&#x141;" horiz-adv-x="419" 
d="M271 475v-67l-125 -111v-223h256v-74h-338v226l-64 -56v64l64 57v339h82v-267z" />
    <glyph glyph-name="lslash" unicode="&#x142;" horiz-adv-x="167" 
d="M202 364l-80 -71v-293h-76v226l-66 -56v64l66 58v373h76v-305l80 71v-67z" />
    <glyph glyph-name="Nacute" unicode="&#x143;" horiz-adv-x="544" 
d="M282 691h-65l79 121h83l1 -3zM413 0l-236 401q-10 17 -23.5 46.5t-17.5 39.5l-3 -1q1 -10 2.5 -35.5t1.5 -49.5v-401h-73v630h70l234 -396q9 -15 22.5 -44.5t17.5 -39.5l2 1l-2 83v396h71v-630h-66z" />
    <glyph glyph-name="nacute" unicode="&#x144;" horiz-adv-x="419" 
d="M218 543h-63l79 122h82l1 -4zM333 460.5q31 -34.5 31 -112.5v-348h-75v343q0 47 -17.5 65.5t-51.5 18.5q-37 0 -63 -35.5t-26 -96.5v-295h-76v484h57l11 -57h5q38 68 116 68q58 0 89 -34.5z" />
    <glyph glyph-name="Ncommaaccent" unicode="&#x145;" horiz-adv-x="544" 
d="M413 0l-236 401q-10 17 -23.5 46.5t-17.5 39.5l-3 -1q1 -10 2.5 -35.5t1.5 -49.5v-401h-73v630h70l234 -396q9 -15 22.5 -44.5t17.5 -39.5l2 1l-2 83v396h71v-630h-66zM285 -204h-42l22 66h-32v83h79v-77z" />
    <glyph glyph-name="ncommaaccent" unicode="&#x146;" horiz-adv-x="419" 
d="M333 460.5q31 -34.5 31 -112.5v-348h-75v343q0 47 -17.5 65.5t-51.5 18.5q-37 0 -63 -35.5t-26 -96.5v-295h-76v484h57l11 -57h5q38 68 116 68q58 0 89 -34.5zM181 -204l21 66h-31v83h79v-77l-27 -72h-42z" />
    <glyph glyph-name="Ncaron" unicode="&#x147;" horiz-adv-x="544" 
d="M235 687l-78 125h74l41 -73l41 73h74l-80 -125h-72zM413 0l-236 401q-10 17 -23.5 46.5t-17.5 39.5l-3 -1q1 -10 2.5 -35.5t1.5 -49.5v-401h-73v630h70l234 -396q9 -15 22.5 -44.5t17.5 -39.5l2 1l-2 83v396h71v-630h-66z" />
    <glyph glyph-name="ncaron" unicode="&#x148;" horiz-adv-x="419" 
d="M96 665h74l40 -73l41 73h73l-79 -124h-72zM333 460.5q31 -34.5 31 -112.5v-348h-75v343q0 47 -17.5 65.5t-51.5 18.5q-37 0 -63 -35.5t-26 -96.5v-295h-76v484h57l11 -57h5q38 68 116 68q58 0 89 -34.5z" />
    <glyph glyph-name="napostrophe" unicode="&#x149;" horiz-adv-x="527" 
d="M96 480h-42l21 66h-31v84h79v-78zM471 348v-348h-75v343q0 47 -17.5 65.5t-50.5 18.5q-37 0 -63.5 -36t-26.5 -96v-295h-76v484h57l11 -57h5q38 68 118 68q118 0 118 -147z" />
    <glyph glyph-name="Eng" unicode="&#x14a;" horiz-adv-x="544" 
d="M457 -135.5q-22 -31.5 -72 -31.5q-35 0 -64 11v52h40q44 0 44 45v73l-228 387q-10 17 -23.5 46.5t-17.5 39.5l-3 -1q1 -10 2.5 -35.5t1.5 -49.5v-401h-73v630h70l234 -396q9 -15 22.5 -44.5t17.5 -39.5l2 1l-2 83l-3 396h74v-686q0 -48 -22 -79.5z" />
    <glyph glyph-name="eng" unicode="&#x14b;" horiz-adv-x="419" 
d="M333 460.5q31 -34.5 31 -112.5v-404q0 -47 -22.5 -79t-73.5 -32q-16 0 -33.5 3t-29.5 8v52h40q44 0 44 45v402q0 47 -17.5 65.5t-51.5 18.5q-37 0 -63 -35.5t-26 -96.5v-295h-76v484h57l11 -57h5q38 68 116 68q58 0 89 -34.5z" />
    <glyph glyph-name="Omacron" unicode="&#x14c;" horiz-adv-x="587" 
d="M178 764h231v-66h-231v66zM477 559.5q65 -82.5 65 -244.5q0 -161 -65.5 -243.5t-183.5 -82.5t-183 82.5t-65 243.5q0 162 65 244.5t183 82.5q119 0 184 -82.5zM173 509q-43 -58 -43 -171v-46q0 -113 43 -171t120 -58t120.5 58t43.5 171v46q0 113 -43.5 171t-120.5 58
t-120 -58z" />
    <glyph glyph-name="omacron" unicode="&#x14d;" horiz-adv-x="419" 
d="M95 617h231v-66h-231v66zM383 241q0 -252 -173 -252q-174 0 -174 252q0 254 174 254q173 0 173 -254zM115 259v-34q0 -169 95 -169q94 0 94 169v34q0 83 -23.5 125.5t-70.5 42.5q-95 0 -95 -168z" />
    <glyph glyph-name="Obreve" unicode="&#x14e;" horiz-adv-x="587" 
d="M393.5 770.5q-14.5 -20.5 -40.5 -34t-60 -13.5q-33 0 -59 13.5t-40 34t-14 41.5h59q2 -11 17.5 -21t36.5 -10q22 0 37.5 10t17.5 21h60q0 -21 -14.5 -41.5zM477 559.5q65 -82.5 65 -244.5q0 -161 -65.5 -243.5t-183.5 -82.5t-183 82.5t-65 243.5q0 162 65 244.5t183 82.5
q119 0 184 -82.5zM173 509q-43 -58 -43 -171v-46q0 -113 43 -171t120 -58t120.5 58t43.5 171v46q0 113 -43.5 171t-120.5 58t-120 -58z" />
    <glyph glyph-name="obreve" unicode="&#x14f;" horiz-adv-x="419" 
d="M309 622.5q-14 -20.5 -39.5 -34t-59.5 -13.5t-60 13.5t-40 34t-14 42.5h59q3 -11 18 -21t37 -10t37.5 10t17.5 21h58q0 -22 -14 -42.5zM383 241q0 -252 -173 -252q-174 0 -174 252q0 254 174 254q173 0 173 -254zM115 259v-34q0 -169 95 -169q94 0 94 169v34
q0 83 -23.5 125.5t-70.5 42.5q-95 0 -95 -168z" />
    <glyph glyph-name="Ohungarumlaut" unicode="&#x150;" horiz-adv-x="587" 
d="M268 691h-62l57 121h81l1 -3zM389 691h-63l57 121h82l1 -3zM477 559.5q65 -82.5 65 -244.5q0 -161 -65.5 -243.5t-183.5 -82.5t-183 82.5t-65 243.5q0 162 65 244.5t183 82.5q119 0 184 -82.5zM173 509q-43 -58 -43 -171v-46q0 -113 43 -171t120 -58t120.5 58t43.5 171
v46q0 113 -43.5 171t-120.5 58t-120 -58z" />
    <glyph glyph-name="ohungarumlaut" unicode="&#x151;" horiz-adv-x="419" 
d="M122 543l56 122h83l1 -4l-77 -118h-63zM241 543l57 122h84l1 -4l-78 -118h-64zM383 241q0 -252 -173 -252q-174 0 -174 252q0 254 174 254q173 0 173 -254zM115 259v-34q0 -169 95 -169q94 0 94 169v34q0 83 -23.5 125.5t-70.5 42.5q-95 0 -95 -168z" />
    <glyph glyph-name="OE" unicode="&#x152;" horiz-adv-x="754" 
d="M391 568v62h325v-73h-245v-197h203v-74h-203v-212h250v-74h-330v62q-50 -73 -140 -73q-98 0 -152 82.5t-54 243.5q0 162 53.5 244.5t152.5 82.5q89 0 140 -74zM164 509q-34 -58 -34 -171v-46q0 -113 34 -171t96 -58t96.5 58t34.5 171v46q0 113 -34.5 171t-96.5 58
t-96 -58z" />
    <glyph glyph-name="oe" unicode="&#x153;" horiz-adv-x="711" 
d="M619 441q39 -54 39 -174v-48h-262q1 -84 27 -123.5t79 -39.5q36 0 58.5 29.5t22.5 78.5h75q0 -80 -43.5 -127.5t-114.5 -47.5q-101 0 -144 70q-41 -70 -134 -70q-86 0 -129.5 62t-43.5 190q0 130 43.5 192t129.5 62q92 0 134 -71q45 71 143 71q81 0 120 -54zM128 259v-34
q0 -169 94 -169q93 0 93 169v34q0 168 -93 168q-94 0 -94 -168zM426 393q-24 -34 -29 -106h182q0 69 -20.5 104.5t-59.5 35.5q-49 0 -73 -34z" />
    <glyph glyph-name="Racute" unicode="&#x154;" horiz-adv-x="544" 
d="M261 691h-64l79 121h83l1 -3zM457.5 583q48.5 -47 48.5 -127q0 -59 -29.5 -102t-82.5 -61l127 -293h-89l-118 279h-168v-279h-82v630h254q91 0 139.5 -47zM146 353h169q49 0 78 28t29 75q0 48 -27.5 74.5t-79.5 26.5h-169v-204z" />
    <glyph glyph-name="racute" unicode="&#x155;" horiz-adv-x="251" 
d="M95 543h-65l79 122h83l1 -4zM232 492q10 -3 13 -4v-79h-25q-39 0 -64 -27t-25 -87v-295h-76v484h57l11 -64h5q10 32 30 53.5t52 21.5q12 0 22 -3z" />
    <glyph glyph-name="Rcommaaccent" unicode="&#x156;" horiz-adv-x="544" 
d="M457.5 583q48.5 -47 48.5 -127q0 -59 -29.5 -102t-82.5 -61l127 -293h-89l-118 279h-168v-279h-82v630h254q91 0 139.5 -47zM146 353h169q49 0 78 28t29 75q0 48 -27.5 74.5t-79.5 26.5h-169v-204zM285 -204h-42l22 66h-32v83h79v-77z" />
    <glyph glyph-name="rcommaaccent" unicode="&#x157;" horiz-adv-x="251" 
d="M232 492q10 -3 13 -4v-79h-25q-39 0 -64 -27t-25 -87v-295h-76v484h57l11 -64h5q10 32 30 53.5t52 21.5q12 0 22 -3zM72 -204l21 66h-33v83h79v-77l-26 -72h-41z" />
    <glyph glyph-name="Rcaron" unicode="&#x158;" horiz-adv-x="544" 
d="M235 687l-78 125h74l41 -73l41 73h74l-80 -125h-72zM457.5 583q48.5 -47 48.5 -127q0 -59 -29.5 -102t-82.5 -61l127 -293h-89l-118 279h-168v-279h-82v630h254q91 0 139.5 -47zM146 353h169q49 0 78 28t29 75q0 48 -27.5 74.5t-79.5 26.5h-169v-204z" />
    <glyph glyph-name="rcaron" unicode="&#x159;" horiz-adv-x="251" 
d="M-3 665h75l40 -73l42 73h73l-79 -124h-72zM232 492q10 -3 13 -4v-79h-25q-39 0 -64 -27t-25 -87v-295h-76v484h57l11 -64h5q10 32 30 53.5t52 21.5q12 0 22 -3z" />
    <glyph glyph-name="Sacute" unicode="&#x15a;" horiz-adv-x="503" 
d="M260 691h-63l79 121h83l1 -3zM393.5 598q54.5 -44 54.5 -134v-11h-83v14q0 47 -31.5 73.5t-80.5 26.5q-53 0 -85 -22t-32 -66q0 -32 18.5 -52.5t46 -33t75.5 -28.5q61 -20 98 -38t63.5 -53t26.5 -92q0 -100 -58 -146.5t-156 -46.5q-94 0 -153.5 46t-59.5 143l1 19h85
l-1 -19q0 -56 34 -85.5t90 -29.5q64 0 98.5 27t34.5 78q0 34 -18.5 56t-46.5 34.5t-77 28.5q-60 20 -97 38t-63 53.5t-26 93.5q0 84 56 127t144 43t142.5 -44z" />
    <glyph glyph-name="sacute" unicode="&#x15b;" horiz-adv-x="376" 
d="M198 543h-64l78 122h83l1 -4zM294 457q37 -38 37 -95l-1 -18h-78v9q0 32 -16 53.5t-51 21.5q-36 0 -50.5 -20t-14.5 -46q0 -30 21.5 -45.5t66.5 -30.5q41 -14 67.5 -28.5t45.5 -43.5t19 -76q0 -75 -42 -112t-112 -37q-78 0 -117 41t-39 101q0 11 0.5 15t0.5 5h79v-10
q0 -43 22 -64.5t57 -21.5q31 0 52 19t21 53q0 26 -12.5 42.5t-31 26t-51.5 21.5q-41 15 -65.5 28.5t-42 40.5t-17.5 71q0 64 40.5 101t109.5 37q65 0 102 -38z" />
    <glyph glyph-name="Scircumflex" unicode="&#x15c;" horiz-adv-x="503" 
d="M252 759l-42 -73h-73l79 125h72l78 -125h-74zM393.5 598q54.5 -44 54.5 -134v-11h-83v14q0 47 -31.5 73.5t-80.5 26.5q-53 0 -85 -22t-32 -66q0 -32 18.5 -52.5t46 -33t75.5 -28.5q61 -20 98 -38t63.5 -53t26.5 -92q0 -100 -58 -146.5t-156 -46.5q-94 0 -153.5 46
t-59.5 143l1 19h85l-1 -19q0 -56 34 -85.5t90 -29.5q64 0 98.5 27t34.5 78q0 34 -18.5 56t-46.5 34.5t-77 28.5q-60 20 -97 38t-63 53.5t-26 93.5q0 84 56 127t144 43t142.5 -44z" />
    <glyph glyph-name="scircumflex" unicode="&#x15d;" horiz-adv-x="376" 
d="M230 540l-41 73l-41 -73h-73l79 124h72l78 -124h-74zM294 457q37 -38 37 -95l-1 -18h-78v9q0 32 -16 53.5t-51 21.5q-36 0 -50.5 -20t-14.5 -46q0 -30 21.5 -45.5t66.5 -30.5q41 -14 67.5 -28.5t45.5 -43.5t19 -76q0 -75 -42 -112t-112 -37q-78 0 -117 41t-39 101
q0 11 0.5 15t0.5 5h79v-10q0 -43 22 -64.5t57 -21.5q31 0 52 19t21 53q0 26 -12.5 42.5t-31 26t-51.5 21.5q-41 15 -65.5 28.5t-42 40.5t-17.5 71q0 64 40.5 101t109.5 37q65 0 102 -38z" />
    <glyph glyph-name="Scedilla" unicode="&#x15e;" horiz-adv-x="503" 
d="M393.5 598q54.5 -44 54.5 -134v-11h-83v14q0 47 -31.5 73.5t-80.5 26.5q-53 0 -85 -22t-32 -66q0 -32 18.5 -52.5t46 -33t75.5 -28.5q61 -20 98 -38t63.5 -53t26.5 -92q0 -96 -53 -142t-145 -50l-2 -23q33 -2 53.5 -16t20.5 -44q0 -41 -29 -57.5t-67 -16.5t-77 7v45h70
q17 0 25 5t8 17t-7 17t-24 5h-30l9 62q-82 7 -130.5 52.5t-48.5 134.5l1 19h85l-1 -19q0 -56 34 -85.5t90 -29.5q64 0 98.5 27t34.5 78q0 34 -18.5 56t-46.5 34.5t-77 28.5q-60 20 -97 38t-63 53.5t-26 93.5q0 84 56 127t144 43t142.5 -44z" />
    <glyph glyph-name="scedilla" unicode="&#x15f;" horiz-adv-x="376" 
d="M294 457q37 -38 37 -95l-1 -18h-78v9q0 32 -16 53.5t-51 21.5q-36 0 -50.5 -20t-14.5 -46q0 -30 21.5 -45.5t66.5 -30.5q41 -14 67.5 -28.5t45.5 -43.5t19 -76q0 -70 -37 -106.5t-100 -41.5l-2 -23q33 -2 53.5 -16.5t20.5 -43.5q0 -41 -29 -57.5t-67 -16.5t-77 7v45h70
q33 0 33 22q0 12 -7 17t-24 5h-30l9 62q-61 8 -92 48t-31 92q0 11 0.5 15t0.5 5h79v-10q0 -43 22 -64.5t57 -21.5q31 0 52 19t21 53q0 26 -12.5 42.5t-31 26t-51.5 21.5q-41 15 -65.5 28.5t-42 40.5t-17.5 71q0 64 40.5 101t109.5 37q65 0 102 -38z" />
    <glyph glyph-name="Scaron" unicode="&#x160;" horiz-adv-x="503" 
d="M137 812h73l41 -73l41 73h74l-79 -125h-72zM393.5 598q54.5 -44 54.5 -134v-11h-83v14q0 47 -31.5 73.5t-80.5 26.5q-53 0 -85 -22t-32 -66q0 -32 18.5 -52.5t46 -33t75.5 -28.5q61 -20 98 -38t63.5 -53t26.5 -92q0 -100 -58 -146.5t-156 -46.5q-94 0 -153.5 46
t-59.5 143l1 19h85l-1 -19q0 -56 34 -85.5t90 -29.5q64 0 98.5 27t34.5 78q0 34 -18.5 56t-46.5 34.5t-77 28.5q-60 20 -97 38t-63 53.5t-26 93.5q0 84 56 127t144 43t142.5 -44z" />
    <glyph glyph-name="scaron" unicode="&#x161;" horiz-adv-x="376" 
d="M153 541l-78 124h73l40 -73l42 73h74l-79 -124h-72zM294 457q37 -38 37 -95l-1 -18h-78v9q0 32 -16 53.5t-51 21.5q-36 0 -50.5 -20t-14.5 -46q0 -30 21.5 -45.5t66.5 -30.5q41 -14 67.5 -28.5t45.5 -43.5t19 -76q0 -75 -42 -112t-112 -37q-78 0 -117 41t-39 101
q0 11 0.5 15t0.5 5h79v-10q0 -43 22 -64.5t57 -21.5q31 0 52 19t21 53q0 26 -12.5 42.5t-31 26t-51.5 21.5q-41 15 -65.5 28.5t-42 40.5t-17.5 71q0 64 40.5 101t109.5 37q65 0 102 -38z" />
    <glyph glyph-name="uni0162" unicode="&#x162;" horiz-adv-x="461" 
d="M247 0l-5 -33q33 -2 54 -16.5t21 -43.5q0 -41 -29 -57.5t-67 -16.5t-77 7v45h70q33 0 33 22q0 12 -7 17t-24 5h-30l11 71h-8v557h-171v73h424v-73h-172v-557h-23z" />
    <glyph glyph-name="uni0163" unicode="&#x163;" horiz-adv-x="210" 
d="M188 -49.5q21 -14.5 21 -43.5q0 -41 -29 -57.5t-67 -16.5q-39 0 -77 7v45h70q33 0 33 22q0 12 -7 17t-24 5h-30l12 78q-18 15 -27 40t-9 55v314h-42v68h42l17 134h59v-134h64v-68h-64v-316q0 -21 11 -32.5t32 -11.5h21v-52q-9 -6 -24 -9.5t-30 -3.5h-2l-4 -24
q33 -2 54 -16.5z" />
    <glyph glyph-name="Tcaron" unicode="&#x164;" horiz-adv-x="461" 
d="M194 687l-79 125h74l41 -73l41 73h73l-79 -125h-71zM270 557v-557h-81v557h-171v73h424v-73h-172z" />
    <glyph glyph-name="tcaron" unicode="&#x165;" horiz-adv-x="282" 
d="M232 417l36 114h-36v99h92v-90l-44 -123h-48zM194 416h-64v-316q0 -21 11 -32.5t32 -11.5h21v-52q-9 -6 -24 -9.5t-30 -3.5q-45 0 -65.5 32t-20.5 79v314h-42v68h42l17 134h59v-134h64v-68z" />
    <glyph glyph-name="Tbar" unicode="&#x166;" horiz-adv-x="461" 
d="M270 557v-196h121v-67h-121v-294h-81v294h-118v67h118v196h-171v73h424v-73h-172z" />
    <glyph glyph-name="tbar" unicode="&#x167;" horiz-adv-x="210" 
d="M194 484v-68h-64v-95h60v-63h-60v-158q0 -21 11 -32.5t32 -11.5h21v-52q-9 -6 -24 -9.5t-30 -3.5q-45 0 -65.5 32t-20.5 79v156h-39v63h39v95h-42v68h42l17 134h59v-134h64z" />
    <glyph glyph-name="Utilde" unicode="&#x168;" horiz-adv-x="544" 
d="M387 746.5q-20 -29.5 -58 -29.5q-14 0 -26.5 4t-30.5 11q-32 13 -49 13q-28 0 -32 -28h-53q0 36 20 65.5t58 29.5q24 0 56 -15q3 -1 18.5 -7t30.5 -6q14 0 22 6t10 22h54q0 -36 -20 -65.5zM424.5 44.5q-54.5 -55.5 -152.5 -55.5q-99 0 -153.5 55.5t-54.5 160.5v425h82
v-429q0 -67 33 -102.5t93 -35.5q61 0 94 35.5t33 102.5v429h80v-425q0 -105 -54.5 -160.5z" />
    <glyph glyph-name="utilde" unicode="&#x169;" horiz-adv-x="419" 
d="M324 598.5q-20 -29.5 -59 -29.5q-17 0 -34 7t-21 8q-16 7 -27 10.5t-23 3.5q-28 0 -31 -29h-54q0 37 20.5 66.5t58.5 29.5q13 0 27.5 -4.5t27.5 -10.5q12 -5 25.5 -9.5t24.5 -4.5q28 0 31 29h54q0 -37 -20 -66.5zM297 56h-6q-36 -67 -116 -67q-120 0 -120 146v349h76
v-344q0 -47 17.5 -65.5t50.5 -18.5q37 0 63.5 36t26.5 96v296h75v-484h-57z" />
    <glyph glyph-name="Umacron" unicode="&#x16a;" horiz-adv-x="544" 
d="M157 698v66h230v-66h-230zM424.5 44.5q-54.5 -55.5 -152.5 -55.5q-99 0 -153.5 55.5t-54.5 160.5v425h82v-429q0 -67 33 -102.5t93 -35.5q61 0 94 35.5t33 102.5v429h80v-425q0 -105 -54.5 -160.5z" />
    <glyph glyph-name="umacron" unicode="&#x16b;" horiz-adv-x="419" 
d="M95 617h231v-66h-231v66zM297 56h-6q-36 -67 -116 -67q-120 0 -120 146v349h76v-344q0 -47 17.5 -65.5t50.5 -18.5q37 0 63.5 36t26.5 96v296h75v-484h-57z" />
    <glyph glyph-name="Ubreve" unicode="&#x16c;" horiz-adv-x="544" 
d="M372 770.5q-14 -20.5 -40 -34t-60 -13.5q-33 0 -59 13.5t-40.5 34t-14.5 41.5h60q2 -11 17 -21t37 -10t38 10t18 21h58q0 -21 -14 -41.5zM424.5 44.5q-54.5 -55.5 -152.5 -55.5q-99 0 -153.5 55.5t-54.5 160.5v425h82v-429q0 -67 33 -102.5t93 -35.5q61 0 94 35.5
t33 102.5v429h80v-425q0 -105 -54.5 -160.5z" />
    <glyph glyph-name="ubreve" unicode="&#x16d;" horiz-adv-x="419" 
d="M309 622.5q-14 -20.5 -39.5 -34t-59.5 -13.5t-60 13.5t-40 34t-14 42.5h59q3 -11 18 -21t37 -10t37.5 10t17.5 21h58q0 -22 -14 -42.5zM297 56h-6q-36 -67 -116 -67q-120 0 -120 146v349h76v-344q0 -47 17.5 -65.5t50.5 -18.5q37 0 63.5 36t26.5 96v296h75v-484h-57z" />
    <glyph glyph-name="Uring" unicode="&#x16e;" horiz-adv-x="544" 
d="M335 815q26 -26 26 -62q0 -37 -26 -62.5t-63 -25.5q-36 0 -62 25.5t-26 62.5t26 62.5t62 25.5q37 0 63 -26zM239.5 786.5q-13.5 -13.5 -13.5 -33.5t13.5 -33.5t32.5 -13.5t33 14t14 33t-14 33t-33 14t-32.5 -13.5zM424.5 44.5q-54.5 -55.5 -152.5 -55.5
q-99 0 -153.5 55.5t-54.5 160.5v425h82v-429q0 -67 33 -102.5t93 -35.5q61 0 94 35.5t33 102.5v429h80v-425q0 -105 -54.5 -160.5z" />
    <glyph glyph-name="uring" unicode="&#x16f;" horiz-adv-x="419" 
d="M271.5 668q25.5 -26 25.5 -62q0 -37 -25.5 -63t-61.5 -26t-62 25.5t-26 63.5q0 36 25.5 62t62.5 26q36 0 61.5 -26zM176 638.5q-14 -13.5 -14 -32.5t14.5 -33.5t33.5 -14.5q18 0 32.5 14.5t14.5 33.5q0 18 -14.5 32t-32.5 14q-20 0 -34 -13.5zM297 56h-6
q-36 -67 -116 -67q-120 0 -120 146v349h76v-344q0 -47 17.5 -65.5t50.5 -18.5q37 0 63.5 36t26.5 96v296h75v-484h-57z" />
    <glyph glyph-name="Uhungarumlaut" unicode="&#x170;" horiz-adv-x="544" 
d="M248 691h-64l57 121h82l1 -3zM367 691h-62l56 121h82l1 -3zM424.5 44.5q-54.5 -55.5 -152.5 -55.5q-99 0 -153.5 55.5t-54.5 160.5v425h82v-429q0 -67 33 -102.5t93 -35.5q61 0 94 35.5t33 102.5v429h80v-425q0 -105 -54.5 -160.5z" />
    <glyph glyph-name="uhungarumlaut" unicode="&#x171;" horiz-adv-x="419" 
d="M185 543h-63l56 122h83l1 -4zM305 543h-64l57 122h84l1 -4zM307 0l-10 56h-6q-36 -67 -116 -67q-120 0 -120 146v349h76v-344q0 -47 17.5 -65.5t50.5 -18.5q37 0 63.5 36t26.5 96v296h75v-484h-57z" />
    <glyph glyph-name="Uogonek" unicode="&#x172;" horiz-adv-x="544" 
d="M479 630v-425q0 -77 -29.5 -127.5t-84.5 -73.5q-10 -11 -17.5 -27.5t-7.5 -33.5q0 -21 10.5 -35.5t32.5 -14.5h28v-48q-33 -12 -56 -12q-36 0 -61.5 19.5t-25.5 63.5q0 39 26 74q-6 -1 -22 -1q-99 0 -153.5 55.5t-54.5 160.5v425h82v-429q0 -67 33 -102.5t93 -35.5
q61 0 94 35.5t33 102.5v429h80z" />
    <glyph glyph-name="uogonek" unicode="&#x173;" horiz-adv-x="419" 
d="M413 -107v-48q-34 -12 -56 -12q-36 0 -61.5 19.5t-25.5 63.5q0 27 9.5 47t26.5 40l-9 53h-6q-36 -67 -116 -67q-120 0 -120 146v349h76v-344q0 -47 17.5 -65.5t50.5 -18.5q37 0 63.5 36t26.5 96v296h75v-484q-22 -31 -22 -57q0 -22 10 -36t32 -14h29z" />
    <glyph glyph-name="Wcircumflex" unicode="&#x174;" horiz-adv-x="711" 
d="M357 759l-42 -73h-74l80 125h71l79 -125h-74zM374 427q-6 38 -10.5 75.5t-6.5 51.5h-4q-2 -14 -6.5 -51.5t-10.5 -75.5l-76 -427h-105l-146 630h86l96 -436q6 -22 11.5 -60.5t7.5 -50.5h4q1 10 5.5 43.5t10.5 67.5l73 436h112l78 -436q6 -36 11 -68t6 -43h3q2 12 7.5 49
t11.5 62l97 436h73l-146 -630h-105z" />
    <glyph glyph-name="wcircumflex" unicode="&#x175;" horiz-adv-x="544" 
d="M274 613l-43 -73h-74l79 124h72l79 -124h-74zM288 276q-6 31 -9.5 66l-4.5 45h-5q-1 -10 -4.5 -44.5t-9.5 -66.5l-50 -276h-83l-121 484h82l62 -273q6 -24 11.5 -63t6.5 -51h4q1 11 5 43.5t10 70.5l49 273h87l50 -273q6 -38 10 -70.5t5 -43.5h3q1 10 6.5 45t13.5 69
l60 273h77l-121 -484h-84z" />
    <glyph glyph-name="Ycircumflex" unicode="&#x176;" horiz-adv-x="503" 
d="M252 759l-42 -73h-73l79 125h72l78 -125h-74zM211 0v261l-204 369h90l160 -292h3l157 292h78l-203 -369v-261h-81z" />
    <glyph glyph-name="ycircumflex" unicode="&#x177;" horiz-adv-x="376" 
d="M189 613l-41 -73h-73l79 124h72l78 -124h-74zM184.5 -116q-36.5 -51 -95.5 -51q-32 0 -54 7v53h26q73 0 96 107l-148 484h83l70 -249l20 -68l17 -59h3q5 23 17 69l14 57l59 250h76l-123 -459q-24 -90 -60.5 -141z" />
    <glyph glyph-name="Ydieresis" unicode="&#x178;" horiz-adv-x="503" 
d="M142 725v87h81v-87h-81zM281 725v87h80v-87h-80zM292 0h-81v261l-204 369h90l160 -292h3l157 292h78l-203 -369v-261z" />
    <glyph glyph-name="Zacute" unicode="&#x179;" horiz-adv-x="461" 
d="M239 691h-63l79 121h82l1 -3zM133 74h307v-74h-421v35l299 522h-281v73h397v-34z" />
    <glyph glyph-name="zacute" unicode="&#x17a;" horiz-adv-x="376" 
d="M198 543h-64l78 122h83l1 -4zM127 68h226v-68h-329v35l212 381h-198v68h302v-36z" />
    <glyph glyph-name="Zdotaccent" unicode="&#x17b;" horiz-adv-x="461" 
d="M190 725v87h80v-87h-80zM133 74h307v-74h-421v35l299 522h-281v73h397v-34z" />
    <glyph glyph-name="zdotaccent" unicode="&#x17c;" horiz-adv-x="376" 
d="M149 665h80v-88h-80v88zM353 68v-68h-329v35l212 381h-198v68h302v-36l-213 -380h226z" />
    <glyph glyph-name="Zcaron" unicode="&#x17d;" horiz-adv-x="461" 
d="M194 687l-79 125h74l41 -73l41 73h73l-79 -125h-71zM133 74h307v-74h-421v35l299 522h-281v73h397v-34z" />
    <glyph glyph-name="zcaron" unicode="&#x17e;" horiz-adv-x="376" 
d="M75 665h73l40 -73l42 73h74l-79 -124h-72zM353 68v-68h-329v35l212 381h-198v68h302v-36l-213 -380h226z" />
    <glyph glyph-name="longs" unicode="&#x17f;" horiz-adv-x="167" 
d="M210 661v-53h-40q-44 0 -44 -43v-565h-75v416h-43v68h43v77q0 47 22.5 79t73.5 32q34 0 63 -11z" />
    <glyph glyph-name="florin" unicode="&#x192;" horiz-adv-x="419" 
d="M385 661l-7 -53h-41q-21 0 -34 -11t-14 -32l-21 -128h85l-11 -68h-84l-61 -425q-8 -53 -34 -82t-79 -29q-16 0 -32.5 3t-26.5 8l6 52h41q21 0 34.5 12t14.5 33l62 428h-65l10 68h65l19 124q9 53 35 82t77 29q34 0 61 -11z" />
    <glyph glyph-name="Aringacute" unicode="&#x1fa;" horiz-adv-x="503" 
d="M224 780l65 100h82l1 -4l-85 -96h-63zM314.5 730q25.5 -25 25.5 -60q0 -38 -29 -64l192 -606h-87l-43 140h-250l-43 -140h-81l193 607q-13 12 -21 28.5t-8 34.5q0 36 26 60.5t63 24.5t62.5 -25zM219 702.5q-14 -13.5 -14 -32.5q0 -18 14 -31.5t33 -13.5t32.5 13.5
t13.5 31.5q0 19 -13.5 32.5t-32.5 13.5t-33 -13.5zM240.5 532.5q-4.5 -24.5 -8.5 -37.5l-86 -281h204l-85 281q-4 13 -9 37.5t-6 32.5h-4q-1 -8 -5.5 -32.5z" />
    <glyph glyph-name="aringacute" unicode="&#x1fb;" horiz-adv-x="419" 
d="M243 706h-63l70 106h82l1 -3zM272 661q25 -24 25 -59t-25 -59t-62 -24t-62.5 23.5t-25.5 59.5q0 35 25.5 59t62.5 24t62 -24zM176.5 632.5q-14.5 -12.5 -14.5 -30.5t14.5 -31t33.5 -13q18 0 32.5 13t14.5 31t-14 30.5t-33 12.5t-33.5 -12.5zM315 460q37 -35 37 -100v-272
q0 -15 7 -23.5t17 -8.5h31v-52q-20 -11 -50 -11q-29 0 -49.5 16t-26.5 43h-5q-19 -30 -49.5 -46.5t-68.5 -16.5q-49 0 -88 29t-39 107q0 93 63 127.5t182 34.5v62q0 38 -16.5 58t-59.5 20q-40 0 -57.5 -22t-17.5 -53v-12h-74q-1 5 -1 21q0 64 42.5 99t112.5 35q73 0 110 -35
zM151.5 200.5q-41.5 -18.5 -41.5 -70.5q0 -40 16.5 -57t49.5 -17q39 0 69.5 32t30.5 88v43q-83 0 -124.5 -18.5z" />
    <glyph glyph-name="AEacute" unicode="&#x1fc;" horiz-adv-x="754" 
d="M475 691h-63l79 121h83v-3zM376 557l46 -197h252v-74h-235l48 -212h233v-74h-304l-31 140h-251l-54 -140h-81l258 630h457v-73h-338zM274 499l-112 -285h207l-62 285l-5 28q-1 9 -5 29h-4q-14 -45 -19 -57z" />
    <glyph glyph-name="aeacute" unicode="&#x1fd;" horiz-adv-x="670" 
d="M344 543h-63l79 122h82l1 -4zM583 441q39 -54 39 -174v-48h-261q0 -84 25.5 -123.5t79.5 -39.5q36 0 59 29.5t23 78.5h74q0 -80 -43.5 -127.5t-114.5 -47.5q-104 0 -147 73q-26 -34 -62 -53.5t-77 -19.5q-59 0 -100.5 29t-41.5 107q0 93 63.5 127.5t182.5 34.5v62
q0 38 -17 58t-60 20q-39 0 -56.5 -22t-17.5 -53v-12h-75q-1 5 -1 21q0 64 43 99t112 35q44 0 76 -14t49 -41q45 55 129 55q80 0 119 -54zM390 393q-24 -34 -29 -106h182q0 69 -20 104.5t-59 35.5q-50 0 -74 -34zM157 200.5q-42 -18.5 -42 -70.5q0 -40 16.5 -57t49.5 -17
q40 0 70.5 29.5t30.5 82.5v51q-83 0 -125 -18.5z" />
    <glyph glyph-name="Oslashacute" unicode="&#x1fe;" horiz-adv-x="587" 
d="M303 691h-64l79 121h82l1 -3zM542 315q0 -161 -65.5 -243.5t-183.5 -82.5q-87 0 -146 45l-42 -68h-59l65 104q-66 83 -66 245t65 244.5t183 82.5q86 0 147 -46l43 69h59l-67 -105q67 -86 67 -245zM173 509q-43 -58 -43 -171v-46q0 -93 28 -146l239 381q-41 40 -104 40
q-77 0 -120 -58zM293 63q77 0 120.5 58t43.5 171v46q0 91 -29 147l-239 -383q41 -39 104 -39z" />
    <glyph glyph-name="oslashacute" unicode="&#x1ff;" horiz-adv-x="461" 
d="M239 543h-63l79 122h82l1 -4zM402 241q0 -128 -43 -190t-129 -62q-60 0 -98 29l-25 -47h-50l43 80q-43 63 -43 190q0 130 43.5 192t129.5 62q59 0 97 -29l26 47h49l-43 -80q43 -61 43 -192zM136 259v-34q0 -61 10 -92l144 267q-22 27 -60 27q-94 0 -94 -168zM230 56
q93 0 93 169v34q0 57 -10 90l-143 -266q22 -27 60 -27z" />
    <glyph glyph-name="Scommaaccent" unicode="&#x218;" horiz-adv-x="503" 
d="M37 0zM393.5 598q54.5 -44 54.5 -134v-11h-83v14q0 47 -31.5 73.5t-80.5 26.5q-53 0 -85 -22t-32 -66q0 -32 18.5 -52.5t46 -33t75.5 -28.5q61 -20 98 -38t63.5 -53t26.5 -92q0 -100 -58 -146.5t-156 -46.5q-94 0 -153.5 46t-59.5 143l1 19h85l-1 -19q0 -56 34 -85.5
t90 -29.5q64 0 98.5 27t34.5 78q0 34 -18.5 56t-46.5 34.5t-77 28.5q-60 20 -97 38t-63 53.5t-26 93.5q0 84 56 127t144 43t142.5 -44zM222 -204l22 66h-31v83h78v-77l-27 -72h-42z" />
    <glyph glyph-name="scommaaccent" unicode="&#x219;" horiz-adv-x="376" 
d="M30 0zM294 457q37 -38 37 -95l-1 -18h-78v9q0 32 -16 53.5t-51 21.5q-36 0 -50.5 -20t-14.5 -46q0 -30 21.5 -45.5t66.5 -30.5q41 -14 67.5 -28.5t45.5 -43.5t19 -76q0 -75 -42 -112t-112 -37q-78 0 -117 41t-39 101q0 11 0.5 15t0.5 5h79v-10q0 -43 22 -64.5t57 -21.5
q31 0 52 19t21 53q0 26 -12.5 42.5t-31 26t-51.5 21.5q-41 15 -65.5 28.5t-42 40.5t-17.5 71q0 64 40.5 101t109.5 37q65 0 102 -38zM158 -204l22 66h-31v83h78v-77l-27 -72h-42z" />
    <glyph glyph-name="uni021A" unicode="&#x21a;" horiz-adv-x="461" 
d="M270 557v-557h-81v557h-171v73h424v-73h-172zM242 -204h-40l21 66h-32v83h78v-77z" />
    <glyph glyph-name="uni021B" unicode="&#x21b;" horiz-adv-x="210" 
d="M194 416h-64v-316q0 -21 11 -32.5t32 -11.5h21v-52q-9 -6 -24 -9.5t-30 -3.5q-45 0 -65.5 32t-20.5 79v314h-42v68h42l17 134h59v-134h64v-68zM76 -204l22 66h-31v83h78v-77l-27 -72h-42z" />
    <glyph glyph-name="circumflex" unicode="&#x2c6;" horiz-adv-x="251" 
d="M124 613l-41 -73h-74l79 124h72l78 -124h-74z" />
    <glyph glyph-name="caron" unicode="&#x2c7;" horiz-adv-x="251" 
d="M9 665h74l40 -73l41 73h74l-79 -124h-72z" />
    <glyph glyph-name="uni02C9" unicode="&#x2c9;" horiz-adv-x="460" 
d="M0 776h461v-49h-461v49z" />
    <glyph glyph-name="breve" unicode="&#x2d8;" horiz-adv-x="251" 
d="M223 622.5q-14 -20.5 -40 -34t-60 -13.5q-33 0 -59 13.5t-40 34t-14 42.5h59q3 -11 18 -21t36 -10q22 0 38 10t17 21h59q0 -22 -14 -42.5z" />
    <glyph glyph-name="dotaccent" unicode="&#x2d9;" horiz-adv-x="251" 
d="M85 665h80v-88h-80v88z" />
    <glyph glyph-name="ring" unicode="&#x2da;" horiz-adv-x="251" 
d="M190.5 668q25.5 -26 25.5 -62q0 -37 -25.5 -63t-62.5 -26q-36 0 -62 25.5t-26 63.5q0 36 25.5 62t62.5 26t62.5 -26zM95 638.5q-14 -13.5 -14 -32.5q0 -20 14 -34t33 -14t33 14.5t14 33.5t-14 32.5t-33 13.5t-33 -13.5z" />
    <glyph glyph-name="ogonek" unicode="&#x2db;" horiz-adv-x="251" 
d="M146.5 -22.5q-8.5 -17.5 -8.5 -34.5q0 -22 10 -36t31 -14h30v-48q-34 -12 -56 -12q-35 0 -60.5 19.5t-25.5 63.5q0 30 11.5 52.5t31.5 42.5h55v-4q-10 -12 -18.5 -29.5z" />
    <glyph glyph-name="tilde" unicode="&#x2dc;" horiz-adv-x="251" 
d="M239 598.5q-20 -29.5 -58 -29.5q-18 0 -35.5 7t-20.5 8q-16 7 -27 10.5t-23 3.5q-27 0 -31 -29h-53q0 37 20 66.5t58 29.5q22 0 54 -15q34 -14 52 -14q27 0 31 29h53q0 -37 -20 -66.5z" />
    <glyph glyph-name="hungarumlaut" unicode="&#x2dd;" horiz-adv-x="251" 
d="M4 543l56 122h84l1 -4l-77 -118h-64zM123 543l57 122h83l1 -4l-78 -118h-63z" />
    <glyph glyph-name="gravecomb" unicode="&#x300;" horiz-adv-x="0" 
d="M-226 661l1 4h82l79 -122h-63z" />
    <glyph glyph-name="acutecomb" unicode="&#x301;" horiz-adv-x="0" 
d="M-189 543l79 122h84l1 -4l-100 -118h-64z" />
    <glyph glyph-name="uni0302" unicode="&#x302;" horiz-adv-x="0" 
d="M-127 613l-41 -73h-74l79 124h72l78 -124h-74z" />
    <glyph glyph-name="tildecomb" unicode="&#x303;" horiz-adv-x="0" 
d="M-12 598.5q-20 -29.5 -58 -29.5q-18 0 -35.5 7t-20.5 8q-16 7 -27 10.5t-23 3.5q-27 0 -31 -29h-53q0 37 20 66.5t58 29.5q22 0 54 -15q34 -14 52 -14q27 0 31 29h53q0 -37 -20 -66.5z" />
    <glyph glyph-name="uni0304" unicode="&#x304;" horiz-adv-x="0" 
d="M-240 617h230v-66h-230v66z" />
    <glyph glyph-name="uni0306" unicode="&#x306;" horiz-adv-x="0" 
d="M-28 622.5q-14 -20.5 -40 -34t-60 -13.5q-33 0 -59 13.5t-40 34t-14 42.5h59q3 -11 18 -21t36 -10q22 0 38 10t17 21h59q0 -22 -14 -42.5z" />
    <glyph glyph-name="uni0307" unicode="&#x307;" horiz-adv-x="0" 
d="M-166 665h80v-88h-80v88z" />
    <glyph glyph-name="uni0308" unicode="&#x308;" horiz-adv-x="0" 
d="M-234 665h80v-88h-80v88zM-96 665h79v-88h-79v88z" />
    <glyph glyph-name="uni030A" unicode="&#x30a;" horiz-adv-x="0" 
d="M-60.5 668q25.5 -26 25.5 -62q0 -37 -25.5 -63t-62.5 -26q-36 0 -62 25.5t-26 63.5q0 36 25.5 62t62.5 26t62.5 -26zM-156 638.5q-14 -13.5 -14 -32.5q0 -20 14 -34t33 -14t33 14.5t14 33.5t-14 32.5t-33 13.5t-33 -13.5z" />
    <glyph glyph-name="uni030B" unicode="&#x30b;" horiz-adv-x="0" 
d="M-247 543l56 122h84l1 -4l-77 -118h-64zM-128 543l57 122h83l1 -4l-78 -118h-63z" />
    <glyph glyph-name="uni030C" unicode="&#x30c;" horiz-adv-x="0" 
d="M-242 665h74l40 -73l41 73h74l-79 -124h-72z" />
    <glyph glyph-name="uni0326" unicode="&#x326;" horiz-adv-x="0" 
d="M-153 -204l22 66h-31v83h78v-77l-27 -72h-42z" />
    <glyph glyph-name="uni0327" unicode="&#x327;" horiz-adv-x="0" 
d="M-66 -49.5q21 -14.5 21 -43.5q0 -41 -29 -57.5t-67 -16.5t-77 7v45h70q33 0 33 22q0 12 -7 17t-24 5h-30l12 81h51l-7 -43q33 -2 54 -16.5z" />
    <glyph glyph-name="uni0328" unicode="&#x328;" horiz-adv-x="0" 
d="M-104.5 -22.5q-8.5 -17.5 -8.5 -34.5q0 -22 10 -36t31 -14h30v-48q-34 -12 -56 -12q-35 0 -60.5 19.5t-25.5 63.5q0 30 11.5 52.5t31.5 42.5h55v-4q-10 -12 -18.5 -29.5z" />
    <glyph glyph-name="Delta" unicode="&#x394;" horiz-adv-x="514" 
d="M503 0h-488v35l192 595h104l192 -595v-35zM107 77h293l-142 465h-3z" />
    <glyph glyph-name="Omega" unicode="&#x3a9;" horiz-adv-x="706" 
d="M536 559.5q65 -82.5 65 -244.5q0 -156 -85 -241q10 1 28 2t34 1h23v-77h-218v56q64 14 99 70t35 151v61q0 113 -43.5 171t-120.5 58t-120.5 -58t-43.5 -171v-57q0 -97 35 -153.5t98 -71.5v-56h-217v77h23l29 -1q18 -2 32 -2q-84 84 -84 241q0 162 65 244.5t183 82.5
t183 -82.5z" />
    <glyph glyph-name="mu" unicode="&#x3bc;" horiz-adv-x="419" 
d="M297 56h-6q-36 -67 -116 -67q-26 0 -44 7v-155h-76v643h76v-353q0 -41 18 -58t50 -17q37 0 63.5 36t26.5 96v296h75v-484h-57z" />
    <glyph glyph-name="pi" unicode="&#x3c0;" horiz-adv-x="512" 
d="M416 144q0 -100 11 -144h-73q-14 23 -14 135v281h-144q-5 -101 -22.5 -230t-37.5 -186h-75q22 71 40 197t20 219q-71 0 -99 -11l-11 51q35 28 134 28h350l-7 -68h-72v-272z" />
    <glyph glyph-name="uni0900" unicode="&#x900;" horiz-adv-x="0" 
d="M-28 755q0 88 -86 88q-85 0 -85 -88h-72q0 62 44 102t113 40q70 0 114.5 -40t44.5 -102h-73zM-70 769v-94h-86v94h86z" />
    <glyph glyph-name="uni0901" unicode="&#x901;" horiz-adv-x="0" 
d="M-156 905h86v-94h-86v94zM0.5 723q-44.5 -40 -114.5 -40q-69 0 -113 40t-44 102h72q0 -88 85 -88q86 0 86 88h73q0 -62 -44.5 -102z" />
    <glyph glyph-name="uni0902" unicode="&#x902;" horiz-adv-x="0" 
d="M-158 800h91v-99h-91v99z" />
    <glyph glyph-name="uni0903" unicode="&#x903;" horiz-adv-x="205" 
d="M-10 630h225v-67h-225v67zM57 472h91v-99h-91v99zM57 195h91v-99h-91v99z" />
    <glyph glyph-name="uni0904" unicode="&#x904;" horiz-adv-x="614" 
d="M624 563h-81v-563h-75v251h-109v-14v-30q-1 -71 -44.5 -112t-116.5 -41t-115.5 41t-42.5 106q0 14 2 24h74v-12q0 -45 21 -68.5t60 -23.5q38 0 60.5 22.5t23.5 63.5v30q0 42 -24 62.5t-64 20.5h-42v65h45q33 0 54 22.5t21 64.5v28q0 36 -20.5 56t-51.5 20
q-33 0 -52.5 -22.5t-19.5 -66.5v-10h-75q-2 10 -2 24q0 64 42 102.5t111 38.5q66 0 105.5 -37.5t39.5 -104.5v-28q0 -76 -53 -113v-3q27 -11 44 -38h129v245h-81v67h81v58q0 22 -11.5 31.5t-36.5 9.5h-174q-64 0 -93 25.5t-29 82.5v23h75v-23q0 -22 11 -31.5t36 -9.5h174
q65 0 94 -25.5t29 -82.5v-58h81v-67z" />
    <glyph glyph-name="uni0905" unicode="&#x905;" horiz-adv-x="614" 
d="M624 563h-81v-563h-75v251h-109v-14v-30q-1 -71 -44.5 -112t-116.5 -41t-115.5 41t-42.5 106q0 14 2 24h74v-12q0 -45 21 -68.5t60 -23.5q38 0 60.5 22.5t23.5 63.5v30q0 42 -24 62.5t-64 20.5h-42v65h45q33 0 54 22.5t21 64.5v28q0 36 -20.5 56t-51.5 20
q-33 0 -52.5 -22.5t-19.5 -66.5v-10h-75q-2 10 -2 24q0 64 42 102.5t111 38.5q66 0 105.5 -37.5t39.5 -104.5v-28q0 -76 -53 -113v-3q27 -11 44 -38h129v245h-81v67h237v-67z" />
    <glyph glyph-name="uni0906" unicode="&#x906;" horiz-adv-x="842" 
d="M852 563h-86v-563h-76v563h-147v-563h-75v251h-109v-14v-30q-1 -71 -44.5 -112t-116.5 -41t-115.5 41t-42.5 106q0 14 2 24h74v-12q0 -45 21 -68.5t60 -23.5q38 0 60.5 22.5t23.5 63.5v30q0 42 -24 62.5t-64 20.5h-42v65h45q33 0 54 22.5t21 64.5v28q0 36 -20.5 56
t-51.5 20q-33 0 -52.5 -22.5t-19.5 -66.5v-10h-75q-2 10 -2 24q0 64 42 102.5t111 38.5q66 0 105.5 -37.5t39.5 -104.5v-28q0 -76 -53 -113v-3q27 -11 44 -38h129v245h-81v67h465v-67z" />
    <glyph glyph-name="uni0907" unicode="&#x907;" horiz-adv-x="433" 
d="M159 392.5q-18 -13.5 -18 -38.5q0 -47 60 -47h38q72 0 111 -34t39 -96q0 -66 -41 -101t-109 -35q-53 0 -91 23v-101h-75v235h75v-10q0 -41 23 -61t60 -20q35 0 57 18.5t22 52.5q0 60 -76 60h-30q-69 0 -105.5 31t-36.5 87q0 59 39.5 87.5t105.5 28.5h78v91h-295v67h453
v-67h-82v-157h-158q-26 0 -44 -13.5z" />
    <glyph glyph-name="uni0908" unicode="&#x908;" horiz-adv-x="433" 
d="M159 392.5q-18 -13.5 -18 -38.5q0 -47 60 -47h38q72 0 111 -34t39 -96q0 -66 -41 -101t-109 -35q-53 0 -91 23v-101h-75v235h75v-10q0 -41 23 -61t60 -20q35 0 57 18.5t22 52.5q0 60 -76 60h-30q-69 0 -105.5 31t-36.5 87q0 59 39.5 87.5t105.5 28.5h78v91h-295v67h280
q-31 53 -31 103q0 56 42 91.5t106 35.5q17 0 21 -1v-67h-4q-43 -1 -66.5 -20.5t-23.5 -54.5q0 -39 27 -87h102v-67h-82v-157h-158q-26 0 -44 -13.5z" />
    <glyph glyph-name="uni0909" unicode="&#x909;" horiz-adv-x="385" 
d="M395 563h-85q18 -31 18 -76v-15q0 -76 -53 -113v-3q28 -11 45.5 -42t17.5 -77v-30q-1 -71 -44.5 -112t-116.5 -41t-115.5 41t-42.5 106q0 14 2 24h75v-12q0 -45 21 -68.5t59 -23.5t60.5 22.5t23.5 63.5v30q0 42 -23.5 62.5t-63.5 20.5h-43v65h45q34 0 55 23t21 64v15
q0 36 -21 56t-52 20h-188v67h405v-67z" />
    <glyph glyph-name="uni090A" unicode="&#x90a;" horiz-adv-x="610" 
d="M310 563q18 -31 18 -76v-15q0 -76 -53 -113v-3q24 -10 40 -33q18 30 49.5 47.5t74.5 17.5q67 0 109.5 -47t42.5 -123q0 -79 -43 -124t-114 -45q-5 0 -21 2v65h12q42 0 66.5 25.5t24.5 67.5v20q0 45 -20.5 68.5t-59.5 23.5q-52 0 -75 -29.5t-23 -84.5q-1 -71 -44.5 -112
t-116.5 -41t-115.5 41t-42.5 106q0 14 2 24h75v-12q0 -45 21 -68.5t59 -23.5t60.5 22.5t23.5 63.5v30q0 42 -23.5 62.5t-63.5 20.5h-43v65h45q34 0 55 23t21 64v15q0 36 -21 56t-52 20h-188v67h631v-67h-311z" />
    <glyph glyph-name="uni090B" unicode="&#x90b;" horiz-adv-x="698" 
d="M368 299l190 108v41h75v-273h-32q-29 0 -47.5 -17t-18.5 -42q0 -26 18.5 -43t47.5 -17q34 0 75 13v-64q-41 -16 -79 -16q-36 0 -67.5 15.5t-51 45t-19.5 67.5q0 47 28 78.5t71 42.5v90l-190 -108v-220h-76v183l-222 -127v79l205 117l-51 68q-23 29 -46.5 41t-51.5 12
q-24 0 -51 -7l-24 -6v62l33 11q34 8 63 8q40 0 71.5 -18t61.5 -59l12 -17v216h-302v67h718v-67h-340v-264z" />
    <glyph glyph-name="uni090C" unicode="&#x90c;" horiz-adv-x="634" 
d="M478.5 83q-18.5 -17 -18.5 -42q0 -26 18.5 -43t47.5 -17q34 0 75 13v-64q-41 -16 -79 -16q-36 0 -67.5 15.5t-51 45t-19.5 67.5q0 47 28 78.5t71 42.5v115q0 107 -76 107q-38 0 -55 -32t-17 -83v-70h-78v70q0 51 -17 83t-56 32q-76 0 -76 -144q0 -91 40 -132.5t129 -41.5
h16v-63q-15 -4 -35 -4q-112 0 -170 61.5t-58 191.5q0 90 38.5 144t105.5 54q47 0 77 -25t43 -68h3q28 93 116 93q40 0 70 -24v136h-493v67h655v-67h-87v-463h-32q-29 0 -47.5 -17z" />
    <glyph glyph-name="uni090D" unicode="&#x90d;" horiz-adv-x="456" 
d="M0 0zM466 563h-86v-190q0 -47 -22.5 -79t-73.5 -32q-19 0 -41 5v59h18q21 0 32 11.5t11 32.5v193h-152v-257q0 -31 14 -46l171 -166q43 -46 43 -80q0 -29 -17 -63h-62q6 29 6 47q0 13 -4.5 23.5t-15.5 22.5l-183 180q-15 16 -21.5 34t-6.5 43v262h-86v67h476v-67z
M335.5 729q-39.5 -39 -108.5 -39q-68 0 -107.5 39t-39.5 102h73q0 -40 21.5 -61t52.5 -21q34 0 55 21t21 61h72q0 -63 -39.5 -102z" />
    <glyph glyph-name="uni090E" unicode="&#x90e;" horiz-adv-x="456" 
d="M466 563h-86v-190q0 -47 -22.5 -79t-73.5 -32q-19 0 -41 5v59h18q21 0 32 11.5t11 32.5v193h-152v-257q0 -31 14 -46l171 -166q43 -46 43 -80q0 -29 -17 -63h-62q6 29 6 47q0 13 -4.5 23.5t-15.5 22.5l-183 180q-15 16 -21.5 34t-6.5 43v262h-86v67h314v58
q0 22 -11.5 31.5t-36.5 9.5h-174q-64 0 -93 25.5t-29 82.5v23h75v-23q0 -22 11 -31.5t36 -9.5h174q65 0 94 -25.5t29 -82.5v-58h87v-67z" />
    <glyph glyph-name="uni090F" unicode="&#x90f;" horiz-adv-x="456" 
d="M466 563h-86v-190q0 -47 -22.5 -79t-73.5 -32q-19 0 -41 5v59h18q21 0 32 11.5t11 32.5v193h-152v-257q0 -31 14 -46l171 -166q43 -46 43 -80q0 -29 -17 -63h-62q6 29 6 47q0 13 -4.5 23.5t-15.5 22.5l-183 180q-15 16 -21.5 34t-6.5 43v262h-86v67h476v-67z" />
    <glyph glyph-name="uni0910" unicode="&#x910;" horiz-adv-x="456" 
d="M466 563h-86v-190q0 -47 -22.5 -79t-73.5 -32q-19 0 -41 5v59h18q21 0 32 11.5t11 32.5v193h-152v-257q0 -31 14 -46l171 -166q43 -46 43 -80q0 -29 -17 -63h-62q6 29 6 47q0 13 -4.5 23.5t-15.5 22.5l-183 180q-15 16 -21.5 34t-6.5 43v262h-86v67h313l-85 276h76
l76 -276h96v-67z" />
    <glyph glyph-name="uni0911" unicode="&#x911;" horiz-adv-x="842" 
d="M40 0zM852 563h-86v-563h-76v563h-147v-563h-75v251h-109v-14v-30q-1 -71 -44.5 -112t-116.5 -41t-115.5 41t-42.5 106q0 14 2 24h74v-12q0 -45 21 -68.5t60 -23.5q38 0 60.5 22.5t23.5 63.5v30q0 42 -24 62.5t-64 20.5h-42v65h45q33 0 54 22.5t21 64.5v28q0 36 -20.5 56
t-51.5 20q-33 0 -52.5 -22.5t-19.5 -66.5v-10h-75q-2 10 -2 24q0 64 42 102.5t111 38.5q66 0 105.5 -37.5t39.5 -104.5v-28q0 -76 -53 -113v-3q27 -11 44 -38h129v245h-81v67h465v-67zM528.5 729q-39.5 -39 -108.5 -39q-68 0 -107.5 39t-39.5 102h73q0 -40 21.5 -61
t52.5 -21q34 0 55 21t21 61h72q0 -63 -39.5 -102z" />
    <glyph glyph-name="uni0912" unicode="&#x912;" horiz-adv-x="842" 
d="M852 563h-86v-563h-76v563h-147v-563h-75v251h-109v-14v-30q-1 -71 -44.5 -112t-116.5 -41t-115.5 41t-42.5 106q0 14 2 24h74v-12q0 -45 21 -68.5t60 -23.5q38 0 60.5 22.5t23.5 63.5v30q0 42 -24 62.5t-64 20.5h-42v65h45q33 0 54 22.5t21 64.5v28q0 36 -20.5 56
t-51.5 20q-33 0 -52.5 -22.5t-19.5 -66.5v-10h-75q-2 10 -2 24q0 64 42 102.5t111 38.5q66 0 105.5 -37.5t39.5 -104.5v-28q0 -76 -53 -113v-3q27 -11 44 -38h129v245h-81v67h303v58q0 22 -11.5 31.5t-36.5 9.5h-174q-64 0 -93 25.5t-29 82.5v23h75v-23q0 -22 11 -31.5
t36 -9.5h174q65 0 94 -25.5t29 -82.5v-58h87v-67z" />
    <glyph glyph-name="uni0913" unicode="&#x913;" horiz-adv-x="842" 
d="M852 563h-86v-563h-76v563h-147v-563h-75v251h-109v-14v-30q-1 -71 -44.5 -112t-116.5 -41t-115.5 41t-42.5 106q0 14 2 24h74v-12q0 -45 21 -68.5t60 -23.5q38 0 60.5 22.5t23.5 63.5v30q0 42 -24 62.5t-64 20.5h-42v65h45q33 0 54 22.5t21 64.5v28q0 36 -20.5 56
t-51.5 20q-33 0 -52.5 -22.5t-19.5 -66.5v-10h-75q-2 10 -2 24q0 64 42 102.5t111 38.5q66 0 105.5 -37.5t39.5 -104.5v-28q0 -76 -53 -113v-3q27 -11 44 -38h129v245h-81v67h302l-85 276h76l76 -276h96v-67z" />
    <glyph glyph-name="uni0914" unicode="&#x914;" horiz-adv-x="842" 
d="M852 563h-86v-563h-76v563h-147v-563h-75v251h-109v-14v-30q-1 -71 -44.5 -112t-116.5 -41t-115.5 41t-42.5 106q0 14 2 24h74v-12q0 -45 21 -68.5t60 -23.5q38 0 60.5 22.5t23.5 63.5v30q0 42 -24 62.5t-64 20.5h-42v65h45q33 0 54 22.5t21 64.5v28q0 36 -20.5 56
t-51.5 20q-33 0 -52.5 -22.5t-19.5 -66.5v-10h-75q-2 10 -2 24q0 64 42 102.5t111 38.5q66 0 105.5 -37.5t39.5 -104.5v-28q0 -76 -53 -113v-3q27 -11 44 -38h129v245h-81v67h222l-85 276h76l76 -276h17q-8 77 -8 143v133h75v-276h92v-67z" />
    <glyph glyph-name="uni0915" unicode="&#x915;" horiz-adv-x="638" 
d="M350 432h3q16 21 42.5 34t61.5 13q67 0 105.5 -48.5t38.5 -135.5q0 -89 -40.5 -138.5t-111.5 -49.5q-9 0 -25 2v66h12q44 0 65 25t21 82v23q0 57 -20.5 82.5t-63.5 25.5q-45 0 -66.5 -26.5t-21.5 -81.5v-305h-76v156h-4q-36 -49 -105 -49q-65 0 -104 46.5t-39 140.5
q0 93 39.5 139t105.5 46q70 0 103 -47h4v131h-284v67h658v-67h-298v-131zM274 282v23q0 108 -87 108q-44 0 -65 -25.5t-21 -82.5v-23q0 -57 21 -82t65 -25q87 0 87 107z" />
    <glyph glyph-name="uni0916" unicode="&#x916;" horiz-adv-x="678" 
d="M688 563h-86v-563h-76v93q-27 -28 -77 -42t-112 -14q-144 0 -227 76.5t-83 223.5h51q45 0 69 27.5t24 80.5v118h-181v67h698v-67zM526 563h-281v-111q0 -82 -34.5 -126.5t-100.5 -48.5q17 -90 76 -132.5t154 -42.5q166 0 186 104h-3q-15 -17 -38 -28t-53 -11
q-60 0 -96 40t-36 122q0 80 36 119.5t96 39.5q58 0 91 -38h3v113zM526 337q0 84 -74 84q-36 0 -54.5 -20t-18.5 -64v-18q0 -44 18.5 -64t54.5 -20q74 0 74 84v18z" />
    <glyph glyph-name="uni0917" unicode="&#x917;" horiz-adv-x="564" 
d="M574 563h-86v-563h-76v563h-136v-288q0 -59 -35 -94.5t-94 -35.5q-54 0 -91 37.5t-37 92.5q0 59 34.5 94.5t93.5 35.5h54v158h-211v67h584v-67zM186.5 229q14.5 17 14.5 46v61h-54q-25 0 -39 -16.5t-14 -44.5q0 -27 14.5 -45t38.5 -18q25 0 39.5 17z" />
    <glyph glyph-name="uni0918" unicode="&#x918;" horiz-adv-x="484" 
d="M494 563h-86v-563h-76v154q-42 -47 -123 -47q-74 0 -119.5 38.5t-45.5 106.5q0 44 21.5 74.5t57.5 44.5q-37 17 -57.5 43t-20.5 72q0 49 21 77h-76v67h504v-67zM303.5 204.5q28.5 32.5 28.5 100.5v258h-178q-32 0 -32 -66q0 -49 23.5 -74t60.5 -25h44v-63h-43
q-37 0 -61 -18.5t-24 -59.5q0 -85 97 -85q56 0 84.5 32.5z" />
    <glyph glyph-name="uni0919" unicode="&#x919;" horiz-adv-x="476" 
d="M487 563h-137v-157h-147q-32 0 -52 -15t-20 -44q0 -24 15.5 -37.5t43.5 -13.5h39q70 0 110 -37.5t40 -103.5q0 -72 -46 -109t-124 -37q-86 0 -129.5 41.5t-43.5 101.5q0 12 1 20h79v-10q0 -43 26 -64.5t68 -21.5q40 0 65 20t25 60q0 35 -20 53.5t-56 18.5h-31
q-141 0 -141 119q0 65 41.5 95t113.5 30h68v91h-285v67h497v-67zM380 403h82v-89h-82v89z" />
    <glyph glyph-name="uni091A" unicode="&#x91a;" horiz-adv-x="480" 
d="M491 563h-86v-563h-76v145h-3q-16 -17 -42.5 -27.5t-59.5 -10.5q-68 0 -107.5 39t-39.5 119q0 68 32 106h-95v69h246v-69h-18q-44 0 -65 -21t-21 -68v-19q0 -47 21 -68t65 -21q87 0 87 108v281h-339v67h501v-67z" />
    <glyph glyph-name="uni091B" unicode="&#x91b;" horiz-adv-x="536" 
d="M439 563v-91q36 -12 54.5 -51t18.5 -103q0 -76 -33 -136t-92.5 -94t-136.5 -34q-94 0 -150 43.5t-56 118.5q0 49 21.5 86.5t57.5 54.5q-34 8 -56 37.5t-22 88.5q0 51 23 80h-78v67h556v-67h-107zM363 563h-193q-25 0 -36.5 -22.5t-11.5 -56.5q0 -50 19 -75t49 -25h34v-64
h-33q-29 0 -49 -24t-20 -66q0 -56 33.5 -83.5t94.5 -27.5q56 0 99 25t67 68.5t24 96.5v25q0 34 -9.5 57.5t-31.5 23.5q-18 0 -26.5 -13t-8.5 -33v-12h-67q-4 12 -4 31q0 31 19.5 52t50.5 31v92z" />
    <glyph glyph-name="uni091C" unicode="&#x91c;" horiz-adv-x="519" 
d="M529 563h-86v-563h-76v364h-73v-116q0 -68 -36 -104.5t-101 -36.5q-66 0 -101 36t-35 105v185h75v-190q0 -32 16 -49.5t45 -17.5q28 0 44.5 17.5t16.5 49.5v190h149v130h-377v67h539v-67z" />
    <glyph glyph-name="uni091D" unicode="&#x91d;" horiz-adv-x="659" 
d="M669 563h-86v-563h-76v259h-161q33 -30 33 -83q0 -65 -41.5 -100t-108.5 -35q-55 0 -92 24v-102h-75v235h75v-10q0 -41 23.5 -61t59.5 -20t58 19t22 56q0 33 -20 50t-56 17h-31q-68 0 -104.5 29.5t-36.5 79.5q0 60 38.5 87t106.5 27h78v91h-285v67h679v-67zM507 563h-157
v-157h-158q-26 0 -43.5 -12t-17.5 -36q0 -20 15.5 -30.5t43.5 -10.5h317v246z" />
    <glyph glyph-name="uni091E" unicode="&#x91e;" horiz-adv-x="561" 
d="M571 563h-86v-563h-76v248h-108q-5 -82 -41 -121t-107 -39q-56 0 -92 27.5t-36 69.5q0 11 2 21h70v-4q0 -20 15.5 -33t40.5 -13q39 0 56 24t17 73v55q0 49 -17 73t-56 24q-23 0 -37.5 -13t-14.5 -33v-4h-74q-2 10 -2 20q0 43 36 70t92 27q70 0 106 -38t42 -118h108v247
h-419v67h581v-67z" />
    <glyph glyph-name="uni091F" unicode="&#x91f;" horiz-adv-x="408" 
d="M115 280v-34q0 -63 24 -93.5t73 -30.5q45 0 68.5 24t23.5 69v33h77q2 -14 2 -28q0 -84 -44 -125t-125 -41q-89 0 -133.5 50.5t-44.5 157.5q0 210 174 210h44v91h-264v67h428v-67h-89v-157h-119q-95 0 -95 -126z" />
    <glyph glyph-name="uni0920" unicode="&#x920;" horiz-adv-x="436" 
d="M329 563v-118q77 -48 77 -183q0 -208 -187 -208t-187 208q0 210 187 210h35v91h-264v67h456v-67h-117zM327 280q0 92 -48 125h-60q-108 0 -108 -125v-34q0 -124 108 -124t108 124v34z" />
    <glyph glyph-name="uni0921" unicode="&#x921;" horiz-adv-x="422" 
d="M151 391q-20 -15 -20 -44q0 -24 15.5 -37.5t43.5 -13.5h39q70 0 110 -37.5t40 -103.5q0 -72 -46 -109t-124 -37q-86 0 -129.5 41.5t-43.5 101.5q0 12 1 20h79v-10q0 -43 26 -64.5t68 -21.5q40 0 65 20t25 60q0 35 -20 53.5t-56 18.5h-31q-141 0 -141 119q0 65 41.5 95
t113.5 30h68v91h-285v67h443v-67h-83v-157h-147q-32 0 -52 -15z" />
    <glyph glyph-name="uni0922" unicode="&#x922;" horiz-adv-x="435" 
d="M138 374.5q-23 -31.5 -23 -95.5v-33q0 -77 44 -107q-12 23 -12 54q0 52 30.5 84t88.5 32t92 -32t34 -85q0 -64 -45 -101t-112 -37q-94 0 -146 56t-52 164q0 198 178 198h48v91h-273v67h455v-67h-107v-157h-123q-54 0 -77 -31.5zM221.5 226.5q-14.5 -15.5 -14.5 -44.5
q0 -30 14.5 -45t41.5 -15q24 0 38.5 18t14.5 47q0 27 -14 41t-40 14t-40.5 -15.5z" />
    <glyph glyph-name="uni0923" unicode="&#x923;" horiz-adv-x="651" 
d="M661 563h-86v-563h-76v563h-135v-305q0 -73 -41.5 -112t-113.5 -39q-74 0 -114 39t-40 112v305h-65v67h671v-67zM288 563h-158v-309q0 -37 21 -57.5t58 -20.5q36 0 57.5 20.5t21.5 57.5v309z" />
    <glyph glyph-name="uni0924" unicode="&#x924;" horiz-adv-x="477" 
d="M488 563h-86v-563h-76v353h-138q-44 0 -61 -20t-17 -61q0 -96 96 -272h-82q-56 106 -74.5 169.5t-18.5 106.5q0 71 41 108t121 37h133v142h-336v67h498v-67z" />
    <glyph glyph-name="uni0925" unicode="&#x925;" horiz-adv-x="547" 
d="M557 563h-86v-563h-76v193q-20 -24 -54 -36t-76 -12q-86 0 -136 50t-50 142q77 0 116.5 38.5t39.5 102.5q0 40 -15 68t-46 28q-27 0 -40 -19t-13 -47v-26h-72q-4 12 -4 38q0 58 35.5 90t91.5 32q65 0 102.5 -43.5t37.5 -114.5q0 -76 -41.5 -130t-105.5 -71
q22 -74 106 -74q58 0 91 32.5t33 99.5v222h-75v67h237v-67z" />
    <glyph glyph-name="uni0926" unicode="&#x926;" horiz-adv-x="422" 
d="M115 280v-34q0 -63 26.5 -93.5t81.5 -30.5q54 0 80 29l-16 66h75l52 -217h-75l-19 79q-41 -25 -106 -25q-83 0 -130.5 51.5t-47.5 156.5q0 210 174 210h53v91h-273v67h443v-67h-95v-157h-128q-95 0 -95 -126z" />
    <glyph glyph-name="uni0927" unicode="&#x927;" horiz-adv-x="504" 
d="M515 563h-87v-563h-75v156q-46 -49 -134 -49q-79 0 -127 39t-48 109q0 45 21.5 76.5t57.5 46.5q-37 19 -57.5 49.5t-20.5 83.5q0 61 29.5 96t76.5 35q48 0 78 -24.5t30 -68.5q0 -18 -4 -30h-67v20q0 39 -33 39t-33 -72q0 -50 23.5 -75.5t60.5 -25.5h49v-64h-48
q-37 0 -61 -19t-24 -62q0 -46 28.5 -67t78.5 -21q61 0 92.5 32.5t31.5 100.5v258h-63v67h225v-67z" />
    <glyph glyph-name="uni0928" unicode="&#x928;" horiz-adv-x="506" 
d="M517 563h-86v-563h-76v335h-105v-52q0 -55 -34 -88.5t-90 -33.5q-52 0 -88.5 35.5t-36.5 86.5q0 55 34.5 88t90.5 33h229v159h-365v67h527v-67zM175 335h-49q-22 0 -36 -14.5t-14 -37.5q0 -22 15 -37.5t35 -15.5q22 0 35.5 14.5t13.5 38.5v52z" />
    <glyph glyph-name="uni0929" unicode="&#x929;" horiz-adv-x="506" 
d="M0 0zM517 563h-86v-563h-76v335h-105v-52q0 -55 -34 -88.5t-90 -33.5q-52 0 -88.5 35.5t-36.5 86.5q0 55 34.5 88t90.5 33h229v159h-365v67h527v-67zM175 335h-49q-22 0 -36 -14.5t-14 -37.5q0 -22 15 -37.5t35 -15.5q22 0 35.5 14.5t13.5 38.5v52zM171 108zM80 108h91
v-99h-91v99z" />
    <glyph glyph-name="uni092A" unicode="&#x92a;" horiz-adv-x="440" 
d="M450 563h-86v-563h-76v180q-37 -35 -98 -35q-64 0 -99.5 39t-35.5 111v268h-65v67h460v-67zM262.5 229.5q21.5 16.5 25.5 46.5v287h-157v-262q0 -42 20.5 -65t58.5 -23q31 0 52.5 16.5z" />
    <glyph glyph-name="uni092B" unicode="&#x92b;" horiz-adv-x="652" 
d="M364 432h3q16 21 42.5 34t61.5 13q67 0 105.5 -48.5t38.5 -135.5q0 -89 -40.5 -138.5t-111.5 -49.5q-9 0 -25 2v66h12q44 0 65 25t21 82v23q0 57 -20.5 82.5t-63.5 25.5q-45 0 -66.5 -26.5t-21.5 -81.5v-305h-76v180q-37 -35 -98 -35q-64 0 -99.5 39t-35.5 111v268h-65
v67h672v-67h-298v-131zM131 563v-262q0 -42 20.5 -65t58.5 -23q31 0 52.5 16.5t25.5 46.5v287h-157z" />
    <glyph glyph-name="uni092C" unicode="&#x92c;" horiz-adv-x="454" 
d="M465 563h-86v-563h-76v146h-3q-18 -17 -47 -28t-66 -11q-72 0 -114.5 46.5t-42.5 140.5t42 139.5t115 45.5q74 0 113 -37h3v121h-313v67h475v-67zM303 282v23q0 108 -97 108q-21 0 -34 -4l110 -203q21 26 21 76zM132.5 200q23.5 -25 73.5 -25q23 0 39 6l-112 207
q-24 -27 -24 -83v-23q0 -57 23.5 -82z" />
    <glyph glyph-name="uni092D" unicode="&#x92d;" horiz-adv-x="589" 
d="M599 563h-87v-563h-75v269h-140v-52q0 -54 -33.5 -87.5t-89.5 -33.5q-52 0 -88.5 35.5t-36.5 85.5q0 54 34.5 87t90.5 33h49v173q0 64 -52 64q-26 0 -38.5 -19.5t-12.5 -46.5v-31h-72q-4 18 -4 40q0 59 37 92t95 33q59 0 90 -32.5t31 -90.5v-182h140v226h-91v67h253v-67z
M223 269h-49q-22 0 -36 -14t-14 -38q0 -22 15 -38t35 -16q22 0 35.5 15t13.5 39v52z" />
    <glyph glyph-name="uni092E" unicode="&#x92e;" horiz-adv-x="551" 
d="M561 563h-86v-563h-76v269h-146v-52q0 -54 -34.5 -87.5t-89.5 -33.5q-52 0 -88.5 35.5t-36.5 85.5q0 54 34 87t91 33h49v226h-188v67h571v-67zM399 337v226h-146v-226h146zM178 269h-49q-23 0 -36.5 -14t-13.5 -38q0 -23 14.5 -38.5t35.5 -15.5q22 0 35.5 15t13.5 39v52z
" />
    <glyph glyph-name="uni092F" unicode="&#x92f;" horiz-adv-x="491" 
d="M501 563h-86v-563h-76v186q-20 -21 -51 -31t-66 -10q-87 0 -136 59t-49 169q57 0 88 25.5t31 66.5q0 40 -24.5 69t-58.5 29h-83v67h511v-67zM310.5 241.5q28.5 32.5 28.5 99.5v222h-150q21 -17 33 -44.5t12 -57.5q0 -53 -30.5 -90t-82.5 -53q20 -109 112 -109
q49 0 77.5 32.5z" />
    <glyph glyph-name="uni0930" unicode="&#x930;" horiz-adv-x="333" 
d="M343 563h-84v-142q0 -78 -35.5 -120t-103.5 -45l126 -256h-81l-124 268v48h51q45 0 68.5 25t23.5 73v149h-194v67h353v-67z" />
    <glyph glyph-name="uni0931" unicode="&#x931;" horiz-adv-x="333" 
d="M0 0zM343 563h-84v-142q0 -78 -35.5 -120t-103.5 -45l126 -256h-81l-124 268v48h51q45 0 68.5 25t23.5 73v149h-194v67h353v-67zM72 99zM-19 99h91v-99h-91v99z" />
    <glyph glyph-name="uni0932" unicode="&#x932;" horiz-adv-x="634" 
d="M645 563h-86v-563h-76v278q0 107 -76 107q-38 0 -55 -32t-17 -83v-70h-78v70q0 51 -17 83t-56 32q-76 0 -76 -144q0 -91 40 -132.5t129 -41.5h16v-63q-15 -4 -35 -4q-112 0 -170 61.5t-58 191.5q0 90 38.5 144t105.5 54q47 0 77 -25t43 -68h3q28 93 116 93q40 0 70 -24
v136h-493v67h655v-67z" />
    <glyph glyph-name="uni0933" unicode="&#x933;" horiz-adv-x="658" 
d="M523 563v-100q51 -19 79.5 -70.5t28.5 -125.5q0 -59 -19 -107.5t-55.5 -77t-87.5 -28.5q-96 0 -133 102q-46 -102 -143 -102q-74 0 -119 56.5t-45 149.5q0 59 19 107.5t55.5 77t87.5 28.5q98 0 133 -102q42 92 124 101v91h-458v67h679v-67h-146zM259.5 164
q26.5 42 32.5 108q-14 61 -36 97.5t-62 36.5q-43 0 -65 -43.5t-22 -104.5t23 -98.5t62 -37.5q41 0 67.5 42zM531 165.5q22 43.5 22 103.5q0 61 -23 99t-62 38q-41 0 -67.5 -42.5t-32.5 -108.5q15 -61 37 -97t61 -36q43 0 65 43.5z" />
    <glyph glyph-name="uni0934" unicode="&#x934;" horiz-adv-x="658" 
d="M0 0zM523 563v-100q51 -19 79.5 -70.5t28.5 -125.5q0 -59 -19 -107.5t-55.5 -77t-87.5 -28.5q-96 0 -133 102q-46 -102 -143 -102q-74 0 -119 56.5t-45 149.5q0 59 19 107.5t55.5 77t87.5 28.5q98 0 133 -102q42 92 124 101v91h-458v67h679v-67h-146zM259.5 164
q26.5 42 32.5 108q-14 61 -36 97.5t-62 36.5q-43 0 -65 -43.5t-22 -104.5t23 -98.5t62 -37.5q41 0 67.5 42zM531 165.5q22 43.5 22 103.5q0 61 -23 99t-62 38q-41 0 -67.5 -42.5t-32.5 -108.5q15 -61 37 -97t61 -36q43 0 65 43.5zM380 18zM289 18h91v-99h-91v99z" />
    <glyph glyph-name="uni0935" unicode="&#x935;" horiz-adv-x="434" 
d="M444 563h-86v-563h-76v146h-3q-39 -39 -106 -39q-70 0 -110.5 46t-40.5 141q0 94 40.5 139.5t110.5 45.5q69 0 106 -37h3v121h-292v67h454v-67zM282 282v23q0 108 -91 108q-46 0 -68 -25.5t-22 -82.5v-23q0 -57 22 -82t68 -25q91 0 91 107z" />
    <glyph glyph-name="uni0936" unicode="&#x936;" horiz-adv-x="554" 
d="M289.5 377q-22.5 -47 -61.5 -77.5t-87 -38.5l165 -261h-81l-167 268v48h21q77 0 116.5 44.5t39.5 114.5q0 42 -15 70.5t-46 28.5q-27 0 -40 -19t-13 -47v-26h-72q-4 12 -4 38q0 58 36 90t92 32q65 0 102 -44t37 -118q0 -56 -22.5 -103zM565 563h-88v-563h-75v563h-66v67
h229v-67z" />
    <glyph glyph-name="uni0937" unicode="&#x937;" horiz-adv-x="440" 
d="M451 563h-86v-563h-76v180q-37 -35 -98 -35q-64 0 -99.5 39t-35.5 111v268h-65v67h460v-67zM132 560l156 -287q1 1 1 3v287h-157v-3zM152.5 236q20.5 -23 58.5 -23q32 0 52 16l-131 239v-167q0 -42 20.5 -65z" />
    <glyph glyph-name="uni0938" unicode="&#x938;" horiz-adv-x="536" 
d="M556 563h-86v-563h-76v256h-273l125 -256h-81l-124 268v48h51q8 0 22 2h2q33 6 50.5 30.5t17.5 65.5v149h-194v67h566v-67zM394 563h-135v-142q0 -63 -23 -103h158v245z" />
    <glyph glyph-name="uni0939" unicode="&#x939;" horiz-adv-x="444" 
d="M161.5 393q-17.5 -13 -17.5 -36q0 -35 21.5 -47t53.5 -14q6 1 19 1q88 0 132 -37.5t44 -111.5q0 -19 -2 -35h-77v36q0 41 -24 64t-67 23q-48 0 -75.5 -25.5t-27.5 -79.5q0 -60 33 -88.5t102 -28.5h63v-59q-29 -8 -64 -8q-106 0 -159 46.5t-53 142.5q0 40 15 71.5t42 52.5
q-56 29 -56 98q0 56 39 85t103 29h74v91h-290v67h464v-67h-98v-157h-151q-26 0 -43.5 -13z" />
    <glyph glyph-name="uni093A" unicode="&#x93a;" horiz-adv-x="0" 
d="M-76 694h-76v179h76v-179z" />
    <glyph glyph-name="uni093B" unicode="&#x93b;" 
d="M238 563h-86v-563h-76v563h-86v67h85v179h76v-179h87v-67z" />
    <glyph glyph-name="uni093C" unicode="&#x93c;" horiz-adv-x="0" 
d="M-66 -51zM-157 -51h91v-99h-91v99z" />
    <glyph glyph-name="uni093D" unicode="&#x93d;" horiz-adv-x="405" 
d="M143.5 544.5q-20.5 -18.5 -20.5 -52.5q0 -30 16 -55.5t36.5 -43t57.5 -46.5q47 -34 74.5 -60.5t44 -60.5t16.5 -79q0 -76 -46 -117t-122 -41q-81 0 -122.5 42t-41.5 105q0 14 1 25h79v-20q0 -42 25.5 -64t61.5 -22q38 0 62 24t24 69q0 43 -26 76t-88 81q-44 34 -70.5 59
t-43.5 57.5t-17 73.5q0 66 42.5 100.5t115.5 34.5h187v-67h-195q-30 0 -50.5 -18.5z" />
    <glyph glyph-name="uni093E" unicode="&#x93e;" 
d="M238 563h-86v-563h-76v563h-86v67h248v-67z" />
    <glyph glyph-name="uni093F" unicode="&#x93f;" 
d="M552 838.5q39 -40.5 39 -100.5q0 -29 -1 -38h-74v29q0 34 -21 61t-69 40q-30 9 -77 9h-19q-46 0 -77 -7q-56 -13 -79 -45.5t-23 -84.5v-72h87v-67h-86v-563h-76v563h-86v67h86v82q0 71 38 117.5t116 64.5q47 12 109 12q55 0 102 -11q72 -16 111 -56.5z" />
    <glyph glyph-name="uni0940" unicode="&#x940;" 
d="M238 563h-86v-563h-76v563h-86v67h86v97q0 55 -16 83.5t-56 28.5q-37 0 -54.5 -30.5t-17.5 -73.5v-35h-73q-1 11 -1 45q0 77 42 119t110 42q69 0 105.5 -44t36.5 -125v-107h86v-67z" />
    <glyph glyph-name="uni0941" unicode="&#x941;" horiz-adv-x="0" 
d="M-225 -127.5q48 -31.5 94 -31.5q32 0 50 17.5t18 42.5t-19.5 42t-47.5 17q-36 0 -74 -12v63q39 17 79 17q36 0 67 -15.5t50 -44.5t19 -68q0 -59 -39.5 -93t-98.5 -34q-53 0 -104.5 27t-104.5 77v92q63 -65 111 -96.5z" />
    <glyph glyph-name="uni0942" unicode="&#x942;" horiz-adv-x="0" 
d="M20 -30.5q60 -58.5 70 -196.5h-76q0 57 -19 99.5t-50.5 64.5t-68.5 22q-34 0 -56 -17.5t-22 -43.5q0 -24 18.5 -41t49.5 -17q23 0 54 11v-65q-14 -5 -30 -9t-32 -4q-34 0 -65.5 15.5t-51 44.5t-19.5 68q0 59 43 93t111 34q84 0 144 -58.5z" />
    <glyph glyph-name="uni0943" unicode="&#x943;" horiz-adv-x="0" 
d="M-76 63v-63h-32q-29 0 -47.5 -17t-18.5 -42q0 -26 18.5 -43t47.5 -17q34 0 75 13v-64q-41 -16 -79 -16q-36 0 -67.5 15.5t-51 45t-19.5 67.5t19.5 67t51 44t67.5 15q22 0 36 -5z" />
    <glyph glyph-name="uni0944" unicode="&#x944;" horiz-adv-x="0" 
d="M-33 -250v-63q-43 -17 -79 -17q-55 0 -96.5 32t-41.5 82q0 28 12.5 50.5t33.5 37.5q-46 32 -46 84q0 50 38 81t89 31q30 0 47 -5v-63h-43q-26 0 -40.5 -14t-14.5 -36q0 -21 18.5 -35.5t47.5 -14.5h32v-62h-43q-26 0 -40.5 -14t-14.5 -36q0 -21 18.5 -35.5t47.5 -14.5
q37 0 75 12z" />
    <glyph glyph-name="uni0945" unicode="&#x945;" horiz-adv-x="0" 
d="M-5.5 729q-39.5 -39 -108.5 -39q-68 0 -107.5 39t-39.5 102h73q0 -40 21.5 -61t52.5 -21q34 0 55 21t21 61h72q0 -63 -39.5 -102z" />
    <glyph glyph-name="uni0946" unicode="&#x946;" horiz-adv-x="0" 
d="M-151 596v92q0 22 -11.5 31.5t-36.5 9.5h-174q-64 0 -93 25.5t-29 82.5v23h75v-23q0 -22 11 -31.5t36 -9.5h174q65 0 94 -25.5t29 -82.5v-92h-75z" />
    <glyph glyph-name="uni0947" unicode="&#x947;" horiz-adv-x="0" 
d="M-78 630v-67h-84v67h8l-85 276h76l76 -276h9z" />
    <glyph glyph-name="uni0948" unicode="&#x948;" horiz-adv-x="0" 
d="M-71 630v-67h-169v67h9l-85 276h76l76 -276h17q-8 77 -8 143v133h75v-276h9z" />
    <glyph glyph-name="uni0949" unicode="&#x949;" 
d="M0 0zM238 563h-86v-563h-76v563h-86v67h248v-67zM221.5 729q-39.5 -39 -108.5 -39q-68 0 -107.5 39t-39.5 102h73q0 -40 21.5 -61t52.5 -21q34 0 55 21t21 61h72q0 -63 -39.5 -102z" />
    <glyph glyph-name="uni094A" unicode="&#x94a;" 
d="M238 563h-86v-563h-76v563h-86v67h86v58q0 22 -11.5 31.5t-36.5 9.5h-174q-64 0 -93 25.5t-29 82.5v23h75v-23q0 -22 11 -31.5t36 -9.5h174q65 0 94 -25.5t29 -82.5v-58h87v-67z" />
    <glyph glyph-name="uni094B" unicode="&#x94b;" 
d="M238 563h-86v-563h-76v563h-86v67h85l-85 276h76l76 -276h96v-67z" />
    <glyph glyph-name="uni094C" unicode="&#x94c;" 
d="M238 563h-86v-563h-76v563h-90v67h9l-85 276h76l76 -276h17q-8 77 -8 143v133h75v-276h92v-67z" />
    <glyph glyph-name="uni094D" unicode="&#x94d;" horiz-adv-x="0" 
d="M-216 -64l234 -95v-68l-234 90v73z" />
    <glyph glyph-name="uni094E" unicode="&#x94e;" 
d="M238 563h-86v-563h-76v630h162v-67z" />
    <glyph glyph-name="uni094F" unicode="&#x94f;" 
d="M238 563h-86v-563h-76v563h-86v67h39q0 22 -11.5 32t-36.5 10h-186q-64 0 -93 25.5t-29 80.5v23h75v-23q0 -25 11 -35.5t36 -10.5h186q65 0 94 -24.5t29 -77.5h9q16 81 16 89q0 45 -46 45h-186q-63 0 -92.5 25t-29.5 79v23h75v-23q0 -23 11 -33t36 -10h186q59 0 90 -26
t31 -74q0 -18 -15 -95h49v-67z" />
    <glyph glyph-name="uni0950" unicode="&#x950;" horiz-adv-x="769" 
d="M623 661h-86v94h86v-94zM466 573q-44 40 -44 102h72q0 -88 85 -88q86 0 86 88h73q0 -62 -44.5 -102t-114.5 -40q-69 0 -113 40zM697.5 409.5q40.5 -46.5 40.5 -123.5t-42 -124t-110 -47q-14 0 -25 3v65h12q39 0 62.5 28.5t23.5 73.5q0 49 -18.5 76t-53.5 27
q-28 0 -42 -12t-19 -30t-8 -48q-6 -57 -35 -91.5t-96 -34.5h-11q-11 -56 -55.5 -87t-112.5 -31q-78 0 -123 41t-45 106q0 14 2 24h74v-12q0 -45 24 -68.5t67 -23.5t68.5 22.5t26.5 63.5v30q0 42 -29.5 62.5t-79.5 20.5h-42v65h45q43 0 69.5 22.5t26.5 64.5v28q0 36 -23 56
t-60 20q-38 0 -60 -22.5t-22 -66.5v-10h-75q-2 10 -2 24q0 64 44.5 102.5t118.5 38.5q72 0 114 -37.5t42 -104.5v-28q0 -43 -20 -69.5t-54 -43.5v-3q37 -11 60.5 -41.5t24.5 -75.5q30 3 44 19.5t17 44.5q5 49 13.5 78t39.5 52t93 23q70 0 110.5 -46.5z" />
    <glyph glyph-name="uni0951" unicode="&#x951;" horiz-adv-x="0" 
d="M-80 926h-68v232h68v-232z" />
    <glyph glyph-name="uni0952" unicode="&#x952;" horiz-adv-x="0" 
d="M-14 -362v-58h-432v58h432z" />
    <glyph glyph-name="uni0953" unicode="&#x953;" horiz-adv-x="0" 
d="M-82 701zM-244 819l1 4h82l79 -122h-63z" />
    <glyph glyph-name="uni0954" unicode="&#x954;" horiz-adv-x="0" 
d="M0 701zM-143 701l79 122h84l1 -4l-100 -118h-64z" />
    <glyph glyph-name="uni0955" unicode="&#x955;" horiz-adv-x="0" 
d="M-7 772q-39 -33 -107 -33t-107.5 33.5t-39.5 87.5h73q0 -33 21 -49t53 -16q35 0 55.5 16t20.5 49h72q-2 -55 -41 -88zM-251 718h274v-56h-274v56z" />
    <glyph glyph-name="uni0956" unicode="&#x956;" horiz-adv-x="0" 
d="M-103.5 -89q-19.5 -28 -57 -45.5t-90.5 -17.5t-90 17.5t-56.5 45.5t-22.5 58h62q11 -25 36.5 -43.5t70.5 -18.5q46 0 71.5 19t35.5 43h63q-3 -30 -22.5 -58z" />
    <glyph glyph-name="uni0957" unicode="&#x957;" horiz-adv-x="0" 
d="M-81 -31zM-103.5 -89q-19.5 -28 -57 -45.5t-90.5 -17.5t-90 17.5t-56.5 45.5t-22.5 58h62q11 -25 36.5 -43.5t70.5 -18.5q46 0 71.5 19t35.5 43h63q-3 -30 -22.5 -58zM-103.5 -224q-19.5 -28 -57 -45.5t-90.5 -17.5t-90 17.5t-56.5 45.5t-22.5 58h62q11 -25 36.5 -43.5
t70.5 -18.5q46 0 71.5 19t35.5 43h63q-3 -30 -22.5 -58z" />
    <glyph glyph-name="uni0958" unicode="&#x958;" horiz-adv-x="638" 
d="M0 0zM350 432h3q16 21 42.5 34t61.5 13q67 0 105.5 -48.5t38.5 -135.5q0 -89 -40.5 -138.5t-111.5 -49.5q-9 0 -25 2v66h12q44 0 65 25t21 82v23q0 57 -20.5 82.5t-63.5 25.5q-45 0 -66.5 -26.5t-21.5 -81.5v-305h-76v156h-4q-36 -49 -105 -49q-65 0 -104 46.5t-39 140.5
q0 93 39.5 139t105.5 46q70 0 103 -47h4v131h-284v67h658v-67h-298v-131zM274 282v23q0 108 -87 108q-44 0 -65 -25.5t-21 -82.5v-23q0 -57 21 -82t65 -25q87 0 87 107zM175 69zM84 69h91v-99h-91v99z" />
    <glyph glyph-name="uni0959" unicode="&#x959;" horiz-adv-x="678" 
d="M0 0zM688 563h-86v-563h-76v93q-27 -28 -77 -42t-112 -14q-144 0 -227 76.5t-83 223.5h51q45 0 69 27.5t24 80.5v118h-181v67h698v-67zM526 563h-281v-111q0 -82 -34.5 -126.5t-100.5 -48.5q17 -90 76 -132.5t154 -42.5q166 0 186 104h-3q-15 -17 -38 -28t-53 -11
q-60 0 -96 40t-36 122q0 80 36 119.5t96 39.5q58 0 91 -38h3v113zM526 337q0 84 -74 84q-36 0 -54.5 -20t-18.5 -64v-18q0 -44 18.5 -64t54.5 -20q74 0 74 84v18zM124 83zM33 83h91v-99h-91v99z" />
    <glyph glyph-name="uni095A" unicode="&#x95a;" horiz-adv-x="564" 
d="M0 0zM574 563h-86v-563h-76v563h-136v-288q0 -59 -35 -94.5t-94 -35.5q-54 0 -91 37.5t-37 92.5q0 59 34.5 94.5t93.5 35.5h54v158h-211v67h584v-67zM186.5 229q14.5 17 14.5 46v61h-54q-25 0 -39 -16.5t-14 -44.5q0 -27 14.5 -45t38.5 -18q25 0 39.5 17zM193 88zM102 88
h91v-99h-91v99z" />
    <glyph glyph-name="uni095B" unicode="&#x95b;" horiz-adv-x="519" 
d="M0 0zM529 563h-86v-563h-76v364h-73v-116q0 -68 -36 -104.5t-101 -36.5q-66 0 -101 36t-35 105v185h75v-190q0 -32 16 -49.5t45 -17.5q28 0 44.5 17.5t16.5 49.5v190h149v130h-377v67h539v-67zM203 29zM112 29h91v-99h-91v99z" />
    <glyph glyph-name="uni095C" unicode="&#x95c;" horiz-adv-x="422" 
d="M0 0zM151 391q-20 -15 -20 -44q0 -24 15.5 -37.5t43.5 -13.5h39q70 0 110 -37.5t40 -103.5q0 -72 -46 -109t-124 -37q-86 0 -129.5 41.5t-43.5 101.5q0 12 1 20h79v-10q0 -43 26 -64.5t68 -21.5q40 0 65 20t25 60q0 35 -20 53.5t-56 18.5h-31q-141 0 -141 119
q0 65 41.5 95t113.5 30h68v91h-285v67h443v-67h-83v-157h-147q-32 0 -52 -15zM254 -42zM163 -42h91v-99h-91v99z" />
    <glyph glyph-name="uni095D" unicode="&#x95d;" horiz-adv-x="435" 
d="M0 0zM138 374.5q-23 -31.5 -23 -95.5v-33q0 -77 44 -107q-12 23 -12 54q0 52 30.5 84t88.5 32t92 -32t34 -85q0 -64 -45 -101t-112 -37q-94 0 -146 56t-52 164q0 198 178 198h48v91h-273v67h455v-67h-107v-157h-123q-54 0 -77 -31.5zM221.5 226.5
q-14.5 -15.5 -14.5 -44.5q0 -30 14.5 -45t41.5 -15q24 0 38.5 18t14.5 47q0 27 -14 41t-40 14t-40.5 -15.5zM280 3zM189 3h91v-99h-91v99z" />
    <glyph glyph-name="uni095E" unicode="&#x95e;" horiz-adv-x="652" 
d="M0 0zM364 432h3q16 21 42.5 34t61.5 13q67 0 105.5 -48.5t38.5 -135.5q0 -89 -40.5 -138.5t-111.5 -49.5q-9 0 -25 2v66h12q44 0 65 25t21 82v23q0 57 -20.5 82.5t-63.5 25.5q-45 0 -66.5 -26.5t-21.5 -81.5v-305h-76v180q-37 -35 -98 -35q-64 0 -99.5 39t-35.5 111v268
h-65v67h672v-67h-298v-131zM131 563v-262q0 -42 20.5 -65t58.5 -23q31 0 52.5 16.5t25.5 46.5v287h-157zM105 94zM14 94h91v-99h-91v99z" />
    <glyph glyph-name="uni095F" unicode="&#x95f;" horiz-adv-x="491" 
d="M0 0zM501 563h-86v-563h-76v186q-20 -21 -51 -31t-66 -10q-87 0 -136 59t-49 169q57 0 88 25.5t31 66.5q0 40 -24.5 69t-58.5 29h-83v67h511v-67zM310.5 241.5q28.5 32.5 28.5 99.5v222h-150q21 -17 33 -44.5t12 -57.5q0 -53 -30.5 -90t-82.5 -53q20 -109 112 -109
q49 0 77.5 32.5zM134 82zM43 82h91v-99h-91v99z" />
    <glyph glyph-name="uni0960" unicode="&#x960;" horiz-adv-x="698" 
d="M368 299l190 108v41h75v-273h-43q-26 0 -40.5 -14t-14.5 -36q0 -21 18.5 -35.5t47.5 -14.5h32v-62h-43q-26 0 -40.5 -14t-14.5 -36q0 -21 18.5 -35.5t47.5 -14.5q37 0 75 12v-63q-43 -17 -79 -17q-55 0 -96.5 32t-41.5 82q0 28 12.5 50.5t33.5 37.5q-46 32 -46 84
q0 42 28.5 71.5t70.5 37.5v88l-190 -108v-220h-76v183l-222 -127v79l205 117l-51 68q-23 29 -46.5 41t-51.5 12q-24 0 -51 -7l-24 -6v62l33 11q34 8 63 8q40 0 71.5 -18t61.5 -59l12 -17v216h-302v67h718v-67h-340v-264z" />
    <glyph glyph-name="uni0961" unicode="&#x961;" horiz-adv-x="634" 
d="M472.5 86q-14.5 -14 -14.5 -36q0 -21 18.5 -35.5t47.5 -14.5h32v-62h-43q-26 0 -40.5 -14t-14.5 -36q0 -21 18.5 -35.5t47.5 -14.5q37 0 75 12v-63q-43 -17 -79 -17q-55 0 -96.5 32t-41.5 82q0 28 12.5 50.5t33.5 37.5q-46 32 -46 84q0 43 29 72.5t72 37.5v112
q0 107 -76 107q-38 0 -55 -32t-17 -83v-60h-78v60q0 51 -17 83t-56 32q-76 0 -76 -144q0 -91 37.5 -132.5t120.5 -41.5h17v-63q-16 -4 -35 -4q-108 0 -163 61.5t-55 191.5q0 90 38.5 144t105.5 54q47 0 77 -25t43 -68h3q28 93 116 93q40 0 70 -24v136h-493v67h655v-67h-87
v-463h-45q-26 0 -40.5 -14z" />
    <glyph glyph-name="uni0962" unicode="&#x962;" horiz-adv-x="0" 
d="M-68.5 -154.5q6.5 19.5 19.5 45.5q12 28 17.5 43.5t5.5 31.5q0 17 -6.5 24t-19.5 7q-16 0 -22.5 -11t-6.5 -32v-25h-67v25q0 43 -26 43q-27 0 -27 -54q0 -36 10.5 -53t32.5 -17h7v-58h-9q-111 0 -111 127q0 58 22 87t62 29q52 0 73 -55q9 25 26.5 40t51.5 15
q35 0 57.5 -19.5t22.5 -59.5q0 -24 -7 -45.5t-21 -50.5q-2 -4 -8 -18.5t-9 -25.5t-3 -20q0 -30 31 -30q22 0 48 12v-59q-30 -17 -61 -17q-36 0 -62.5 21.5t-26.5 60.5q0 19 6.5 38.5z" />
    <glyph glyph-name="uni0963" unicode="&#x963;" horiz-adv-x="0" 
d="M1 -243q-5 -15 -5 -27q0 -31 31 -31q20 0 48 13v-59q-27 -17 -61 -17q-36 0 -62.5 21t-26.5 60q0 26 17 66q-17 20 -17 50q0 20 6.5 39t19.5 47q7 15 12.5 29.5t5.5 25.5q0 23 -23 23q-15 0 -21 -10.5t-6 -32.5v-25h-67v25q0 43 -26 43q-27 0 -27 -54q0 -36 10.5 -53
t32.5 -17h7v-58h-9q-111 0 -111 127q0 58 22 87t62 29q52 0 73 -55q19 55 78 55q35 0 54.5 -19.5t19.5 -52.5q0 -19 -6 -36t-17 -42q-10 -20 -14.5 -33t-4.5 -26q0 -29 31 -29q24 0 48 13v-60q-28 -16 -63 -16h-11z" />
    <glyph glyph-name="uni0964" unicode="&#x964;" horiz-adv-x="263" 
d="M170 0h-76v630h76v-630z" />
    <glyph glyph-name="uni0965" unicode="&#x965;" horiz-adv-x="434" 
d="M94 0zM341 0h-76v630h76v-630zM170 0h-76v630h76v-630z" />
    <glyph glyph-name="uni0966" unicode="&#x966;" horiz-adv-x="440" 
d="M349 484q44 -53 44 -154t-44 -153.5t-129 -52.5t-129 52.5t-44 153.5t44 154t129 53t129 -53zM123 343v-26q0 -126 97 -126t97 126v26q0 126 -97 126t-97 -126z" />
    <glyph glyph-name="uni0967" unicode="&#x967;" horiz-adv-x="356" 
d="M246 142q21 -23 32 -42.5t11 -40.5q0 -28 -17 -59h-62q6 29 6 48q0 23 -19 45l-135 132l1 53q96 42 141 113h-4q-70 0 -113 39.5t-43 104.5q0 59 37 93t98 34t97 -36.5t36 -110.5q0 -89 -49 -156.5t-120 -115.5zM230 453q7 25 7 59q0 44 -14.5 64t-43.5 20t-44.5 -17
t-15.5 -49q0 -37 21 -57t58 -20h32z" />
    <glyph glyph-name="uni0968" unicode="&#x968;" horiz-adv-x="404" 
d="M322 600.5q40 -61.5 40 -191.5q0 -131 -38 -192t-120 -61q-48 0 -81 25v-181h-75v348h75q0 -64 17 -94t57 -30q44 0 65 42t21 126v34q0 85 -21 127t-65 42q-40 0 -55 -29t-15 -94h-75q-3 15 -3 31q1 77 38.5 118t109.5 41q85 0 125 -61.5z" />
    <glyph glyph-name="uni0969" unicode="&#x969;" horiz-adv-x="420" 
d="M352 348q26 -35 26 -90q0 -70 -44 -111.5t-115 -41.5q-57 0 -95 29l-1 -134h-75l2 285h75v-11q0 -102 85 -102q41 0 65.5 23t24.5 67t-26 69.5t-69 25.5h-53v64h54q38 0 60.5 25t22.5 67q0 41 -21.5 62.5t-54.5 21.5q-35 0 -56 -24.5t-21 -72.5v-9h-77v17q0 70 43 112
t113 42q67 0 109 -38t42 -106q0 -91 -82 -123v-3q42 -9 68 -44z" />
    <glyph glyph-name="uni096A" unicode="&#x96a;" horiz-adv-x="440" 
d="M125 458q0 -55 24.5 -86t70.5 -31t70.5 31t24.5 86v194h78v-194q0 -111 -82 -151q34 -22 51.5 -59.5t17.5 -83.5q0 -76 -42 -125.5t-118 -49.5t-118 49.5t-42 125.5q0 46 17.5 83.5t50.5 59.5q-81 40 -81 151v194h78v-194zM282.5 85.5q23.5 29.5 23.5 79.5
q0 51 -23.5 80.5t-62.5 29.5t-62 -29.5t-23 -80.5t23 -80t62 -29t62.5 29.5z" />
    <glyph glyph-name="uni096B" unicode="&#x96b;" horiz-adv-x="419" 
d="M369 379v-379h-75v153q-35 -29 -91 -29q-86 0 -120.5 69t-34.5 169q0 131 60 290h80q-64 -155 -64 -278v-26q0 -158 85 -158q44 0 64.5 39t20.5 116v34h75z" />
    <glyph glyph-name="uni096C" unicode="&#x96c;" horiz-adv-x="420" 
d="M347 0l-37 154q-38 -49 -109 -49t-114.5 41t-43.5 112q0 55 25.5 90t67.5 44v3q-82 32 -82 123q0 68 42.5 106t108.5 38q70 0 113 -42t43 -112v-17h-77v9q0 48 -21 72.5t-56 24.5q-33 0 -54.5 -21.5t-21.5 -62.5q0 -42 22.5 -67t60.5 -25h54v-64h-53q-43 0 -68.5 -25
t-25.5 -70q0 -44 24 -67t65 -23q66 0 81 63l-12 50h76l68 -285h-76z" />
    <glyph glyph-name="uni096D" unicode="&#x96d;" horiz-adv-x="516" 
d="M440.5 484.5q32.5 -52.5 32.5 -161.5q0 -163 -57.5 -248.5t-167.5 -85.5q-105 0 -155 76.5t-50 228.5q0 75 14.5 160t50.5 198h83q-72 -194 -72 -346v-27q0 -116 33 -170t106 -54q112 0 135 173q-20 -2 -32 -2q-69 0 -109.5 42.5t-40.5 118.5q0 70 35 110t98 40
q64 0 96.5 -52.5zM397 288q1 11 1 35v25q0 63 -14 92.5t-43 29.5q-27 0 -41 -23t-14 -63q0 -49 20.5 -72.5t63.5 -23.5h27z" />
    <glyph glyph-name="uni096E" unicode="&#x96e;" horiz-adv-x="444" 
d="M189.5 392.5q-68.5 -119.5 -68.5 -211.5q0 -58 28 -92t75 -34q41 0 70.5 27.5t29.5 82.5v31h76q5 -14 5 -39q0 -71 -46.5 -119.5t-132.5 -48.5q-84 0 -134 48.5t-50 140.5q0 195 237 475h99q-120 -141 -188.5 -260.5z" />
    <glyph glyph-name="uni096F" unicode="&#x96f;" horiz-adv-x="402" 
d="M195 253.5q35 -46.5 94 -111.5q22 -24 32.5 -42t10.5 -40q0 -29 -17 -60h-62q6 29 6 49q0 13 -4.5 22t-15.5 22q-66 73 -105 125t-65 114.5t-26 133.5q0 88 42 142t121 54q68 0 108.5 -39.5t40.5 -107.5q0 -76 -50.5 -121t-134.5 -45q-19 0 -30 1q20 -50 55 -96.5z
M139.5 562q-21.5 -34 -21.5 -95q0 -25 5 -55h52q50 0 77.5 25.5t27.5 71.5q0 40 -21 63.5t-56 23.5q-42 0 -63.5 -34z" />
    <glyph glyph-name="uni0970" unicode="&#x970;" horiz-adv-x="422" 
d="M286 621q34 -20 54 -54t20 -74q0 -41 -20 -75.5t-54 -54.5t-75 -20q-40 0 -74 20t-54 54.5t-20 75.5q0 40 20 74t54 54t74 20q41 0 75 -20zM147.5 555q-26.5 -26 -26.5 -62q0 -38 26.5 -65t63.5 -27q38 0 64 27t26 65q0 36 -26 62t-64 26q-37 0 -63.5 -26z" />
    <glyph glyph-name="uni0971" unicode="&#x971;" horiz-adv-x="251" 
d="M80 659h91v-99h-91v99z" />
    <glyph glyph-name="uni0972" unicode="&#x972;" horiz-adv-x="614" 
d="M40 0zM624 563h-81v-563h-75v251h-109v-14v-30q-1 -71 -44.5 -112t-116.5 -41t-115.5 41t-42.5 106q0 14 2 24h74v-12q0 -45 21 -68.5t60 -23.5q38 0 60.5 22.5t23.5 63.5v30q0 42 -24 62.5t-64 20.5h-42v65h45q33 0 54 22.5t21 64.5v28q0 36 -20.5 56t-51.5 20
q-33 0 -52.5 -22.5t-19.5 -66.5v-10h-75q-2 10 -2 24q0 64 42 102.5t111 38.5q66 0 105.5 -37.5t39.5 -104.5v-28q0 -76 -53 -113v-3q27 -11 44 -38h129v245h-81v67h237v-67zM414.5 729q-39.5 -39 -108.5 -39q-68 0 -107.5 39t-39.5 102h73q0 -40 21.5 -61t52.5 -21
q34 0 55 21t21 61h72q0 -63 -39.5 -102z" />
    <glyph glyph-name="uni0973" unicode="&#x973;" horiz-adv-x="614" 
d="M40 0zM624 563h-81v-563h-75v251h-109v-14v-30q-1 -71 -44.5 -112t-116.5 -41t-115.5 41t-42.5 106q0 14 2 24h74v-12q0 -45 21 -68.5t60 -23.5q38 0 60.5 22.5t23.5 63.5v30q0 42 -24 62.5t-64 20.5h-42v65h45q33 0 54 22.5t21 64.5v28q0 36 -20.5 56t-51.5 20
q-33 0 -52.5 -22.5t-19.5 -66.5v-10h-75q-2 10 -2 24q0 64 42 102.5t111 38.5q66 0 105.5 -37.5t39.5 -104.5v-28q0 -76 -53 -113v-3q27 -11 44 -38h129v245h-81v67h237v-67zM543 694h-76v179h76v-179z" />
    <glyph glyph-name="uni0974" unicode="&#x974;" horiz-adv-x="842" 
d="M40 0zM852 563h-86v-563h-76v563h-147v-563h-75v251h-109v-14v-30q-1 -71 -44.5 -112t-116.5 -41t-115.5 41t-42.5 106q0 14 2 24h74v-12q0 -45 21 -68.5t60 -23.5q38 0 60.5 22.5t23.5 63.5v30q0 42 -24 62.5t-64 20.5h-42v65h45q33 0 54 22.5t21 64.5v28q0 36 -20.5 56
t-51.5 20q-33 0 -52.5 -22.5t-19.5 -66.5v-10h-75q-2 10 -2 24q0 64 42 102.5t111 38.5q66 0 105.5 -37.5t39.5 -104.5v-28q0 -76 -53 -113v-3q27 -11 44 -38h129v245h-81v67h465v-67zM766 694h-76v179h76v-179z" />
    <glyph glyph-name="uni0975" unicode="&#x975;" horiz-adv-x="842" 
d="M852 563h-86v-563h-76v563h-147v-563h-75v251h-109v-14v-30q-1 -71 -44.5 -112t-116.5 -41t-115.5 41t-42.5 106q0 14 2 24h74v-12q0 -45 21 -68.5t60 -23.5q38 0 60.5 22.5t23.5 63.5v30q0 42 -24 62.5t-64 20.5h-42v65h45q33 0 54 22.5t21 64.5v28q0 36 -20.5 56
t-51.5 20q-33 0 -52.5 -22.5t-19.5 -66.5v-10h-75q-2 10 -2 24q0 64 42 102.5t111 38.5q66 0 105.5 -37.5t39.5 -104.5v-28q0 -76 -53 -113v-3q27 -11 44 -38h129v245h-81v67h256q0 22 -11.5 32t-36.5 10h-186q-64 0 -93 25.5t-29 80.5v23h75v-23q0 -25 11 -35.5t36 -10.5
h186q65 0 94 -24.5t29 -77.5h9q16 81 16 89q0 45 -46 45h-186q-63 0 -92.5 25t-29.5 79v23h75v-23q0 -23 11 -33t36 -10h186q59 0 90 -26t31 -74q0 -18 -15 -95h49v-67z" />
    <glyph glyph-name="uni0976" unicode="&#x976;" horiz-adv-x="614" 
d="M40 0zM624 563h-81v-563h-75v251h-109v-14v-30q-1 -71 -44.5 -112t-116.5 -41t-115.5 41t-42.5 106q0 14 2 24h74v-12q0 -45 21 -68.5t60 -23.5q38 0 60.5 22.5t23.5 63.5v30q0 42 -24 62.5t-64 20.5h-42v65h45q33 0 54 22.5t21 64.5v28q0 36 -20.5 56t-51.5 20
q-33 0 -52.5 -22.5t-19.5 -66.5v-10h-75q-2 10 -2 24q0 64 42 102.5t111 38.5q66 0 105.5 -37.5t39.5 -104.5v-28q0 -76 -53 -113v-3q27 -11 44 -38h129v245h-81v67h237v-67zM464.5 -89q-19.5 -28 -57 -45.5t-90.5 -17.5t-90 17.5t-56.5 45.5t-22.5 58h62q11 -25 36.5 -43.5
t70.5 -18.5q46 0 71.5 19t35.5 43h63q-3 -30 -22.5 -58z" />
    <glyph glyph-name="uni0977" unicode="&#x977;" horiz-adv-x="614" 
d="M40 0zM624 563h-81v-563h-75v251h-109v-14v-30q-1 -71 -44.5 -112t-116.5 -41t-115.5 41t-42.5 106q0 14 2 24h74v-12q0 -45 21 -68.5t60 -23.5q38 0 60.5 22.5t23.5 63.5v30q0 42 -24 62.5t-64 20.5h-42v65h45q33 0 54 22.5t21 64.5v28q0 36 -20.5 56t-51.5 20
q-33 0 -52.5 -22.5t-19.5 -66.5v-10h-75q-2 10 -2 24q0 64 42 102.5t111 38.5q66 0 105.5 -37.5t39.5 -104.5v-28q0 -76 -53 -113v-3q27 -11 44 -38h129v245h-81v67h237v-67zM487 -31zM464.5 -89q-19.5 -28 -57 -45.5t-90.5 -17.5t-90 17.5t-56.5 45.5t-22.5 58h62
q11 -25 36.5 -43.5t70.5 -18.5q46 0 71.5 19t35.5 43h63q-3 -30 -22.5 -58zM464.5 -224q-19.5 -28 -57 -45.5t-90.5 -17.5t-90 17.5t-56.5 45.5t-22.5 58h62q11 -25 36.5 -43.5t70.5 -18.5q46 0 71.5 19t35.5 43h63q-3 -30 -22.5 -58z" />
    <glyph glyph-name="uni0978" unicode="&#x978;" horiz-adv-x="458" 
d="M259 421q0 -65 -23 -106q82 -5 122.5 -49.5t40.5 -108.5t-47 -157h-80q48 97 48 153q0 46 -26 70.5t-74 24.5h-159v68h41q40 0 61 25t21 73v149h-194v67h478v-67h-209v-142z" />
    <glyph glyph-name="uni0979" unicode="&#x979;" horiz-adv-x="519" 
d="M0 0zM529 563h-86v-563h-76v364h-73v-116q0 -68 -36 -104.5t-101 -36.5q-66 0 -101 36t-35 105v185h75v-190q0 -32 16 -49.5t45 -17.5q28 0 44.5 17.5t16.5 49.5v190h149v130h-377v67h539v-67zM102 29zM11 29h91v-99h-91v99zM316 29zM225 29h91v-99h-91v99zM210 -54z
M119 -54h91v-99h-91v99z" />
    <glyph glyph-name="uni097A" unicode="&#x97a;" horiz-adv-x="491" 
d="M501 563h-86v-563h-76v186q-20 -21 -51 -31t-66 -10q-87 0 -136 59t-49 169q57 0 88 25.5t31 66.5q0 40 -24.5 69t-58.5 29h-83v67h511v-67zM197 563l14 -24q8 -14 11 -21l115 -210q2 20 2 33v222h-142zM318 251l-91 165q-11 -36 -38.5 -61t-67.5 -37q20 -109 112 -109
q57 0 85 42z" />
    <glyph glyph-name="uni097B" unicode="&#x97b;" horiz-adv-x="564" 
d="M574 563h-86v-563h-428v58h352v505h-136v-299q0 -59 -35 -94.5t-94 -35.5q-54 0 -91 37.5t-37 92.5q0 59 34.5 94.5t93.5 35.5h54v169h-211v67h584v-67zM186.5 219q14.5 17 14.5 45v62h-54q-25 0 -39 -16.5t-14 -45.5q0 -26 15 -44t38 -18q25 0 39.5 17z" />
    <glyph glyph-name="uni097C" unicode="&#x97c;" horiz-adv-x="518" 
d="M528 563h-86v-563h-422v58h346v306h-73v-103q0 -67 -36 -103.5t-101 -36.5q-66 0 -101 36t-35 104v172h75v-176q0 -33 15.5 -50.5t45.5 -17.5q28 0 44.5 17.5t16.5 50.5v176h149v130h-376v67h538v-67z" />
    <glyph glyph-name="uni097D" unicode="&#x97d;" horiz-adv-x="420" 
d="M298.5 621q36.5 -21 57 -58.5t20.5 -84.5q0 -61 -19.5 -98.5t-55.5 -76.5q-28 -31 -41.5 -54t-13.5 -57v-192h-80v207q0 42 16.5 71.5t49.5 66.5q30 35 45 61.5t15 61.5t-17 69t-65 34q-51 0 -69 -38.5t-18 -85.5q0 -10 0.5 -16.5t0.5 -8.5h-81q-1 3 -2 12.5t-1 19.5
q0 81 46 134.5t131 53.5q45 0 81.5 -21z" />
    <glyph glyph-name="uni097E" unicode="&#x97e;" horiz-adv-x="412" 
d="M138.5 395q-17.5 -11 -17.5 -32q0 -39 59 -39h46q67 0 104.5 -35t37.5 -98q0 -69 -45.5 -104.5t-122.5 -35.5q-87 0 -130.5 38t-43.5 94q0 13 1 20h79v-10q0 -38 26 -56.5t69 -18.5q40 0 64 18t24 55q0 31 -18 48t-51 17h-37q-141 0 -141 107q0 57 38.5 83t105.5 26h78
v91h-274v67h432v-67h-82v-157h-158q-26 0 -43.5 -11zM36 0h322v-58h-322v58z" />
    <glyph glyph-name="uni097F" unicode="&#x97f;" horiz-adv-x="454" 
d="M465 563h-86v-563h-338v58h262v114h-3q-18 -17 -47 -28t-66 -11q-73 0 -115 44t-42 134q0 89 42.5 133t114.5 44q73 0 113 -38h3v113h-313v67h475v-67zM303 298v23q0 100 -97 100q-11 0 -29 -2l104 -192q22 23 22 71zM132.5 223.5q23.5 -22.5 73.5 -22.5q23 0 36 4
l-106 196q-27 -24 -27 -80v-23q0 -52 23.5 -74.5z" />
    <glyph glyph-name="uni1CDA" unicode="&#x1cda;" horiz-adv-x="0" 
d="M0 926zM45 926h-68v232h68v-232zM-80 926h-68v232h68v-232z" />
    <glyph glyph-name="uni1CDB" unicode="&#x1cdb;" horiz-adv-x="0" 
d="M0 926zM138 926h-68v232h68v-232zM27 926h-68v232h68v-232zM-80 926h-68v232h68v-232z" />
    <glyph glyph-name="uni1CF5" unicode="&#x1cf5;" horiz-adv-x="504" 
d="M406 0l-155 262l-159 -262h-84l203 328l-184 302h92l136 -230l138 230h84l-183 -296l202 -334h-90z" />
    <glyph glyph-name="uni1CF6" unicode="&#x1cf6;" horiz-adv-x="594" 
d="M563 630v-48q0 -93 -38.5 -148t-106.5 -55q-45 0 -75.5 24.5t-44.5 68.5h-3q-13 -44 -43.5 -68.5t-75.5 -24.5q-68 0 -106.5 55t-38.5 148v48h78v-36q0 -74 18 -111.5t58 -37.5q39 0 56 32t17 83v70h78v-70q0 -51 17 -83t56 -32q40 0 58 37.5t18 111.5v36h78zM485 102
q0 74 -18 111.5t-58 37.5q-39 0 -56 -32t-17 -83v-70h-78v70q0 51 -17 83t-56 32q-40 0 -58 -37.5t-18 -111.5v-36h-78v47q0 94 38.5 149t106.5 55q45 0 75.5 -24.5t43.5 -68.5h3q14 44 44.5 68.5t75.5 24.5q68 0 106.5 -55t38.5 -149v-47h-78v36z" />
    <glyph glyph-name="Wgrave" unicode="&#x1e80;" horiz-adv-x="711" 
d="M347 691l-98 118l1 3h82l79 -121h-64zM451 0l-77 427q-6 38 -10.5 75.5t-6.5 51.5h-4q-2 -14 -6.5 -51.5t-10.5 -75.5l-76 -427h-105l-146 630h86l96 -436q6 -22 11.5 -60.5t7.5 -50.5h4q1 10 5.5 43.5t10.5 67.5l73 436h112l78 -436q6 -36 11 -68t6 -43h3q2 12 7.5 49
t11.5 62l97 436h73l-146 -630h-105z" />
    <glyph glyph-name="wgrave" unicode="&#x1e81;" horiz-adv-x="544" 
d="M264 543l-101 118l1 4h85l78 -122h-63zM338 0l-50 276q-6 31 -9.5 66l-4.5 45h-5q-1 -10 -4.5 -44.5t-9.5 -66.5l-50 -276h-83l-121 484h82l62 -273q6 -24 11.5 -63t6.5 -51h4q1 11 5 43.5t10 70.5l49 273h87l50 -273q6 -38 10 -70.5t5 -43.5h3q1 10 6.5 45t13.5 69
l60 273h77l-121 -484h-84z" />
    <glyph glyph-name="Wacute" unicode="&#x1e82;" horiz-adv-x="711" 
d="M365 691h-63l79 121h82l1 -3zM451 0l-77 427q-6 38 -10.5 75.5t-6.5 51.5h-4q-2 -14 -6.5 -51.5t-10.5 -75.5l-76 -427h-105l-146 630h86l96 -436q6 -22 11.5 -60.5t7.5 -50.5h4q1 10 5.5 43.5t10.5 67.5l73 436h112l78 -436q6 -36 11 -68t6 -43h3q2 12 7.5 49t11.5 62
l97 436h73l-146 -630h-105z" />
    <glyph glyph-name="wacute" unicode="&#x1e83;" horiz-adv-x="544" 
d="M282 543h-65l79 122h83l1 -4zM338 0l-50 276q-6 31 -9.5 66l-4.5 45h-5q-1 -10 -4.5 -44.5t-9.5 -66.5l-50 -276h-83l-121 484h82l62 -273q6 -24 11.5 -63t6.5 -51h4q1 11 5 43.5t10 70.5l49 273h87l50 -273q6 -38 10 -70.5t5 -43.5h3q1 10 6.5 45t13.5 69l60 273h77
l-121 -484h-84z" />
    <glyph glyph-name="Wdieresis" unicode="&#x1e84;" horiz-adv-x="711" 
d="M248 725v87h79v-87h-79zM385 725v87h80v-87h-80zM451 0l-77 427q-6 38 -10.5 75.5t-6.5 51.5h-4q-2 -14 -6.5 -51.5t-10.5 -75.5l-76 -427h-105l-146 630h86l96 -436q6 -22 11.5 -60.5t7.5 -50.5h4q1 10 5.5 43.5t10.5 67.5l73 436h112l78 -436q6 -36 11 -68t6 -43h3
q2 12 7.5 49t11.5 62l97 436h73l-146 -630h-105z" />
    <glyph glyph-name="wdieresis" unicode="&#x1e85;" horiz-adv-x="544" 
d="M162 577v88h80v-88h-80zM301 577v88h81v-88h-81zM338 0l-50 276q-6 31 -9.5 66l-4.5 45h-5q-1 -10 -4.5 -44.5t-9.5 -66.5l-50 -276h-83l-121 484h82l62 -273q6 -24 11.5 -63t6.5 -51h4q1 11 5 43.5t10 70.5l49 273h87l50 -273q6 -38 10 -70.5t5 -43.5h3q1 10 6.5 45
t13.5 69l60 273h77l-121 -484h-84z" />
    <glyph glyph-name="Ygrave" unicode="&#x1ef2;" horiz-adv-x="503" 
d="M242 691l-98 118l1 3h82l79 -121h-64zM292 0h-81v261l-204 369h90l160 -292h3l157 292h78l-203 -369v-261z" />
    <glyph glyph-name="ygrave" unicode="&#x1ef3;" horiz-adv-x="376" 
d="M180 543l-100 118l1 4h83l79 -122h-63zM184.5 -116q-36.5 -51 -95.5 -51q-32 0 -54 7v53h26q73 0 96 107l-148 484h83l70 -249l20 -68l17 -59h3q5 23 17 69l14 57l59 250h76l-123 -459q-24 -90 -60.5 -141z" />
    <glyph glyph-name="uni200C" unicode="&#x200c;" horiz-adv-x="0" 
d="M69 -420h-69v1280h69v-1280z" />
    <glyph glyph-name="uni200D" unicode="&#x200d;" horiz-adv-x="0" 
d="M69 800v-1220h-69v1280h238v-60h-169z" />
    <glyph glyph-name="endash" unicode="&#x2013;" horiz-adv-x="419" 
d="M0 283h418v-69h-418v69z" />
    <glyph glyph-name="emdash" unicode="&#x2014;" horiz-adv-x="754" 
d="M0 283h754v-69h-754v69z" />
    <glyph glyph-name="uni2015" unicode="&#x2015;" horiz-adv-x="754" 
d="M94 283h563v-69h-563v69z" />
    <glyph glyph-name="underscoredbl" unicode="&#x2017;" horiz-adv-x="460" 
d="M21 -66h419v-48h-419v48zM21 -151h419v-49h-419v49z" />
    <glyph glyph-name="quoteleft" unicode="&#x2018;" horiz-adv-x="167" 
d="M130 417h-93v92l45 121h48l-37 -113h37v-100z" />
    <glyph glyph-name="quoteright" unicode="&#x2019;" horiz-adv-x="167" 
d="M37 417l38 114h-38v99h93v-90l-45 -123h-48z" />
    <glyph glyph-name="quotesinglbase" unicode="&#x201a;" horiz-adv-x="167" 
d="M34 -114l37 114h-37v99h92v-91l-44 -122h-48z" />
    <glyph glyph-name="quotereversed" unicode="&#x201b;" horiz-adv-x="167" 
d="M130 417h-48l-45 123v90h93v-99h-37z" />
    <glyph glyph-name="quotedblleft" unicode="&#x201c;" horiz-adv-x="251" 
d="M112 517v-100h-92v92l44 121h48l-37 -113h37zM229 517v-100h-92v92l44 121h48l-37 -113h37z" />
    <glyph glyph-name="quotedblright" unicode="&#x201d;" horiz-adv-x="251" 
d="M22 417l37 114h-37v99h92v-90l-44 -123h-48zM138 417l38 114h-38v99h93v-90l-45 -123h-48z" />
    <glyph glyph-name="quotedblbase" unicode="&#x201e;" horiz-adv-x="251" 
d="M22 -114l37 114h-37v99h92v-91l-44 -122h-48zM138 -114l38 114h-38v99h93v-91l-45 -122h-48z" />
    <glyph glyph-name="dagger" unicode="&#x2020;" horiz-adv-x="419" 
d="M386 384l-152 16l18 -556h-87l19 556l-152 -16v85l152 -16l-16 177h82l-16 -177l152 16v-85z" />
    <glyph glyph-name="daggerdbl" unicode="&#x2021;" horiz-adv-x="419" 
d="M386 384l-152 16l18 -161l-18 -164l152 17v-87l-152 16l16 -177h-82l16 177l-152 -16v87l152 -17l-19 164l19 161l-152 -16v85l152 -16l-16 177h82l-16 -177l152 16v-85z" />
    <glyph glyph-name="bullet" unicode="&#x2022;" horiz-adv-x="264" 
d="M203 388q30 -30 30 -72t-30 -72.5t-72 -30.5q-41 0 -70.5 30.5t-29.5 72.5t29.5 72t70.5 30q42 0 72 -30z" />
    <glyph glyph-name="ellipsis" unicode="&#x2026;" horiz-adv-x="754" 
d="M80 99h92v-99h-92v99zM331 99h92v-99h-92v99zM581 99h92v-99h-92v99z" />
    <glyph glyph-name="perthousand" unicode="&#x2030;" horiz-adv-x="754" 
d="M222 603.5q28 -38.5 28 -128.5t-27.5 -127.5t-82.5 -37.5q-53 0 -80.5 38t-27.5 127q0 90 27.5 128.5t80.5 38.5q54 0 82 -38.5zM416 630h57l-348 -630h-57zM105.5 561q-9.5 -27 -9.5 -78v-14q0 -51 9.5 -78t34.5 -27q27 0 36.5 27t9.5 78v14q0 51 -9.5 78t-36.5 27
q-25 0 -34.5 -27zM483.5 283q27.5 -38 27.5 -128q0 -91 -27.5 -128.5t-82.5 -37.5q-53 0 -80.5 38t-27.5 128t27.5 128t80.5 38q55 0 82.5 -38zM726.5 283q27.5 -38 27.5 -128t-27.5 -128t-80.5 -38q-54 0 -81.5 38t-27.5 128t27.5 128t81.5 38q53 0 80.5 -38zM366.5 239.5
q-9.5 -26.5 -9.5 -77.5v-14q0 -51 9.5 -77.5t34.5 -26.5q27 0 36.5 26t9.5 78v14q0 52 -9.5 78t-36.5 26q-25 0 -34.5 -26.5zM609.5 240q-9.5 -26 -9.5 -78v-14q0 -52 9.5 -78t36.5 -26q25 0 35 26.5t10 77.5v14q0 51 -10 77.5t-35 26.5q-27 0 -36.5 -26z" />
    <glyph glyph-name="minute" unicode="&#x2032;" horiz-adv-x="145" 
d="M21 484l23 146h83l1 -2l-44 -144h-63z" />
    <glyph glyph-name="second" unicode="&#x2033;" horiz-adv-x="267" 
d="M21 484l23 146h83l1 -2l-44 -144h-63zM138 484l23 146h82l1 -2l-42 -144h-64z" />
    <glyph glyph-name="uni2038" unicode="&#x2038;" horiz-adv-x="260" 
d="M130 -71l-43 -133h-77l88 250h64l88 -250h-77z" />
    <glyph glyph-name="guilsinglleft" unicode="&#x2039;" horiz-adv-x="251" 
d="M156 115l-129 185l129 184h66l-104 -184l104 -185h-66z" />
    <glyph glyph-name="guilsinglright" unicode="&#x203a;" horiz-adv-x="251" 
d="M29 115l104 185l-104 184h66l130 -184l-130 -185h-66z" />
    <glyph glyph-name="exclamdbl" unicode="&#x203c;" horiz-adv-x="419" 
d="M151 475q-10 -212 -16 -318h-57q-3 79 -11 237l-12 236h104zM341 312l-8 -155h-57l-1 22q-8 157 -22 451h104q-6 -106 -16 -318zM61 0v99h93v-99h-93zM259 0v99h93v-99h-93z" />
    <glyph glyph-name="uni203E" unicode="&#x203e;" horiz-adv-x="460" 
d="M0 776h461v-49h-461v49z" />
    <glyph glyph-name="fraction" unicode="&#x2044;" horiz-adv-x="126" 
d="M223 642h57l-382 -653h-58z" />
    <glyph glyph-name="uni207F" unicode="&#x207f;" horiz-adv-x="275" 
d="M243 574v-235h-54v232q0 31 -11 43.5t-32 12.5q-25 0 -42 -23.5t-17 -63.5v-201h-55v330h43l7 -37q12 22 33 33t47 11q81 0 81 -102z" />
    <glyph glyph-name="franc" unicode="&#x20a3;" horiz-adv-x="464" 
d="M362 315q-25 -27 -25 -87v-228h-76v280h-125v-280h-81v630h311v-73h-230v-204h125v63h57l11 -63h5q10 32 30 53t52 21q13 0 22.5 -3t12.5 -4v-78h-25q-39 0 -64 -27z" />
    <glyph glyph-name="lira" unicode="&#x20a4;" horiz-adv-x="419" 
d="M380 464v-13h-75v15q0 108 -73 108q-72 0 -72 -101v-84h122v-67h-122v-45h122v-66h-122l-9 -138h229v-73h-352v73h55v138h-65v66h65v45h-65v67h65v70q0 90 39 136.5t110 46.5q148 0 148 -178z" />
    <glyph glyph-name="peseta" unicode="&#x20a7;" horiz-adv-x="876" 
d="M342 591q48 -39 58 -107h25l17 134h59v-134h137q28 11 66 11q66 0 102.5 -38t36.5 -95l-1 -18h-78v9q0 32 -15.5 53t-51.5 21t-50.5 -19.5t-14.5 -45.5q0 -30 21.5 -45.5t66.5 -30.5q41 -14 67.5 -28.5t45.5 -43.5t19 -76q0 -75 -42 -112t-112 -37q-93 0 -131 59v-44
q-10 -6 -25.5 -9.5t-29.5 -3.5q-46 0 -66.5 29.5t-20.5 72.5v323h-24q-8 -72 -57.5 -115t-128.5 -43h-69v-258h-82v630h151q79 0 127 -39zM146 332h66q49 0 78 30.5t29 82.5t-27.5 82t-79.5 30h-66v-225zM501 100q0 -44 39 -44h21q-18 30 -18 75v20h79v-10q0 -43 22 -64
t57 -21q32 0 52 18.5t20 52.5q0 26 -12.5 42.5t-31 26t-51.5 21.5q-41 15 -65.5 28.5t-42 40.5t-17.5 71q0 34 12 59h-64v-316z" />
    <glyph glyph-name="Euro" unicode="&#x20ac;" horiz-adv-x="419" 
d="M392 632v-65q-22 7 -50 7q-69 0 -119.5 -42t-68.5 -124h185v-61h-193q-1 -10 -1 -32t1 -32h193v-59h-185q18 -84 68.5 -126t119.5 -42q22 0 50 7v-65q-36 -9 -61 -9q-104 0 -170 61t-86 174h-57v59h51q-1 10 -1 32t1 32h-51v61h57q20 112 86 173t170 61q32 0 61 -10z" />
    <glyph glyph-name="uni20B9" unicode="&#x20b9;" horiz-adv-x="406" 
d="M364 573h-116q36 -35 44 -91h72v-60h-70q-7 -69 -54 -114.5t-128 -49.5l198 -258h-96l-191 258v74h81q41 0 69 24.5t36 65.5h-186v60h185q-8 42 -34.5 66t-69.5 24h-81v60h341v-59z" />
    <glyph glyph-name="uni2105" unicode="&#x2105;" horiz-adv-x="697" 
d="M245.5 606q25.5 -36 25.5 -108h-63q0 47 -9.5 67.5t-34.5 20.5q-56 0 -56 -112v-23q0 -110 56 -110q25 0 35.5 21.5t10.5 65.5h61q0 -62 -26.5 -102.5t-80.5 -40.5q-62 0 -91 43t-29 136q0 91 29.5 134.5t90.5 43.5q56 0 81.5 -36zM123 -11l381 653h58l-382 -653h-57z
M621.5 301q31.5 -44 31.5 -135q0 -90 -31.5 -133.5t-93.5 -43.5q-61 0 -91.5 43.5t-30.5 133.5q0 179 122 179q62 0 93.5 -44zM469 178v-23q0 -111 59 -111q62 0 62 111v23q0 111 -62 111q-59 0 -59 -111z" />
    <glyph glyph-name="uni2113" unicode="&#x2113;" horiz-adv-x="321" 
d="M153 83.5q22 -31.5 58 -31.5t64 28v-68q-35 -23 -75 -23q-67 0 -98 45.5t-33 120.5v13q-6 -6 -15.5 -14.5t-16.5 -15.5v64q10 9 31 32v233q0 109 35.5 159t86.5 50q47 0 71.5 -39t24.5 -102q0 -148 -155 -318v-35q0 -67 22 -98.5zM131 292q103 137 103 244q0 81 -43 81
q-25 0 -42.5 -36t-17.5 -114v-175z" />
    <glyph glyph-name="uni2116" unicode="&#x2116;" horiz-adv-x="809" 
d="M743 597.5q31 -44.5 31 -136.5t-31 -136.5t-93 -44.5t-93 44.5t-31 136.5t31 136.5t93 44.5t93 -44.5zM408 0l-237 401q-10 17 -23 46.5t-17 39.5l-3 -1q0 -10 1.5 -35.5t1.5 -49.5v-401h-72v630h70l234 -396q8 -15 21 -44.5t17 -39.5l4 1q-1 10 -2.5 36t-1.5 47v396h73
v-630h-66zM592 472v-24q0 -55 14.5 -83t43.5 -28q58 0 58 111v24q0 112 -58 112t-58 -112zM537 186v56h227v-56h-227z" />
    <glyph glyph-name="trademark" unicode="&#x2122;" horiz-adv-x="754" 
d="M223 260h-48v326h-101v44h248v-44h-99v-326zM617 568h-3l-82 -309h-43l-80 309h-3v-309h-44v371h73l77 -296h4l77 296h72v-371h-48v309z" />
    <glyph glyph-name="uni2126" unicode="&#x2126;" horiz-adv-x="706" 
d="M105 0zM536 559.5q65 -82.5 65 -244.5q0 -156 -85 -241q10 1 28 2t34 1h23v-77h-218v56q64 14 99 70t35 151v61q0 113 -43.5 171t-120.5 58t-120.5 -58t-43.5 -171v-57q0 -97 35 -153.5t98 -71.5v-56h-217v77h23l29 -1q18 -2 32 -2q-84 84 -84 241q0 162 65 244.5
t183 82.5t183 -82.5z" />
    <glyph glyph-name="estimated" unicode="&#x212e;" horiz-adv-x="551" 
d="M403.5 461.5q53.5 -33.5 82 -93t28.5 -135.5v-5h-374v-152q54 -48 138 -48q60 0 105 26.5t69 73.5l32 -20q-30 -56 -83 -87.5t-123 -31.5q-72 0 -125.5 32.5t-82 89.5t-28.5 130q0 74 28.5 131.5t82 90t125.5 32.5t125.5 -33.5zM140 407v-141h275v140q-55 50 -137 50
q-83 0 -138 -49z" />
    <glyph glyph-name="oneeighth" unicode="&#x215b;" horiz-adv-x="629" 
d="M487 642h56l-381 -653h-58zM225 261h-197v53h72v237h-73v40q21 3 52 14.5t52 24.5h26v-316h68v-53zM560 344.5q26 -30.5 26 -77.5q0 -24 -10 -45t-28 -36q24 -14 34 -35t10 -50q0 -49 -26 -80.5t-78 -31.5q-54 0 -80 31.5t-26 80.5q0 29 11 51.5t32 34.5q-36 31 -36 80
q0 47 26 77.5t73 30.5q46 0 72 -30.5zM457.5 307q-11.5 -14 -11.5 -40q0 -25 11.5 -40t30.5 -15q18 0 29 15t11 40q0 26 -11 40t-29 14q-19 0 -30.5 -14zM452 144.5q-12 -15.5 -12 -43.5t12 -43t36 -15q23 0 35 15t12 43t-12 43.5t-35 15.5q-24 0 -36 -15.5z" />
    <glyph glyph-name="threeeighths" unicode="&#x215c;" horiz-adv-x="629" 
d="M215.5 614q27.5 -28 27.5 -78q0 -30 -11 -49.5t-32 -32.5q22 -11 36 -34t14 -54q0 -51 -29 -80t-76 -29q-52 0 -81 30.5t-29 83.5v11h60v-13q0 -60 45 -60q24 0 37.5 15t13.5 44q0 57 -52 57h-32v53h33q20 0 33 14t13 42q0 27 -12.5 41.5t-29.5 14.5q-19 0 -31.5 -15
t-12.5 -44v-12h-57v17q0 48 27.5 77t71.5 29q46 0 73.5 -28zM99 -11l381 653h58l-382 -653h-57zM560 344.5q26 -30.5 26 -77.5q0 -24 -10 -45t-28 -36q24 -14 34 -35t10 -50q0 -49 -26 -80.5t-78 -31.5q-54 0 -80 31.5t-26 80.5q0 29 11 51.5t32 34.5q-36 31 -36 80
q0 47 26 77.5t73 30.5q46 0 72 -30.5zM457.5 307q-11.5 -14 -11.5 -40q0 -25 11.5 -40t30.5 -15q18 0 29 15t11 40q0 26 -11 40t-29 14q-19 0 -30.5 -14zM452 144.5q-12 -15.5 -12 -43.5t12 -43t36 -15q23 0 35 15t12 43t-12 43.5t-35 15.5q-24 0 -36 -15.5z" />
    <glyph glyph-name="fiveeighths" unicode="&#x215d;" horiz-adv-x="629" 
d="M485 642h57l-382 -653h-58zM98 479q21 25 57 25q40 0 65.5 -31.5t25.5 -90.5q0 -63 -28 -97.5t-79 -34.5q-49 0 -78.5 32.5t-29.5 88.5h59q0 -31 14 -49t35 -18q22 0 35 20t13 58q0 33 -11.5 51.5t-31.5 18.5q-30 0 -50 -39l-52 9l12 208h178v-58h-129zM566 344.5
q26 -30.5 26 -77.5q0 -24 -10 -45t-28 -36q24 -14 34 -34.5t10 -50.5q0 -49 -26 -80.5t-78 -31.5q-54 0 -80 31.5t-26 80.5q0 29 11 51.5t33 34.5q-37 32 -37 80q0 47 26.5 77.5t72.5 30.5t72 -30.5zM463.5 307q-11.5 -14 -11.5 -40q0 -25 11.5 -40t30.5 -15t30 15t11 40
q0 26 -11 40t-30 14t-30.5 -14zM458.5 144q-12.5 -16 -12.5 -43q0 -28 12.5 -43t35.5 -15t35 15t12 43t-12 43.5t-35 15.5t-35.5 -16z" />
    <glyph glyph-name="seveneighths" unicode="&#x215e;" horiz-adv-x="629" 
d="M87 -11l383 653h57l-381 -653h-59zM192 447q-31 -75 -31 -151l1 -33h-63q0 147 100 310h-145v57h217v-34q-48 -74 -79 -149zM570 344.5q26 -30.5 26 -77.5q0 -24 -10 -45t-28 -36q24 -14 34 -35t10 -50q0 -49 -26 -80.5t-79 -31.5t-79 31.5t-26 80.5q0 28 11.5 50.5
t32.5 35.5q-37 32 -37 80q0 47 26 77.5t72 30.5q47 0 73 -30.5zM467 307q-11 -14 -11 -40q0 -25 11 -40t30 -15t30.5 15t11.5 40q0 26 -11.5 40t-30.5 14t-30 -14zM461.5 144q-12.5 -16 -12.5 -43q0 -28 12.5 -43t35.5 -15t35 15t12 43t-12 43.5t-35 15.5t-35.5 -16z" />
    <glyph glyph-name="arrowleft" unicode="&#x2190;" horiz-adv-x="919" 
d="M883 199h-678l53 -126h-39l-181 150v18l181 151h39l-53 -127h678v-66z" />
    <glyph glyph-name="arrowup" unicode="&#x2191;" horiz-adv-x="460" 
d="M264 487v-678h-67v678l-126 -54v38l149 182h20l150 -182v-38z" />
    <glyph glyph-name="arrowright" unicode="&#x2192;" horiz-adv-x="919" 
d="M701 73h-40l55 126h-679v66h679l-55 127h40l181 -151v-18z" />
    <glyph glyph-name="arrowdown" unicode="&#x2193;" horiz-adv-x="460" 
d="M390 -10l-150 -181h-20l-149 181v38l126 -53v678h67v-678l126 53v-38z" />
    <glyph glyph-name="arrowboth" unicode="&#x2194;" horiz-adv-x="919" 
d="M701 73h-40l55 126h-506l48 -126h-39l-181 150v18l181 151h39l-48 -127h506l-55 127h40l181 -151v-18z" />
    <glyph glyph-name="arrowupdn" unicode="&#x2195;" horiz-adv-x="460" 
d="M263 483v-506l126 53v-38l-150 -181h-20l-149 181v38l126 -53v506l-126 -49v38l149 182h20l150 -182v-38z" />
    <glyph glyph-name="arrowupdnbse" unicode="&#x21a8;" horiz-adv-x="460" 
d="M263 483v-506l126 53v-38l-150 -181h-20l-149 181v38l126 -53v506l-126 -49v38l149 182h20l150 -182v-38zM69 -234h322v-45h-322v45z" />
    <glyph glyph-name="partialdiff" unicode="&#x2202;" horiz-adv-x="454" 
d="M301.5 641.5q44.5 -34.5 71.5 -107t27 -181.5q0 -172 -52 -268t-148 -96q-70 0 -109 57t-39 141q0 68 23 119.5t60.5 79t80.5 27.5q40 0 68 -20.5t39 -43.5h5q1 6 1 32q0 65 -17.5 118t-48.5 83.5t-69 30.5q-49 0 -89 -32v68q45 27 99 27q53 0 97.5 -34.5zM178.5 329
q-22.5 -23 -35.5 -61.5t-13 -82.5q0 -59 20 -94t56 -35q46 0 77.5 64.5t37.5 154.5q-9 30 -34 53.5t-59 23.5q-27 0 -49.5 -23z" />
    <glyph glyph-name="uni2206" unicode="&#x2206;" horiz-adv-x="514" 
d="M15 0zM503 0h-488v35l192 595h104l192 -595v-35zM107 77h293l-142 465h-3z" />
    <glyph glyph-name="product" unicode="&#x220f;" horiz-adv-x="757" 
d="M582 -118h-73v709h-261v-709h-75v709h-75v74h561v-74h-77v-709z" />
    <glyph glyph-name="summation" unicode="&#x2211;" horiz-adv-x="655" 
d="M199 590l241 -301l-261 -322v-3h429v-82h-528v59l266 334l-258 328v62h505v-72h-394v-3z" />
    <glyph glyph-name="minus" unicode="&#x2212;" horiz-adv-x="440" 
d="M40 274h360v-78h-360v78z" />
    <glyph glyph-name="uni2215" unicode="&#x2215;" horiz-adv-x="86" 
d="M220 642h58l-382 -653h-58z" />
    <glyph glyph-name="uni2219" unicode="&#x2219;" horiz-adv-x="210" 
d="M58 265zM58 367h93v-102h-93v102z" />
    <glyph glyph-name="radical" unicode="&#x221a;" horiz-adv-x="504" 
d="M168 134l-52 135l-70 -28l-18 56l149 63q38 -110 69 -189q41 -112 47 -130q8 -20 20 -69l126 816h64l-148 -924h-83q-70 180 -104 270z" />
    <glyph glyph-name="infinity" unicode="&#x221e;" horiz-adv-x="655" 
d="M574.5 375.5q37.5 -40.5 37.5 -101.5q0 -62 -37 -102.5t-99 -40.5q-45 0 -79.5 23t-68.5 64q-36 -41 -71 -64t-79 -23q-61 0 -97.5 40.5t-36.5 102.5q0 61 37 101.5t98 40.5q43 0 78 -23.5t71 -64.5q34 41 68.5 64.5t78.5 23.5q62 0 99.5 -40.5zM131 324q-20 -22 -20 -53
t19.5 -52.5t47.5 -21.5t52.5 19.5t53.5 57.5q-28 35 -53 53.5t-52 18.5q-28 0 -48 -22zM423 327.5q-24 -18.5 -54 -53.5q29 -37 54 -57t53 -20t47.5 21.5t19.5 52.5t-20 53t-48 22t-52 -18.5z" />
    <glyph glyph-name="orthogonal" unicode="&#x221f;" horiz-adv-x="900" 
d="M737 0h-575v574h69v-514h506v-60z" />
    <glyph glyph-name="intersection" unicode="&#x2229;" horiz-adv-x="664" 
d="M453.5 590.5q55.5 -31.5 88 -89t32.5 -132.5v-369h-68v363q0 59 -23.5 104t-63 69.5t-88.5 24.5t-89 -24.5t-63.5 -69.5t-23.5 -104v-363h-67v369q0 75 32.5 132.5t88 89t122.5 31.5t122.5 -31.5z" />
    <glyph glyph-name="integral" unicode="&#x222b;" horiz-adv-x="252" 
d="M149 693q4 -93 15 -362.5t11 -357.5q0 -60 -38 -81.5t-107 -21.5v47q37 0 57.5 12t20.5 41q-4 92 -14.5 360t-10.5 356q0 60 38.5 81.5t107.5 21.5v-44q-80 0 -80 -52z" />
    <glyph glyph-name="approxequal" unicode="&#x2248;" horiz-adv-x="504" 
d="M455 279.5q-16 -17.5 -44.5 -32.5t-66.5 -15q-22 0 -42 7t-49 21q-28 14 -49.5 21.5t-44.5 7.5q-33 0 -61.5 -15.5t-47 -33.5t-18.5 -20v87q0 3 16.5 20.5t44.5 32.5t66 15q22 0 43 -7t49 -21q27 -14 48.5 -21.5t44.5 -7.5q33 0 61 15t47 33t19 20v-86q0 -3 -16 -20.5z
M455 83.5q-16 -17.5 -44.5 -33t-66.5 -15.5q-22 0 -43 7.5t-48 21.5q-32 15 -52 22t-42 7q-33 0 -61.5 -15t-47 -33t-18.5 -20v86q0 3 16.5 20.5t44.5 32.5t66 15q22 0 43 -7t49 -21t49 -21t44 -7q33 0 61 15t47 32.5t19 19.5v-86q0 -3 -16 -20.5z" />
    <glyph glyph-name="notequal" unicode="&#x2260;" horiz-adv-x="504" 
d="M436 292h-123l-60 -118h183v-76h-222l-37 -75h-56l37 75h-83v76h122l60 118h-182v77h221l39 76h56l-38 -76h83v-77z" />
    <glyph glyph-name="equivalence" unicode="&#x2261;" horiz-adv-x="440" 
d="M40 474h360v-77h-360v77zM40 279h360v-77h-360v77zM40 83h360v-77h-360v77z" />
    <glyph glyph-name="lessequal" unicode="&#x2264;" horiz-adv-x="504" 
d="M432 178v-82l-360 180v98l360 181v-83l-285 -146zM73 76h360v-76h-360v76z" />
    <glyph glyph-name="greaterequal" unicode="&#x2265;" horiz-adv-x="504" 
d="M73 96v82l286 148l-286 146v83l360 -181v-98zM72 76h360v-76h-360v76z" />
    <glyph glyph-name="house" unicode="&#x2302;" horiz-adv-x="551" 
d="M69 0v285l207 233l207 -233v-285h-414zM424 55v209l-148 167l-148 -167v-209h296z" />
    <glyph glyph-name="revlogicalnot" unicode="&#x2310;" horiz-adv-x="440" 
d="M113 181h-78v235h365v-85h-287v-150z" />
    <glyph glyph-name="integraltp" unicode="&#x2320;" horiz-adv-x="555" 
d="M304 693l15 -923h-68q-13 752 -13 916q0 60 38.5 81.5t107.5 21.5v-44q-80 0 -80 -52z" />
    <glyph glyph-name="integralbt" unicode="&#x2321;" horiz-adv-x="555" 
d="M317 -127q0 -59 -38.5 -81t-106.5 -22v45q80 0 80 53q-2 82 -6.5 336.5t-9.5 584.5h69q12 -808 12 -916z" />
    <glyph glyph-name="lozenge" unicode="&#x25ca;" horiz-adv-x="514" 
d="M207 0l-101 315l101 315h104l102 -315l-102 -315h-104zM255 542l-72 -227l72 -226h3l70 226l-70 227h-3z" />
    <glyph glyph-name="uni25CC" unicode="&#x25cc;" horiz-adv-x="456" 
d="M209 446v-39q-58 -8 -98 -39l-29 26q58 46 127 52zM248 407v39q72 -6 126 -52l-29 -26q-41 31 -97 39zM53 368l28 -29q-35 -40 -41 -96h-40q6 71 53 125zM374 340l27 28q47 -52 55 -125h-40q-4 54 -42 97zM0 207h40q5 -58 38 -101l-27 -29q-45 53 -51 130zM406 77l-30 28
q36 47 40 102h40q-6 -77 -50 -130zM78 51l26 26q48 -38 105 -42v-39q-70 6 -131 55zM248 -4v39q54 4 102 42l26 -26q-58 -49 -128 -55z" />
    <glyph glyph-name="uniA8E0" unicode="&#xa8e0;" horiz-adv-x="0" 
d="M-61 817q18 -16 18 -45q0 -30 -18 -45.5t-52 -15.5q-35 0 -53.5 15.5t-18.5 45.5q0 29 18.5 45t53.5 16q34 0 52 -16zM-136.5 796.5q-8.5 -7.5 -8.5 -20.5v-7q0 -14 8.5 -21.5t23.5 -7.5q30 0 30 29v7q0 13 -8 20.5t-22 7.5q-15 0 -23.5 -7.5z" />
    <glyph glyph-name="uniA8E1" unicode="&#xa8e1;" horiz-adv-x="0" 
d="M-68.5 707.5q5.5 -6.5 5.5 -12.5q0 -3 -2 -9l-3 -9h-35v5q0 15 -18 27l-44 31v22q37 9 55 27q-28 1 -45 12t-17 29t16 28.5t43 10.5q26 0 42 -11.5t16 -33.5q0 -25 -18.5 -45t-45.5 -32l32 -22q13 -11 18.5 -17.5zM-124.5 819q6.5 -4 18.5 -4h10q1 2 1 7q0 19 -18 19
q-9 0 -13.5 -3.5t-4.5 -8.5q0 -6 6.5 -10z" />
    <glyph glyph-name="uniA8E2" unicode="&#xa8e2;" horiz-adv-x="0" 
d="M-62 850.5q16 -17.5 16 -54.5q0 -38 -16 -56t-49 -18q-17 0 -28 4v-49h-38v101h42q0 -14 5 -20.5t16 -6.5q26 0 26 39v11q0 38 -26 38q-12 0 -17 -6.5t-5 -20.5h-40q-1 4 -1 11q0 22 17.5 33.5t47.5 11.5q34 0 50 -17.5z" />
    <glyph glyph-name="uniA8E3" unicode="&#xa8e3;" horiz-adv-x="0" 
d="M-40 752q0 -20 -17.5 -32t-45.5 -12q-17 0 -30 5v-36h-38v87h38v-6q0 -22 26 -22q11 0 18 5t7 15q0 20 -30 20h-10v27h11q24 0 24 20q0 17 -20 17q-22 0 -22 -19v-7h-41q-1 4 -1 12q0 19 17 31t47 12q27 0 44.5 -11t17.5 -31q0 -24 -32 -36v-1q37 -8 37 -38z" />
    <glyph glyph-name="uniA8E4" unicode="&#xa8e4;" horiz-adv-x="0" 
d="M-41 810q0 -33 -32 -44q14 -5 21 -16.5t7 -25.5q0 -21 -17 -35.5t-48 -14.5q-32 0 -49 14.5t-17 35.5q0 14 7.5 25.5t20.5 16.5q-32 11 -32 44v56h43v-58q0 -27 27 -27q28 0 28 27v58h41v-56zM-134 727q0 -25 24 -25q25 0 25 25t-25 25q-24 0 -24 -25z" />
    <glyph glyph-name="uniA8E5" unicode="&#xa8e5;" horiz-adv-x="0" 
d="M-53 787v-110h-37v38q-12 -8 -35 -8q-65 0 -65 74q0 20 5.5 40t20.5 45h43q-29 -47 -29 -88q0 -36 31 -36q15 0 22 8.5t7 31.5v5h37z" />
    <glyph glyph-name="uniA8E6" unicode="&#xa8e6;" horiz-adv-x="0" 
d="M-76 677l-10 41q-14 -10 -41 -10q-28 0 -45.5 12t-17.5 32q0 30 37 38v1q-32 12 -32 36q0 20 17.5 31t44.5 11q30 0 47 -12t17 -31q0 -8 -1 -12h-41v7q0 19 -22 19q-19 0 -19 -17q0 -20 23 -20h11v-27h-10q-30 0 -30 -20q0 -10 7 -15t18 -5q26 0 26 22v6h38l21 -87h-38z
" />
    <glyph glyph-name="uniA8E7" unicode="&#xa8e7;" horiz-adv-x="0" 
d="M-42.5 818q13.5 -15 13.5 -48q0 -46 -23.5 -71t-67.5 -25q-41 0 -63.5 22.5t-22.5 63.5q0 42 26 106h44q-29 -63 -29 -105q0 -27 12.5 -40.5t36.5 -13.5q35 0 44 36h-8q-27 0 -44 12t-17 34q0 21 15 32.5t42 11.5q28 0 41.5 -15zM-69 769v4q0 19 -3.5 25.5t-11.5 6.5
q-17 0 -17 -17q0 -19 25 -19h7z" />
    <glyph glyph-name="uniA8E8" unicode="&#xa8e8;" horiz-adv-x="0" 
d="M-58 866q-89 -89 -89 -131q0 -13 9 -20t24 -7q14 0 23 6.5t9 16.5v7h40q2 -6 2 -15q0 -21 -20 -35t-55 -14q-34 0 -54.5 14.5t-20.5 43.5q0 33 22.5 69t56.5 65h53z" />
    <glyph glyph-name="uniA8E9" unicode="&#xa8e9;" horiz-adv-x="0" 
d="M-66.5 715.5q9.5 -9.5 9.5 -20.5q0 -6 -4 -18h-36v7q0 10 -7.5 17t-25.5 19q-36 23 -48 44.5t-12 42.5q0 31 17 46.5t48 15.5q30 0 47.5 -13t17.5 -39q0 -25 -18 -41t-46 -18q11 -11 29 -22q19 -11 28.5 -20.5zM-144 833q-7 -8 -7 -23q0 -12 5 -24h10q17 0 26.5 8t9.5 22
q0 11 -6 18t-19 7q-12 0 -19 -8z" />
    <glyph glyph-name="uniA8EA" unicode="&#xa8ea;" horiz-adv-x="0" 
d="M-50 830h-31v-153h-41v63h-42v-4q0 -22 -17.5 -35t-49.5 -13q-29 0 -45 12t-16 30q0 6 1 10h41v-5q0 -17 21 -17q11 0 16.5 4.5t5.5 16.5q0 24 -26 24h-12v28h13q10 0 16 6.5t6 17.5q0 19 -18 19q-17 0 -17 -14v-7h-42q-1 5 -1 12q0 17 15 27.5t43 10.5q30 0 46 -12
t16 -34q0 -25 -29 -38v-4l9 -3h66v58h-31v30h103v-30z" />
    <glyph glyph-name="uniA8EB" unicode="&#xa8eb;" horiz-adv-x="0" 
d="M-40 830h-25q5 -8 5 -17q0 -11 -7.5 -21.5t-20.5 -14.5v-2q14 -4 22.5 -15t8.5 -26q0 -21 -17 -33.5t-50 -12.5q-31 0 -48.5 12t-17.5 30l1 12h39v-5q0 -9 7 -14t19 -5q26 0 26 20q0 23 -29 23h-13v28h13q13 0 19 6t6 16t-5 14.5t-17 4.5h-81v30h165v-30z" />
    <glyph glyph-name="uniA8EC" unicode="&#xa8ec;" horiz-adv-x="0" 
d="M-92 830v-32q18 9 38 9q27 0 42 -14t15 -43q0 -56 -57 -56l-15 1v31h3q14 0 20 6t6 18q0 14 -5.5 20t-18.5 6q-28 0 -28 -26v-73h-40v26q-16 -9 -38 -9q-57 0 -57 57q0 28 15 42t42 14q22 0 38 -9v32h-111v30h259v-30h-108zM-138 730.5q6 5.5 6 19.5t-6 20t-20 6t-20 -6
t-6 -20q0 -13 6 -19t20 -6t20 5.5z" />
    <glyph glyph-name="uniA8ED" unicode="&#xa8ed;" horiz-adv-x="0" 
d="M-47 830h-33v-153h-41v88h-33v-14q0 -21 -15.5 -34t-40.5 -13q-26 0 -40.5 12.5t-14.5 34.5q0 21 15 33t40 12h89v34h-149v30h223v-30zM-196 765h-14q-7 0 -11.5 -3.5t-4.5 -10.5q0 -16 16 -16q7 0 10.5 4.5t3.5 11.5v14z" />
    <glyph glyph-name="uniA8EE" unicode="&#xa8ee;" horiz-adv-x="0" 
d="M-50 830h-29v-153h-41v43q-14 -8 -34 -8q-26 0 -41 12t-15 34v72h-29v30h189v-30zM-170 830v-67q0 -10 7 -15.5t18 -5.5t18 5t7 13v70h-50z" />
    <glyph glyph-name="uniA8EF" unicode="&#xa8ef;" horiz-adv-x="0" 
d="M-124 751l60 -74h-43l-65 82v23h23q30 0 30 25v23h-72v30h144v-30h-31v-20q0 -51 -46 -59z" />
    <glyph glyph-name="uniA8F0" unicode="&#xa8f0;" horiz-adv-x="0" 
d="M-44 830h-33v-153h-41v26q-16 -9 -37 -9q-57 0 -57 57q0 28 15 42t42 14q21 0 37 -9v32h-131v-153h-40v153h-33v30h33v10q0 19 18 37.5t70 18.5q46 0 124 -18v-29q-73 16 -125 16q-27 0 -37 -7t-10 -23v-5h205v-30zM-124 730.5q6 5.5 6 19.5t-6 20t-20 6q-26 0 -26 -26
q0 -25 26 -25q14 0 20 5.5z" />
    <glyph glyph-name="uniA8F1" unicode="&#xa8f1;" horiz-adv-x="0" 
d="M-122 830q-18 0 -18 -16q0 -9 7.5 -14.5t26.5 -15.5q26 -12 40.5 -25.5t14.5 -36.5q0 -48 -69 -48q-31 0 -48.5 11t-17.5 26q0 11 2 15h40v-5q0 -17 25 -17q26 0 26 19q0 11 -9.5 18.5t-27.5 15.5q-26 14 -39 25t-13 32q0 22 16 34t45 12h77v-30h-78z" />
    <glyph glyph-name="uniA8F2" unicode="&#xa8f2;" horiz-adv-x="389" 
d="M37 457zM152 679h86v-94h-86v94zM308.5 497q-44.5 -40 -114.5 -40q-69 0 -113 40t-44 102h72q0 -88 85 -88q86 0 86 88h73q0 -62 -44.5 -102z" />
    <glyph glyph-name="uniA8F3" unicode="&#xa8f3;" horiz-adv-x="389" 
d="M37 223zM152 679h86v-94h-86v94zM308.5 497q-44.5 -40 -114.5 -40q-69 0 -113 40t-44 102h72q0 -88 85 -88q86 0 86 88h73q0 -62 -44.5 -102zM91 386l234 -95v-68l-234 90v73z" />
    <glyph glyph-name="uniA8F4" unicode="&#xa8f4;" horiz-adv-x="389" 
d="M37 0zM152 679h86v-94h-86v94zM308.5 497q-44.5 -40 -114.5 -40q-69 0 -113 40t-44 102h72q0 -88 85 -88q86 0 86 88h73q0 -62 -44.5 -102zM152 436h86v-94h-86v94zM308.5 254q-44.5 -40 -114.5 -40q-69 0 -113 40t-44 102h72q0 -88 85 -88q86 0 86 88h73
q0 -62 -44.5 -102zM91 151l234 -95v-68l-234 90v73z" />
    <glyph glyph-name="uniA8F5" unicode="&#xa8f5;" horiz-adv-x="389" 
d="M238 585h-86v94h86v-94zM81 497q-44 40 -44 102h72q0 -88 85 -88q86 0 86 88h73q0 -62 -44.5 -102t-114.5 -40q-69 0 -113 40zM296 360.5q33 -38.5 33 -121.5t-31.5 -122t-98.5 -39q-32 0 -56 9l-1 -87h-73v201h76q0 -28 11 -41.5t36 -13.5q58 0 58 82v22q0 38 -14.5 60
t-43.5 22q-45 0 -45 -55h-75q-2 14 -2 20q0 46 33.5 74t88.5 28q71 0 104 -38.5z" />
    <glyph glyph-name="uniA8F6" unicode="&#xa8f6;" horiz-adv-x="389" 
d="M238 585h-86v94h86v-94zM81 497q-44 40 -44 102h72q0 -88 85 -88q86 0 86 88h73q0 -62 -44.5 -102t-114.5 -40q-69 0 -113 40zM299.5 197.5q17.5 -21.5 17.5 -52.5q0 -45 -34 -71.5t-89 -26.5q-36 0 -65 13v-60h-73v166h77v-11q0 -20 14 -31.5t38 -11.5q23 0 38 11t15 30
q0 20 -16 30t-41 10h-26v65h27q17 0 31 11.5t14 28.5t-11.5 26.5t-28.5 9.5q-19 0 -32.5 -10.5t-13.5 -29.5v-9h-79v5q0 52 33.5 80.5t91.5 28.5q54 0 86.5 -24t32.5 -67q0 -57 -55 -77v-4q31 -8 48.5 -29.5z" />
    <glyph glyph-name="uniA8F7" unicode="&#xa8f7;" horiz-adv-x="389" 
d="M152 679h86v-94h-86v94zM308.5 497q-44.5 -40 -114.5 -40q-69 0 -113 40t-44 102h72q0 -88 85 -88q86 0 86 88h73q0 -62 -44.5 -102zM346 335h-173q-52 0 -52 -33q0 -15 14 -28t53 -31l44 -19q63 -28 88 -55.5t25 -67.5q0 -55 -38 -83.5t-111 -28.5q-70 0 -113 28t-43 83
q0 15 3 27h71v-26q0 -24 19 -35t60 -11t59 10t18 32q0 20 -16.5 34.5t-60.5 33.5l-39 18q-60 27 -84 51.5t-24 63.5q0 49 32.5 76t94.5 27h173v-66z" />
    <glyph glyph-name="uniA8F8" unicode="&#xa8f8;" horiz-adv-x="594" 
d="M514.5 461q33.5 -43 33.5 -128q0 -83 -34.5 -146.5t-99 -98.5t-150.5 -35q-87 0 -144 36.5t-57 103.5q0 30 11.5 55.5t33.5 43.5q-62 30 -62 99q0 55 39 84t102 29h63v-66h-64q-27 0 -44 -13t-17 -38q0 -58 88 -58h37v-59h-33q-33 0 -54 -18.5t-21 -48.5q0 -40 35 -60.5
t89 -20.5q62 0 108 26t71.5 72t25.5 106v24q0 45 -10 68.5t-36 23.5q-40 0 -40 -62v-13h-67q-4 12 -4 31q0 51 30.5 78.5t74.5 27.5q62 0 95.5 -43z" />
    <glyph glyph-name="uniA8F9" unicode="&#xa8f9;" horiz-adv-x="576" 
d="M497 461q33 -43 33 -128q0 -83 -34.5 -146.5t-99 -98.5t-150.5 -35t-143 38.5t-57 110.5q0 60 42.5 98.5t111.5 38.5h32v-69h-32q-33 0 -54 -18.5t-21 -48.5q0 -40 35 -60.5t89 -20.5q61 0 107.5 26t71.5 72t25 106v24q0 45 -10 68.5t-35 23.5q-41 0 -41 -62v-13h-66
q-5 10 -5 31q0 51 30.5 78.5t74.5 27.5q63 0 96 -43z" />
    <glyph glyph-name="uniA8FA" unicode="&#xa8fa;" horiz-adv-x="191" 
d="M212 860l-87 -260h-58l-88 260h68l49 -172l49 172h67z" />
    <glyph glyph-name="uniA8FB" unicode="&#xa8fb;" horiz-adv-x="419" 
d="M0 812zM0 860h418v-48h-418v48z" />
    <glyph glyph-name="NULL" horiz-adv-x="0" 
 />
    <glyph glyph-name="uni09080902" horiz-adv-x="433" 
d="M443 630v-67h-82v-157h-158q-26 0 -44 -13.5t-18 -38.5q0 -47 60 -47h38q72 0 111 -34t39 -96q0 -66 -41 -101t-109 -35q-53 0 -91 23v-101h-75v235h75v-10q0 -41 23 -61t60 -20q35 0 57 18.5t22 52.5q0 60 -76 60h-30q-69 0 -105.5 31t-36.5 87q0 59 39.5 87.5
t105.5 28.5h78v91h-295v67h280q-31 53 -31 103q0 56 42 91.5t106 35.5q17 0 21 -1v-67h-4q-43 -1 -66.5 -20.5t-23.5 -54.5q0 -39 27 -87h102zM470 754v-84h-77v84h77z" />
    <glyph glyph-name="iMatra_basedeva" 
d="M542 838.5q36 -40.5 36 -100.5l-62 -5q0 33 -21.5 59t-68.5 38q-30 9 -77 9h-19q-46 0 -77 -7q-56 -13 -79 -45.5t-23 -84.5v-72h87v-67h-86v-563h-76v563h-86v67h86v82q0 71 38 117.5t116 64.5q47 12 109 12q55 0 102 -11q65 -16 101 -56.5z" />
    <glyph glyph-name="uni093F0901" 
d="M694 841h-86v94h86v-94zM809 855q0 -62 -44.5 -102t-114.5 -40q-32 0 -59 9q0 -16 -1 -22h-74v29q0 34 -21 61t-69 40q-30 9 -77 9h-19q-46 0 -77 -7q-56 -13 -79 -45.5t-23 -84.5v-72h87v-67h-86v-563h-76v563h-86v67h86v82q0 71 38 117.5t116 64.5q47 12 109 12
q55 0 102 -11q54 -12 92 -40h32q0 -27 7 -44q3 -4 7 -12q20 -32 71 -32q86 0 86 88h73z" />
    <glyph glyph-name="uni093F0902" 
d="M0 0zM552 838.5q39 -40.5 39 -100.5q0 -29 -1 -38h-74v29q0 34 -21 61t-69 40q-30 9 -77 9h-19q-46 0 -77 -7q-56 -13 -79 -45.5t-23 -84.5v-72h87v-67h-86v-563h-76v563h-86v67h86v82q0 71 38 117.5t116 64.5q47 12 109 12q55 0 102 -11q72 -16 111 -56.5zM629 906h91
v-99h-91v99z" />
    <glyph glyph-name="uni093F0930094D" 
d="M671 859v-67h-4q-43 -1 -66 -20.5t-23 -54.5q0 -21 8 -47h-58q-13 32 -13 63v11q-2 29 -24 52t-65 34q-30 9 -77 9h-19q-46 0 -77 -7q-56 -13 -79 -45.5t-23 -84.5v-72h87v-67h-86v-563h-76v563h-86v67h86v82q0 71 38 117.5t116 64.5q47 12 109 12q55 0 102 -11
q76 -18 112 -71q38 36 97 36q17 0 21 -1z" />
    <glyph glyph-name="uni093F0930094D0901" 
d="M601 789.5q-23 -22.5 -23 -62.5q0 -23 8 -57h-58q-13 32 -13 63v11q-7 66 -89 86q-30 9 -77 9h-19q-46 0 -77 -7q-56 -13 -79 -45.5t-23 -84.5v-72h87v-67h-86v-563h-76v563h-86v67h86v82q0 71 38 117.5t116 64.5q47 12 109 12q55 0 102 -11q72 -18 108 -65
q19 24 45.5 37.5t55.5 13.5q17 0 21 -1v-67h-4q-43 -1 -66 -23.5zM747 729h-68v74h68v-74zM825 750q0 -46 -32 -74t-81 -28q-47 0 -80.5 28.5t-33.5 73.5h58q0 -31 12 -43.5t44 -12.5q33 0 44 12t11 44h58z" />
    <glyph glyph-name="uni093F0930094D0902" 
d="M601 771.5q-23 -19.5 -23 -54.5q0 -21 8 -47h-58q-13 32 -13 63v11q-2 29 -24 52t-65 34q-30 9 -77 9h-19q-46 0 -77 -7q-56 -13 -79 -45.5t-23 -84.5v-72h87v-67h-86v-563h-76v563h-86v67h86v82q0 71 38 117.5t116 64.5q47 12 109 12q55 0 102 -11q76 -18 112 -71
q38 36 97 36q17 0 21 -1v-67h-4q-43 -1 -66 -20.5zM704 754v-84h-77v84h77z" />
    <glyph glyph-name="uni09400901" 
d="M132 724l10 -94h96v-67h-86v-563h-76v563h-86v67h79l-10 97q-5 54 -19.5 83t-47.5 29q-35 0 -47.5 -29t-12.5 -75v-35h-73q-1 11 -1 45q0 78 36.5 119.5t99.5 41.5q87 0 118 -84q10 -25 24 -37.5t50 -12.5q88 0 88 87h72q0 -63 -44.5 -102t-118.5 -39q-27 0 -51 6z
M228 812h-86v94h86v-94z" />
    <glyph glyph-name="uni09400902" 
d="M238 630v-67h-86v-563h-76v563h-86v67h79l-10 97q-5 54 -19.5 83t-47.5 29q-35 0 -47.5 -29t-12.5 -75v-35h-73q-1 11 -1 45q0 78 36.5 119.5t99.5 41.5q121 0 137 -169l11 -107h96zM257 906v-99h-91v99h91z" />
    <glyph glyph-name="uni09400930094D" 
d="M238 563h-86v-563h-76v563h-86v67h79l-10 97q-5 54 -19.5 83t-47.5 29q-35 0 -47.5 -29t-12.5 -75v-35h-73q-1 11 -1 45q0 78 36.5 119.5t99.5 41.5q92 0 123 -96q12 24 34.5 37t53.5 13q25 0 31 -1v-67h-14q-44 -1 -66 -15.5t-24 -51.5l10 -95h96v-67z" />
    <glyph glyph-name="uni09400930094D0901" 
d="M238 630v-67h-86v-563h-76v563h-86v67h79l-10 97q-5 54 -19.5 83t-47.5 29q-35 0 -47.5 -29t-12.5 -75v-35h-73q-1 11 -1 45q0 78 36.5 119.5t99.5 41.5q87 0 120 -87q11 34 34.5 53t56.5 19q25 0 31 -1v-66h-14q-44 -1 -66.5 -23t-23.5 -75l10 -96h96zM230 803h68v-74
h-68v74zM376 750q0 -46 -32 -74t-81 -28q-47 0 -80.5 28.5t-33.5 73.5h58q0 -31 12 -43.5t44 -12.5q33 0 44 12t11 44h58z" />
    <glyph glyph-name="uni09400930094D0902" 
d="M238 630v-67h-86v-563h-76v563h-86v67h79l-10 97q-5 54 -19.5 83t-47.5 29q-35 0 -47.5 -29t-12.5 -75v-35h-73q-1 11 -1 45q0 78 36.5 119.5t99.5 41.5q92 0 123 -96q12 24 34.5 37t53.5 13q25 0 31 -1v-67h-14q-44 -1 -66 -15.5t-24 -51.5l10 -95h96zM263 754v-84h-77
v84h77z" />
    <glyph glyph-name="uni09490902" 
d="M0 0zM238 563h-86v-563h-76v563h-86v67h248v-67zM71 905h86v-94h-86v94zM227.5 723q-44.5 -40 -114.5 -40q-69 0 -113 40t-44 102h72q0 -88 85 -88q86 0 86 88h73q0 -62 -44.5 -102z" />
    <glyph glyph-name="uni09490930094D" 
d="M238 630v-67h-86v-563h-76v563h-86v67h71q-31 53 -31 103q0 56 42 91.5t106 35.5q17 0 21 -1v-67h-4q-43 -1 -66.5 -20.5t-23.5 -54.5q0 -39 27 -87h106zM381 750q0 -47 -32 -74.5t-92 -27.5q-58 0 -91.5 27.5t-33.5 74.5h69q0 -24 15 -38t41 -14t40.5 14t14.5 38h69z
" />
    <glyph glyph-name="uni09490930094D0902" 
d="M238 630v-67h-86v-563h-76v563h-86v67h88q-31 53 -31 103q0 65 42 106.5t106 41.5q17 0 21 -1v-67h-4q-43 -1 -66.5 -26.5t-23.5 -69.5q0 -39 27 -87h89zM296 729h-68v74h68v-74zM374 750q0 -46 -32 -74t-81 -28q-47 0 -80.5 28.5t-33.5 73.5h58q0 -31 12 -43.5t44 -12.5
q33 0 44 12t11 44h58z" />
    <glyph glyph-name="uni094A0901" 
d="M239 837h-91v99h91v-99zM151 710v-80h87v-67h-86v-563h-76v563h-86v67h86v58q0 22 -11.5 31.5t-36.5 9.5h-174q-64 0 -93 25.5t-29 82.5v23h75v-23q0 -22 11 -31.5t36 -9.5h174q14 0 20 -1q-9 24 -9 52h73q0 -88 81 -88q83 0 83 88h73q0 -63 -43.5 -102.5t-111.5 -39.5
q-21 0 -43 5z" />
    <glyph glyph-name="uni094A0902" 
d="M145 807h-91v99h91v-99zM238 563h-86v-563h-76v563h-86v67h86v58q0 22 -11.5 31.5t-36.5 9.5h-174q-64 0 -93 25.5t-29 82.5v23h75v-23q0 -22 11 -31.5t36 -9.5h174q65 0 94 -25.5t29 -82.5v-58h87v-67z" />
    <glyph glyph-name="uni094A0930094D" 
d="M238 563h-86v-563h-76v563h-86v67h74q-22 36 -28 73q-7 26 -46 26h-136q-64 0 -93 25.5t-29 82.5v23h75v-23q0 -22 11 -31.5t36 -9.5h136q32 0 56 -8q17 33 53 52.5t82 19.5q17 0 21 -1v-67h-4q-43 -1 -66.5 -20.5t-23.5 -54.5q0 -39 27 -87h103v-67z" />
    <glyph glyph-name="uni094A0930094D0901" 
d="M238 630v-67h-86v-563h-76v563h-86v67h74q-22 36 -28 73q-7 26 -46 26h-136q-64 0 -93 25.5t-29 82.5v23h75v-23q0 -22 11 -31.5t36 -9.5h136q32 0 53 -7q15 42 52 67t86 25q17 0 21 -1v-67h-4q-43 -1 -66.5 -26.5t-23.5 -69.5q0 -39 27 -87h103zM282 729h-68v74h68v-74z
M360 750q0 -46 -32 -74t-81 -28q-47 0 -80.5 28.5t-33.5 73.5h58q0 -31 12 -43.5t44 -12.5q33 0 44 12t11 44h58z" />
    <glyph glyph-name="uni094A0930094D0902" 
d="M238 630v-67h-86v-563h-76v563h-86v67h74q-22 36 -28 73q-7 26 -46 26h-136q-64 0 -93 25.5t-29 82.5v23h75v-23q0 -22 11 -31.5t36 -9.5h136q32 0 56 -8q17 33 53 52.5t82 19.5q17 0 21 -1v-67h-4q-43 -1 -66.5 -20.5t-23.5 -54.5q0 -39 27 -87h103zM264 754v-84h-77v84
h77z" />
    <glyph glyph-name="uni094B0901" 
d="M288.5 727q-44.5 -40 -114.5 -40q-29 0 -52 10l18 -67h98v-67h-86v-563h-76v563h-86v67h83l-85 276h76l33 -121q17 -43 77 -43q86 0 86 87h73q0 -62 -44.5 -102zM219 781h-86v94h86v-94z" />
    <glyph glyph-name="uni094B0902" 
d="M238 563h-86v-563h-76v563h-86v67h85l-85 276h76l76 -276h96v-67zM236 743h-91v99h91v-99z" />
    <glyph glyph-name="uni094B0930094D" 
d="M238 563h-86v-563h-76v563h-86v67h85l-116 276h76l52 -158v1q0 51 26 81t74 30q18 0 22 -1v-67h-4q-42 0 -65.5 -18.5t-23.5 -50.5q0 -29 22 -93h100v-67z" />
    <glyph glyph-name="uni094B0930094D0901" 
d="M238 563h-86v-563h-76v563h-86v67h81l-115 276h75l52 -158v1q0 65 26 103.5t73 38.5q19 0 23 -1v-66h-4q-42 0 -65.5 -26.5t-23.5 -74.5q0 -29 22 -93h104v-67zM278 729h-68v74h68v-74zM356 750q0 -46 -32 -74t-81 -28q-47 0 -80.5 28.5t-33.5 73.5h58q0 -31 12 -43.5
t44 -12.5q33 0 44 12t11 44h58z" />
    <glyph glyph-name="uni094B0930094D0902" 
d="M238 563h-86v-563h-76v563h-86v67h85l-116 276h76l52 -158v1q0 51 26 81t74 30q18 0 22 -1v-67h-4q-42 0 -65.5 -18.5t-23.5 -50.5q0 -29 22 -93h100v-67zM253 754v-84h-77v84h77z" />
    <glyph glyph-name="uni094C0901" 
d="M287 727q-44 -40 -113 -40q-29 0 -56 11l19 -68h101v-67h-86v-563h-76v563h-97v67h9l-154 276h76l144 -276h16l-85 276h76l31 -112q15 -52 80 -52q87 0 87 87h72q0 -62 -44 -102zM214 781h-86v94h86v-94z" />
    <glyph glyph-name="uni094C0902" 
d="M238 563h-86v-563h-76v563h-88v67h9l-154 276h76l144 -276h16l-85 276h76l76 -276h92v-67zM236 743h-91v99h91v-99z" />
    <glyph glyph-name="uni094C0930094D" 
d="M253 859v-67h-4q-53 0 -86 -29.5t-31 -79.5l15 -53h91v-67h-86v-563h-76v563h-87v67h9l-154 276h76l144 -276h16l-85 276h76l43 -157q5 51 36 81t80 30q19 0 23 -1z" />
    <glyph glyph-name="uni094C0930094D0901" 
d="M238 563h-86v-563h-76v563h-108v67h19l-189 276h75l171 -276h32l-49 89l-78 187h75l52 -158v1q0 65 26.5 103.5t73.5 38.5q18 0 24 -1v-66h-6q-43 0 -66 -24t-23 -67q0 -30 22 -103h111v-67zM275 729h-68v74h68v-74zM353 750q0 -46 -32 -74t-81 -28q-47 0 -80.5 28.5
t-33.5 73.5h58q0 -31 12 -43.5t44 -12.5q33 0 44 12t11 44h58z" />
    <glyph glyph-name="uni094C0930094D0902" 
d="M238 563h-86v-563h-76v563h-86v67h19l-189 276h75l171 -276h32l-49 89l-78 187h75l52 -158v1q0 50 26.5 80.5t73.5 30.5q18 0 24 -1v-67h-6q-42 0 -65.5 -18.5t-23.5 -50.5q0 -29 22 -93h89v-67zM270 754v-84h-77v84h77z" />
    <glyph glyph-name="uni0940.0" 
d="M238 563h-86v-563h-76v563h-86v67h86v87q0 59 -37 90.5t-132 31.5h-15q-88 0 -126 -32.5t-38 -80.5v-26h-74q-1 9 -1 35q0 83 66.5 127t180.5 44q125 0 188 -47t63 -132v-97h87v-67z" />
    <glyph glyph-name="uni09400901.0" 
d="M132 708l11 -78h95v-67h-86v-563h-76v563h-86v67h78l-14 87q-6 41 -18 66.5t-42.5 40.5t-86.5 15h-15q-88 0 -126 -32.5t-38 -80.5v-26h-74q-1 9 -1 35q0 83 67 127t179 44q91 0 142 -30t73 -90q6 -13 18 -20t36 -7q40 0 62.5 21.5t22.5 66.5h73q0 -63 -44.5 -102.5
t-115.5 -39.5q-16 0 -34 3zM213 807h-91v99h91v-99z" />
    <glyph glyph-name="uni09400902.0" 
d="M238 630v-67h-86v-563h-76v563h-86v67h78l-14 87q-6 41 -18 66.5t-42.5 40.5t-86.5 15h-15q-88 0 -126 -32.5t-38 -80.5v-26h-74q-1 9 -1 35q0 83 67 127t179 44q111 0 164 -44.5t66 -134.5l14 -97h95zM247 906v-99h-91v99h91z" />
    <glyph glyph-name="uni09400930094D.0" 
d="M238 563h-86v-563h-76v563h-86v67h78l-14 87q-6 41 -18 66.5t-42.5 40.5t-86.5 15h-15q-88 0 -126 -32.5t-38 -80.5v-26h-74q-1 9 -1 35q0 83 67 127t179 44q88 0 138.5 -27.5t73.5 -83.5q11 31 35 48t59 17q25 0 31 -1v-67h-14q-46 -1 -68 -17.5t-22 -57.5l2 -23l9 -64
h95v-67z" />
    <glyph glyph-name="uni09400930094D0901.0" 
d="M238 630v-67h-86v-563h-76v563h-86v67h78l-14 87q-6 41 -18 66.5t-42.5 40.5t-86.5 15h-15q-88 0 -126 -32.5t-38 -80.5v-26h-74q-1 9 -1 35q0 83 67 127t179 44q85 0 135.5 -26.5t74.5 -79.5q9 43 33.5 67t62.5 24q25 0 31 -1v-66h-14q-90 0 -90 -102q0 -9 2 -31l9 -61
h95zM230 803h68v-74h-68v74zM376 750q0 -46 -32 -74t-81 -28q-47 0 -80.5 28.5t-33.5 73.5h58q0 -31 12 -43.5t44 -12.5q33 0 44 12t11 44h58z" />
    <glyph glyph-name="uni09400930094D0902.0" 
d="M238 630v-67h-86v-563h-76v563h-86v67h78l-14 87q-6 41 -18 66.5t-42.5 40.5t-86.5 15h-15q-88 0 -126 -32.5t-38 -80.5v-26h-74q-1 9 -1 35q0 83 67 127t179 44q88 0 138.5 -27.5t73.5 -83.5q11 31 35 48t59 17q25 0 31 -1v-67h-14q-90 0 -90 -70q0 -9 2 -31l9 -61h95z
M263 754v-84h-77v84h77z" />
    <glyph glyph-name="uni093F.00" 
d="M452.5 842.5q34.5 -40.5 34.5 -104.5q0 -29 -1 -38h-74v29q0 42 -19 68.5t-52 35.5q-20 6 -44 6h-19q-33 0 -54 -7q-37 -11 -54.5 -42.5t-17.5 -87.5v-72h86v-67h-86v-563h-76v563h-86v67h86v82q0 75 33 121t94 62q34 11 84 11q36 0 70 -8q61 -15 95.5 -55.5z" />
    <glyph glyph-name="uni093F0901.00" 
d="M590 841h-86v94h86v-94zM705 855q0 -62 -44.5 -102t-114.5 -40q-32 0 -59 9q0 -16 -1 -22h-74v29q0 42 -19 68.5t-52 35.5q-20 6 -44 6h-19q-33 0 -54 -7q-37 -11 -54.5 -42.5t-17.5 -87.5v-72h86v-67h-86v-563h-76v563h-86v67h86v82q0 75 33 121t94 62q34 11 84 11
q36 0 70 -8q52 -13 84 -43h20q0 -16 3 -28q9 -14 15 -35q22 -25 67 -25q86 0 86 88h73z" />
    <glyph glyph-name="uni093F0902.00" 
d="M0 0zM452.5 842.5q34.5 -40.5 34.5 -104.5q0 -29 -1 -38h-74v29q0 42 -19 68.5t-52 35.5q-20 6 -44 6h-19q-33 0 -54 -7q-37 -11 -54.5 -42.5t-17.5 -87.5v-72h86v-67h-86v-563h-76v563h-86v67h86v82q0 75 33 121t94 62q34 11 84 11q36 0 70 -8q61 -15 95.5 -55.5z
M525 906h91v-99h-91v99z" />
    <glyph glyph-name="uni093F0930094D.00" 
d="M567 859v-67h-4q-43 -1 -66 -20.5t-23 -54.5q0 -21 8 -47h-58q-13 32 -13 63v10q-3 36 -21.5 58.5t-48.5 31.5q-20 6 -44 6h-19q-33 0 -54 -7q-37 -11 -54.5 -42.5t-17.5 -87.5v-72h86v-67h-86v-563h-76v563h-86v67h86v82q0 75 33 121t94 62q34 11 84 11q36 0 70 -8
q68 -17 98 -68q38 30 91 30q17 0 21 -1z" />
    <glyph glyph-name="uni093F0930094D0901.00" 
d="M474 727q0 -23 8 -57h-58q-13 32 -13 63v11q-3 35 -21.5 58t-48.5 31q-20 6 -44 6h-19q-33 0 -54 -7q-37 -11 -54.5 -42.5t-17.5 -87.5v-72h86v-67h-86v-563h-76v563h-86v67h86v82q0 75 33 121t94 62q34 11 84 11q36 0 70 -8q62 -16 94 -61q18 21 43 32.5t52 11.5
q17 0 21 -1v-67h-4q-35 -1 -57 -16.5t-29 -44.5v-9h-2q-1 -5 -1 -16zM643 729h-68v74h68v-74zM721 750q0 -46 -32 -74t-81 -28q-47 0 -80.5 28.5t-33.5 73.5h58q0 -31 12 -43.5t44 -12.5q33 0 44 12t11 44h58z" />
    <glyph glyph-name="uni093F0930094D0902.00" 
d="M497 771.5q-23 -19.5 -23 -54.5q0 -21 8 -47h-58q-13 32 -13 63v10q-3 36 -21.5 58.5t-48.5 31.5q-20 6 -44 6h-19q-33 0 -54 -7q-37 -11 -54.5 -42.5t-17.5 -87.5v-72h86v-67h-86v-563h-76v563h-86v67h86v82q0 75 33 121t94 62q34 11 84 11q36 0 70 -8q68 -17 98 -68
q38 30 91 30q17 0 21 -1v-67h-4q-43 -1 -66 -20.5zM600 754v-84h-77v84h77z" />
    <glyph glyph-name="uni093F.01" 
d="M593.5 838q39.5 -40 39.5 -100q0 -29 -1 -38h-74v28q0 35 -22 62t-70 39q-36 10 -95 10h-21q-59 0 -94 -8q-58 -13 -81.5 -45.5t-23.5 -85.5v-70h87v-67h-86v-563h-76v563h-86v67h86v80q0 147 158 184q58 12 126 12t121 -11q73 -17 112.5 -57z" />
    <glyph glyph-name="uni093F.02" 
d="M636 837q40 -40 40 -99q0 -29 -1 -38h-74v28q0 35 -22.5 61.5t-72.5 39.5q-41 10 -113 10h-22q-71 0 -111 -8q-60 -13 -84.5 -46t-24.5 -87v-68h87v-67h-86v-563h-76v563h-86v67h86v78q0 148 162 185q62 13 144 13q72 0 139 -12q75 -17 115 -57z" />
    <glyph glyph-name="uni093F.03" 
d="M678 837q41 -40 41 -99q0 -20 -2 -38h-73v27q0 35 -23.5 61.5t-74.5 39.5q-45 11 -131 11h-24q-85 0 -127 -9q-62 -13 -87.5 -46.5t-25.5 -87.5v-66h87v-67h-86v-563h-76v563h-86v67h86v76q0 149 166 187q67 13 161 13q88 0 158 -13q76 -16 117 -56z" />
    <glyph glyph-name="uni093F.04" 
d="M720 836q41 -40 41 -99q0 -28 -1 -37h-74v27q0 35 -24 61.5t-76 38.5q-51 12 -149 12h-26q-96 0 -144 -10q-64 -13 -90 -46.5t-26 -88.5v-64h87v-67h-86v-563h-76v563h-86v67h86v74q0 151 170 188q70 14 179 14q100 0 175 -13q79 -17 120 -57z" />
    <glyph glyph-name="uni093F.05" 
d="M762.5 835.5q41.5 -39.5 41.5 -98.5q0 -28 -1 -37h-74v26q0 35 -24.5 61.5t-78.5 39.5q-63 12 -167 12h-27q-102 0 -161 -10q-65 -14 -92.5 -48t-27.5 -89v-62h87v-67h-86v-563h-76v563h-86v67h86v72q0 152 174 189q72 15 196 15q116 0 194 -14q81 -17 122.5 -56.5z" />
    <glyph glyph-name="uni093F.06" 
d="M804 834.5q42 -39.5 42 -97.5q0 -28 -1 -37h-74v26q0 35 -25.5 61t-79.5 39q-66 13 -185 13h-29q-115 0 -178 -11q-67 -14 -95 -47.5t-28 -90.5v-60h87v-67h-86v-563h-76v563h-86v67h86v70q0 77 43.5 124.5t134.5 66.5q87 15 214 15q131 0 212 -15q82 -17 124 -56.5z" />
    <glyph glyph-name="uni093F.07" 
d="M889 737q0 -27 -1 -37h-74v25q0 36 -26 62t-82 38q-76 15 -203 15h-30q-124 0 -195 -13q-69 -14 -98 -48t-29 -91v-58h87v-67h-86v-563h-76v563h-86v67h86v68q0 79 44.5 125.5t137.5 66.5q88 16 231 16q142 0 231 -15q169 -36 169 -154z" />
    <glyph glyph-name="uni093F.08" 
d="M932 736q0 -16 -2 -36h-73v24q0 76 -111 101q-83 15 -221 15h-32q-137 0 -211 -14q-71 -14 -101 -48t-30 -92v-56h87v-67h-86v-563h-76v563h-86v67h86v66q0 79 45.5 126.5t140.5 66.5q91 17 249 17q157 0 249 -16q172 -36 172 -154z" />
    <glyph glyph-name="uni093F.09" 
d="M974 736q0 -26 -1 -36h-74v24q0 36 -27.5 62t-85.5 38q-86 16 -239 16h-33q-148 0 -229 -14q-73 -14 -103.5 -48.5t-30.5 -93.5v-54h87v-67h-86v-563h-76v563h-86v67h86v64q0 81 46.5 128t143.5 67q96 17 266 17q164 0 268 -17q174 -35 174 -153z" />
    <glyph glyph-name="uni093F.10" 
d="M1017 736q0 -16 -2 -36h-73v23q0 76 -116 100q-91 17 -257 17h-35q-154 0 -245 -15q-75 -14 -106.5 -48.5t-31.5 -94.5v-52h87v-67h-86v-563h-76v563h-86v67h86v62q0 82 47.5 129t146.5 67q99 18 284 18q176 0 286 -17q177 -35 177 -153z" />
    <glyph glyph-name="uni093F.11" 
d="M1059 736q0 -26 -1 -36h-74v23q0 74 -118 100q-96 17 -275 17h-36q-167 0 -263 -16q-76 -14 -108.5 -48.5t-32.5 -95.5v-50h87v-67h-86v-563h-76v563h-86v67h86v60q0 83 48 130.5t150 67.5q113 18 301 18q193 0 304 -18q180 -35 180 -152z" />
    <glyph glyph-name="uni093F.12" 
d="M1102 735q0 -25 -1 -35h-74v22q0 76 -121 100q-108 18 -293 18h-38q-179 0 -279 -16q-78 -15 -111.5 -50t-33.5 -97v-47h87v-67h-86v-563h-76v563h-86v67h86v57q0 85 49 132.5t153 67.5q114 19 319 19q208 0 322 -19q183 -34 183 -152z" />
    <glyph glyph-name="uni093F.13" 
d="M1145 735q0 -15 -2 -35h-73v21q0 75 -124 100q-113 19 -311 19h-39q-193 0 -296 -17q-81 -15 -115 -50t-34 -98v-45h87v-67h-86v-563h-76v563h-86v67h86v55q0 86 50 133.5t156 67.5q117 20 336 20q222 0 341 -20q186 -34 186 -151z" />
    <glyph glyph-name="uni093F.14" 
d="M1141.5 830q45.5 -38 45.5 -95q0 -25 -1 -35h-74v21q0 75 -126 100q-118 19 -329 19h-41q-206 0 -313 -18q-82 -15 -117 -50t-35 -99v-43h87v-67h-86v-563h-76v563h-86v67h86v53q0 87 51 134.5t159 68.5q122 20 353 20q236 0 360 -20q97 -18 142.5 -56z" />
    <glyph glyph-name="uni093F.15" 
d="M1184 829q46 -38 46 -94q0 -15 -2 -35h-73v20q0 75 -129 100q-121 20 -347 20h-43q-217 0 -329 -18q-84 -16 -120 -51t-36 -100v-41h87v-67h-86v-563h-76v563h-86v67h86v51q0 88 52 136t162 68q124 21 371 21q251 0 378 -21q99 -18 145 -56z" />
    <glyph glyph-name="uni093F.16" 
d="M1226 828.5q46 -37.5 46 -93.5q0 -25 -1 -35h-73v20q0 38 -32.5 62t-99.5 37q-126 21 -365 21h-44q-223 0 -347 -19q-86 -16 -122.5 -51t-36.5 -101v-39h87v-67h-86v-563h-76v563h-86v67h86v49q0 89 52.5 137t165.5 68q135 22 388 22q258 0 397 -22q101 -18 147 -55.5z
" />
    <glyph glyph-name="uni093F.17" 
d="M1268.5 827.5q46.5 -37.5 46.5 -93.5q0 -14 -2 -34h-73v19q0 38 -33 62.5t-101 37.5q-132 21 -384 21h-45q-236 0 -363 -20q-87 -15 -125 -51t-38 -102v-37h87v-67h-86v-563h-76v563h-86v67h86v47q0 90 53.5 138t168.5 69q141 22 406 22q270 0 415 -22
q103 -19 149.5 -56.5z" />
    <glyph glyph-name="uni093F.18" 
d="M1310.5 827q47.5 -37 47.5 -93q0 -14 -2 -34h-73v18q0 39 -33.5 63t-103.5 37q-135 22 -402 22h-46q-247 0 -380 -20q-90 -16 -128.5 -51.5t-38.5 -103.5v-35h87v-67h-86v-563h-76v563h-86v67h86v45q0 91 54.5 139t171.5 69q143 23 423 23q285 0 434 -23
q104 -19 151.5 -56z" />
    <glyph glyph-name="uni093F.19" 
d="M1352.5 826q47.5 -37 47.5 -92q0 -24 -1 -34h-74v18q0 39 -34 62.5t-105 36.5q-139 23 -420 23h-48q-261 0 -397 -21q-91 -16 -130.5 -52t-39.5 -104v-33h87v-67h-86v-563h-76v563h-86v67h86v43q0 92 55.5 140.5t174.5 69.5q149 23 441 23q300 0 451 -24
q107 -19 154.5 -56z" />
    <glyph glyph-name="uni093F.20" 
d="M1395 826q48 -37 48 -92q0 -14 -2 -34h-73v17q0 39 -35 63t-107 37q-154 23 -438 23h-49q-275 0 -414 -22q-94 -16 -134 -52t-40 -105v-31h87v-67h-86v-563h-76v563h-86v67h86v41q0 93 56.5 141.5t177.5 69.5q150 24 458 24q313 0 470 -24q109 -19 157 -56z" />
    <glyph glyph-name="uni093F.21" 
d="M1436.5 825.5q48.5 -36.5 48.5 -92.5q0 -23 -1 -33h-73v17q0 39 -35.5 62.5t-109.5 36.5q-157 24 -456 24h-51q-289 0 -431 -23q-95 -16 -135.5 -52t-40.5 -106v-29h86v-67h-86v-563h-76v563h-86v67h86v39q0 94 57 142.5t181 69.5q162 25 476 25q328 0 488 -25
q110 -19 158.5 -55.5z" />
    <glyph glyph-name="uni093F.22" 
d="M1479 824.5q49 -36.5 49 -91.5q0 -13 -2 -33h-73v16q0 40 -36 63.5t-111 35.5q-161 25 -474 25h-52q-131 0 -250.5 -6t-197.5 -17q-97 -17 -138.5 -53t-41.5 -107v-27h86v-67h-86v-563h-76v563h-86v67h86v37q0 95 58 143.5t184 70.5q167 25 493 25q344 0 507 -26
q112 -19 161 -55.5z" />
    <glyph glyph-name="uni093F.23" 
d="M1521.5 824q49.5 -36 49.5 -91q0 -13 -2 -33h-73v15q0 40 -36.5 63.5t-113.5 36.5q-167 25 -492 25h-54q-137 0 -260.5 -6t-203.5 -18q-99 -17 -141.5 -53t-42.5 -108v-25h86v-67h-86v-563h-76v563h-86v67h86v35q0 97 59 145.5t187 69.5q168 26 511 26q349 0 525 -27
q114 -19 163.5 -55z" />
    <glyph glyph-name="uni093F.24" 
d="M1563 823.5q50 -36.5 50 -90.5q0 -13 -2 -33h-73v15q0 40 -37 63t-115 36q-170 26 -510 26h-55q-319 0 -482 -25q-100 -16 -143.5 -52.5t-43.5 -109.5v-23h86v-67h-86v-563h-76v563h-86v67h86v32q0 98 59.5 147t190.5 70q171 27 528 27q362 0 544 -27q115 -19 165 -55.5z
" />
    <glyph glyph-name="uni093F.25" 
d="M1605.5 822.5q50.5 -36.5 50.5 -90.5q0 -12 -2 -32h-73v14q0 41 -38 64t-117 35q-174 27 -528 27h-57q-331 0 -498 -25q-103 -17 -147 -53.5t-44 -110.5v-21h86v-67h-86v-563h-76v563h-86v67h86v30q0 68 27.5 111t82.5 68t144 40q186 27 546 27q377 0 562 -28
q117 -19 167.5 -55.5z" />
    <glyph glyph-name="uni093F.26" 
d="M1647 822q51 -36 51 -90q0 -22 -1 -32h-73v14q0 40 -38.5 63t-119.5 36q-180 27 -546 27h-59q-344 0 -515 -26q-104 -17 -149 -54t-45 -111v-19h86v-67h-86v-563h-76v563h-86v67h86v28q0 101 61.5 150t195.5 70q190 28 564 28q394 0 580 -29q119 -19 170 -55z" />
    <glyph glyph-name="uni093F.27" 
d="M1690 821.5q51 -35.5 51 -89.5q0 -12 -2 -32h-73v13q0 41 -38.5 63.5t-121.5 35.5q-192 28 -564 28h-60q-358 0 -532 -27q-107 -17 -152.5 -53.5t-45.5 -112.5v-17h86v-67h-86v-563h-76v563h-86v67h86v26q0 69 28.5 113t84.5 69t148 40q194 28 581 28q407 0 599 -29
q122 -20 173 -55.5z" />
    <glyph glyph-name="uni093F.28" 
d="M1732.5 820.5q51.5 -35.5 51.5 -88.5q0 -12 -2 -32h-73v13q0 41 -39.5 63t-123.5 35q-196 29 -582 29h-62q-161 0 -307.5 -6.5t-240.5 -20.5q-73 -12 -117 -31.5t-64.5 -52t-20.5 -84.5v-15h86v-67h-86v-563h-76v563h-86v67h86v24q0 70 29 114t86 69t150 40
q197 29 599 29q421 0 617 -30q124 -20 175.5 -55.5z" />
    <glyph glyph-name="uni093F.29" 
d="M1774 819.5q52 -35.5 52 -88.5q0 -11 -2 -31h-73v12q0 42 -40 63.5t-125 35.5q-202 29 -600 29h-63q-168 0 -318.5 -7t-247.5 -21q-74 -12 -118.5 -31.5t-65.5 -52.5t-21 -85v-13h86v-67h-86v-563h-76v563h-86v67h86v22q0 71 29 115t87 69t153 40q198 30 616 30
q437 0 636 -31q125 -20 177 -55.5z" />
    <glyph glyph-name="uni093F.30" 
d="M1816.5 819.5q52.5 -35.5 52.5 -88.5q0 -11 -2 -31h-73v11q0 42 -40.5 64t-127.5 35q-205 30 -618 30h-65q-174 0 -328.5 -7t-253.5 -22q-76 -12 -121 -31.5t-66.5 -52.5t-21.5 -86v-11h86v-67h-86v-563h-76v563h-86v67h86v20q0 72 29.5 116.5t88.5 69.5t155 40
q215 30 634 30q449 0 654 -31q127 -20 179.5 -55.5z" />
    <glyph glyph-name="uni093F0901.01" 
d="M736 841h-86v94h86v-94zM851 855q0 -62 -44.5 -102t-114.5 -40q-32 0 -59 9q0 -16 -1 -22h-74v28q0 35 -22 62t-70 39q-36 10 -95 10h-21q-59 0 -94 -8q-58 -13 -81.5 -45.5t-23.5 -85.5v-70h87v-67h-86v-563h-76v563h-86v67h86v80q0 147 158 184q58 12 126 12t121 -11
q58 -14 93 -40h33q0 -26 8 -45q4 -5 5 -11q20 -32 72 -32q86 0 86 88h73z" />
    <glyph glyph-name="uni093F0901.02" 
d="M779 841h-86v94h86v-94zM894 855q0 -62 -44.5 -102t-114.5 -40q-32 0 -59 9q0 -16 -1 -22h-74v28q0 35 -22.5 61.5t-72.5 39.5q-41 10 -113 10h-22q-71 0 -111 -8q-60 -13 -84.5 -46t-24.5 -87v-68h87v-67h-86v-563h-76v563h-86v67h86v78q0 148 162 185q62 13 144 13
q72 0 139 -12q55 -12 94 -39h35q0 -28 10 -50l1 -2q20 -36 74 -36q86 0 86 88h73z" />
    <glyph glyph-name="uni093F0901.03" 
d="M821 841h-86v94h86v-94zM936 855q0 -62 -44.5 -102t-114.5 -40q-33 0 -58 9l-2 -22h-73v27q0 35 -23.5 61.5t-74.5 39.5q-45 11 -131 11h-24q-85 0 -127 -9q-62 -13 -87.5 -46.5t-25.5 -87.5v-66h87v-67h-86v-563h-76v563h-86v67h86v76q0 149 166 187q67 13 161 13
q88 0 158 -13q57 -12 95 -38h36q0 -26 8 -47l6 -9q20 -32 71 -32q86 0 86 88h73z" />
    <glyph glyph-name="uni093F0901.04" 
d="M864 841h-86v94h86v-94zM979 855q0 -62 -44.5 -102t-114.5 -40q-32 0 -59 9q0 -16 -1 -22h-74v27q0 35 -24 61.5t-76 38.5q-51 12 -149 12h-26q-96 0 -144 -10q-64 -13 -90 -46.5t-26 -88.5v-64h87v-67h-86v-563h-76v563h-86v67h86v74q0 151 170 188q70 14 179 14
q100 0 175 -13q62 -14 97 -38h38q0 -88 85 -88q86 0 86 88h73z" />
    <glyph glyph-name="uni093F0901.05" 
d="M906 841h-86v94h86v-94zM1021 855q0 -62 -44.5 -102t-114.5 -40q-31 0 -58 9q0 -16 -1 -22h-74v26q0 35 -24.5 61.5t-78.5 39.5q-63 12 -167 12h-27q-102 0 -161 -10q-65 -14 -92.5 -48t-27.5 -89v-62h87v-67h-86v-563h-76v563h-86v67h86v72q0 152 174 189q72 15 196 15
q116 0 194 -14q57 -11 97 -37h40q0 -88 85 -88q86 0 86 88h73z" />
    <glyph glyph-name="uni093F0901.06" 
d="M949 841h-86v94h86v-94zM1064 855q0 -62 -44.5 -102t-114.5 -40q-32 0 -59 9q0 -16 -1 -22h-74v26q0 35 -25.5 61t-79.5 39q-66 13 -185 13h-29q-115 0 -178 -11q-67 -14 -95 -47.5t-28 -90.5v-60h87v-67h-86v-563h-76v563h-86v67h86v70q0 77 43.5 124.5t134.5 66.5
q87 15 214 15q131 0 212 -15q59 -12 97 -36h43q0 -88 85 -88q86 0 86 88h73z" />
    <glyph glyph-name="uni093F0901.07" 
d="M992 841h-86v94h86v-94zM1107 855q0 -62 -44.5 -102t-114.5 -40q-32 0 -59 9q0 -16 -1 -22h-74v25q0 36 -26 62t-82 38q-76 15 -203 15h-30q-124 0 -195 -13q-69 -14 -98 -48t-29 -91v-58h87v-67h-86v-563h-76v563h-86v67h86v68q0 79 44.5 125.5t137.5 66.5q88 16 231 16
q142 0 231 -15q56 -11 99 -36h44q0 -88 85 -88q86 0 86 88h73z" />
    <glyph glyph-name="uni093F0901.08" 
d="M1034 841h-86v94h86v-94zM1149 855q0 -62 -44.5 -102t-114.5 -40q-32 0 -58 9l-2 -22h-73v24q0 76 -111 101q-83 15 -221 15h-32q-137 0 -211 -14q-71 -14 -101 -48t-30 -92v-56h87v-67h-86v-563h-76v563h-86v67h86v66q0 79 45.5 126.5t140.5 66.5q91 17 249 17
q157 0 249 -16q59 -12 99 -35h46q0 -88 85 -88q86 0 86 88h73z" />
    <glyph glyph-name="uni093F0901.09" 
d="M1077 841h-86v94h86v-94zM1192 855q0 -62 -44.5 -102t-114.5 -40q-32 0 -59 9q0 -16 -1 -22h-74v24q0 36 -27.5 62t-85.5 38q-86 16 -239 16h-33q-148 0 -229 -14q-73 -14 -103.5 -48.5t-30.5 -93.5v-54h87v-67h-86v-563h-76v563h-86v67h86v64q0 81 46.5 128t143.5 67
q96 17 266 17q164 0 268 -17q57 -11 99 -34h49q0 -88 85 -88q86 0 86 88h73z" />
    <glyph glyph-name="uni093F0901.10" 
d="M1120 841h-86v94h86v-94zM1235 855q0 -62 -44.5 -102t-114.5 -40q-32 0 -59 9l-2 -22h-73v23q0 76 -116 100q-91 17 -257 17h-35q-154 0 -245 -15q-75 -14 -106.5 -48.5t-31.5 -94.5v-52h87v-67h-86v-563h-76v563h-86v67h86v62q0 82 47.5 129t146.5 67q99 18 284 18
q176 0 286 -17q59 -12 101 -34h50q0 -88 85 -88q86 0 86 88h73z" />
    <glyph glyph-name="uni093F0901.11" 
d="M1162 841h-86v94h86v-94zM1277 855q0 -62 -44.5 -102t-114.5 -40q-32 0 -59 9q0 -16 -1 -22h-74v23q0 74 -118 100q-96 17 -275 17h-36q-167 0 -263 -16q-76 -14 -108.5 -48.5t-32.5 -95.5v-50h87v-67h-86v-563h-76v563h-86v67h86v60q0 83 48 130.5t150 67.5
q113 18 301 18q193 0 304 -18q62 -12 101 -33h53q0 -88 85 -88q86 0 86 88h73z" />
    <glyph glyph-name="uni093F0901.12" 
d="M1205 841h-86v94h86v-94zM1320 855q0 -62 -44.5 -102t-114.5 -40q-32 0 -59 9q0 -16 -1 -22h-74v22q0 76 -121 100q-108 18 -293 18h-38q-179 0 -279 -16q-78 -15 -111.5 -50t-33.5 -97v-47h87v-67h-86v-563h-76v563h-86v67h86v57q0 85 49 132.5t153 67.5q114 19 319 19
q208 0 322 -19q65 -13 102 -32h55q0 -88 85 -88q86 0 86 88h73z" />
    <glyph glyph-name="uni093F0901.13" 
d="M1248 841h-86v94h86v-94zM1363 855q0 -62 -44.5 -102t-114.5 -40q-32 0 -59 9l-2 -22h-73v21q0 75 -124 100q-113 19 -311 19h-39q-193 0 -296 -17q-81 -15 -115 -50t-34 -98v-45h87v-67h-86v-563h-76v563h-86v67h86v55q0 86 50 133.5t156 67.5q117 20 336 20
q222 0 341 -20q62 -12 101 -31h59q0 -88 85 -88q86 0 86 88h73z" />
    </font>
</defs>
</svg>
